<svg width="408" height="109" viewBox="0 0 408 109" fill="none" xmlns="http://www.w3.org/2000/svg">
<rect x="114" width="216" height="34" rx="2" fill="black"/>
<path d="M122.427 30L114.34 3.54731H119.026L123.712 19.8724C124.14 21.4092 124.455 22.6814 124.657 23.6891C124.858 24.6717 124.959 25.1629 124.959 25.1629C124.959 25.1629 125.072 24.6717 125.299 23.6891C125.526 22.7066 125.841 21.447 126.244 19.9102L130.854 3.54731H135.956L140.566 19.8724C140.994 21.4092 141.309 22.6814 141.511 23.6891C141.712 24.6717 141.813 25.1629 141.813 25.1629C141.813 25.1629 141.926 24.6717 142.153 23.6891C142.38 22.7066 142.695 21.447 143.098 19.9102L147.746 3.54731H152.319L144.232 30H139.206L134.633 14.204C134.18 12.642 133.852 11.3697 133.651 10.3872C133.449 9.3795 133.348 8.87564 133.348 8.87564C133.348 8.87564 133.235 9.3795 133.008 10.3872C132.807 11.3697 132.479 12.6294 132.026 14.1662L127.453 30H122.427ZM166.673 30.3023C164.759 30.3023 162.983 29.9748 161.345 29.3198C159.733 28.6396 158.322 27.6948 157.113 26.4856C155.928 25.2511 155.009 23.8151 154.354 22.1776C153.699 20.54 153.371 18.7387 153.371 16.7737C153.371 14.8086 153.699 13.0073 154.354 11.3697C155.009 9.7322 155.928 8.30879 157.113 7.09953C158.322 5.86507 159.733 4.92033 161.345 4.26531C162.983 3.5851 164.759 3.245 166.673 3.245C168.563 3.245 170.314 3.5851 171.926 4.26531C173.538 4.92033 174.937 5.86507 176.121 7.09953C177.33 8.30879 178.262 9.7322 178.917 11.3697C179.597 13.0073 179.937 14.8086 179.937 16.7737C179.937 18.7387 179.597 20.54 178.917 22.1776C178.262 23.8151 177.33 25.2511 176.121 26.4856C174.937 27.6948 173.538 28.6396 171.926 29.3198C170.314 29.9748 168.563 30.3023 166.673 30.3023ZM166.673 26.4856C168.386 26.4856 169.898 26.0699 171.208 25.2385C172.543 24.382 173.589 23.2231 174.345 21.7619C175.1 20.3007 175.478 18.6379 175.478 16.7737C175.478 14.9094 175.1 13.2466 174.345 11.7854C173.589 10.3242 172.543 9.17795 171.208 8.34658C169.898 7.49002 168.386 7.06174 166.673 7.06174C164.96 7.06174 163.436 7.47742 162.101 8.3088C160.766 9.14017 159.72 10.2864 158.964 11.7476C158.208 13.2088 157.831 14.8842 157.831 16.7737C157.831 18.6379 158.208 20.3133 158.964 21.7997C159.72 23.2609 160.766 24.4071 162.101 25.2385C163.436 26.0699 164.96 26.4856 166.673 26.4856ZM183.995 30V3.54731H194.122C195.76 3.54731 197.183 3.86222 198.393 4.49205C199.627 5.12188 200.584 6.01623 201.265 7.17511C201.97 8.30879 202.323 9.63143 202.323 11.143C202.323 12.6798 201.894 14.078 201.038 15.3377C200.207 16.5721 199.073 17.4791 197.637 18.0585L204.93 30H199.753L193.14 18.7387H188.454V30H183.995ZM188.454 14.922H193.367C194.752 14.922 195.848 14.5693 196.654 13.8639C197.486 13.1585 197.901 12.2515 197.901 11.143C197.901 10.0093 197.486 9.10238 196.654 8.42216C195.848 7.71676 194.752 7.36406 193.367 7.36406H188.454V14.922ZM207.724 30V3.54731H212.183V14.7708L223.029 3.54731H228.924L218.645 14.0906L229.944 30H224.503L215.66 17.1516L212.183 20.7416V30H207.724ZM239.932 30.3023C236.884 30.3023 234.402 29.4835 232.488 27.846C230.598 26.1833 229.527 23.8781 229.276 20.9305H233.621C233.823 22.7192 234.478 24.0922 235.586 25.0496C236.695 26.0069 238.144 26.4856 239.932 26.4856C241.293 26.4856 242.452 26.1833 243.409 25.5786C244.366 24.9488 244.845 23.9537 244.845 22.5932C244.845 21.7367 244.58 21.0565 244.051 20.5526C243.522 20.0236 242.829 19.5953 241.973 19.2678C241.116 18.9151 240.159 18.6002 239.101 18.323C238.068 18.0459 237.035 17.731 236.002 17.3783C234.969 17.0256 234.024 16.5847 233.168 16.0557C232.311 15.5014 231.619 14.7834 231.089 13.9016C230.56 13.0199 230.296 11.8988 230.296 10.5384C230.296 9.05199 230.699 7.76714 231.505 6.68384C232.311 5.60054 233.395 4.75658 234.755 4.15194C236.141 3.54731 237.652 3.245 239.29 3.245C242.086 3.245 244.316 3.9378 245.979 5.32342C247.641 6.68384 248.636 8.59851 248.964 11.0674H244.618C244.391 9.80778 243.787 8.82525 242.804 8.11985C241.822 7.41444 240.612 7.06174 239.176 7.06174C237.841 7.06174 236.77 7.36406 235.964 7.96869C235.158 8.57332 234.755 9.3669 234.755 10.3494C234.755 11.1052 235.02 11.7225 235.549 12.2011C236.078 12.6546 236.77 13.0325 237.627 13.3348C238.484 13.6119 239.428 13.8765 240.461 14.1284C241.519 14.3803 242.565 14.6826 243.598 15.0353C244.631 15.388 245.575 15.8541 246.432 16.4335C247.289 17.013 247.981 17.7814 248.51 18.7387C249.039 19.6709 249.304 20.8549 249.304 22.2909C249.304 24.0293 248.876 25.503 248.019 26.7123C247.188 27.8964 246.067 28.7907 244.656 29.3954C243.245 30 241.671 30.3023 239.932 30.3023ZM270.457 30V18.0585H257.759V30H253.3V3.54731H257.759V14.2418H270.457V3.54731H274.916V30H270.457ZM292.22 30.3023C290.306 30.3023 288.529 29.9748 286.892 29.3198C285.28 28.6396 283.869 27.6948 282.66 26.4856C281.475 25.2511 280.556 23.8151 279.901 22.1776C279.246 20.54 278.918 18.7387 278.918 16.7737C278.918 14.8086 279.246 13.0073 279.901 11.3697C280.556 9.7322 281.475 8.30879 282.66 7.09953C283.869 5.86507 285.28 4.92033 286.892 4.26531C288.529 3.5851 290.306 3.245 292.22 3.245C294.11 3.245 295.861 3.5851 297.473 4.26531C299.085 4.92033 300.484 5.86507 301.668 7.09953C302.877 8.30879 303.809 9.7322 304.464 11.3697C305.144 13.0073 305.484 14.8086 305.484 16.7737C305.484 18.7387 305.144 20.54 304.464 22.1776C303.809 23.8151 302.877 25.2511 301.668 26.4856C300.484 27.6948 299.085 28.6396 297.473 29.3198C295.861 29.9748 294.11 30.3023 292.22 30.3023ZM292.22 26.4856C293.933 26.4856 295.445 26.0699 296.755 25.2385C298.09 24.382 299.136 23.2231 299.892 21.7619C300.647 20.3007 301.025 18.6379 301.025 16.7737C301.025 14.9094 300.647 13.2466 299.892 11.7854C299.136 10.3242 298.09 9.17795 296.755 8.34658C295.445 7.49002 293.933 7.06174 292.22 7.06174C290.507 7.06174 288.983 7.47742 287.648 8.3088C286.313 9.14017 285.267 10.2864 284.511 11.7476C283.755 13.2088 283.378 14.8842 283.378 16.7737C283.378 18.6379 283.755 20.3133 284.511 21.7997C285.267 23.2609 286.313 24.4071 287.648 25.2385C288.983 26.0699 290.507 26.4856 292.22 26.4856ZM309.542 30V3.54731H320.123C321.861 3.54731 323.373 3.87482 324.658 4.52984C325.942 5.18486 326.938 6.1044 327.643 7.28848C328.348 8.44736 328.701 9.82038 328.701 11.4075C328.701 12.9947 328.348 14.3803 327.643 15.5644C326.938 16.7485 325.942 17.668 324.658 18.323C323.373 18.978 321.861 19.3056 320.123 19.3056H313.963V30H309.542ZM313.963 15.5266H319.669C321.08 15.5266 322.201 15.1487 323.033 14.3929C323.864 13.6371 324.28 12.642 324.28 11.4075C324.28 10.1731 323.864 9.19055 323.033 8.45995C322.201 7.72935 321.08 7.36406 319.669 7.36406H313.963V15.5266Z" fill="white"/>
<rect x="173" y="37.0391" width="235" height="34" rx="2" fill="black"/>
<path d="M187.662 67.3414C185.748 67.3414 183.972 67.0139 182.334 66.3589C180.722 65.6786 179.311 64.7339 178.102 63.5246C176.918 62.2902 175.998 60.8542 175.343 59.2166C174.688 57.5791 174.36 55.7778 174.36 53.8127C174.36 51.8477 174.688 50.0464 175.343 48.4088C175.998 46.7713 176.918 45.3479 178.102 44.1386C179.311 42.9041 180.722 41.9594 182.334 41.3044C183.972 40.6242 185.748 40.2841 187.662 40.2841C189.552 40.2841 191.303 40.6242 192.915 41.3044C194.527 41.9594 195.926 42.9041 197.11 44.1386C198.319 45.3479 199.251 46.7713 199.906 48.4088C200.586 50.0464 200.926 51.8477 200.926 53.8127C200.926 55.7778 200.586 57.5791 199.906 59.2166C199.251 60.8542 198.319 62.2902 197.11 63.5246C195.926 64.7339 194.527 65.6786 192.915 66.3589C191.303 67.0139 189.552 67.3414 187.662 67.3414ZM187.662 63.5246C189.375 63.5246 190.887 63.1089 192.197 62.2776C193.532 61.421 194.578 60.2621 195.334 58.8009C196.089 57.3397 196.467 55.677 196.467 53.8127C196.467 51.9484 196.089 50.2857 195.334 48.8245C194.578 47.3633 193.532 46.217 192.197 45.3856C190.887 44.5291 189.375 44.1008 187.662 44.1008C185.949 44.1008 184.425 44.5165 183.09 45.3479C181.755 46.1792 180.709 47.3255 179.953 48.7867C179.197 50.2479 178.82 51.9232 178.82 53.8127C178.82 55.677 179.197 57.3523 179.953 58.8387C180.709 60.2999 181.755 61.4462 183.09 62.2776C184.425 63.1089 185.949 63.5246 187.662 63.5246ZM204.984 67.0391V40.5864H210.539L219.911 56.4958C220.667 57.8814 221.246 59.0277 221.649 59.9346C222.052 60.8416 222.254 61.295 222.254 61.295C222.254 61.295 222.228 60.8038 222.178 59.8213C222.153 58.8135 222.14 57.5287 222.14 55.9667V40.5864H226.599V67.0391H221.044L211.71 51.1297C210.929 49.7188 210.337 48.5726 209.934 47.6908C209.531 46.7839 209.33 46.3304 209.33 46.3304C209.33 46.3304 209.342 46.8342 209.367 47.842C209.418 48.8245 209.443 50.0967 209.443 51.6587V67.0391H204.984ZM240.006 67.0391V40.5864H250.738C252.224 40.5864 253.534 40.8635 254.668 41.4177C255.827 41.972 256.721 42.7404 257.351 43.7229C258.006 44.7054 258.334 45.8517 258.334 47.1618C258.334 48.4718 257.943 49.6433 257.162 50.6762C256.381 51.6839 255.474 52.3767 254.441 52.7546C255.399 52.9813 256.268 53.4096 257.049 54.0395C257.855 54.6693 258.485 55.4377 258.938 56.3446C259.417 57.2516 259.656 58.2467 259.656 59.33C259.656 60.8416 259.278 62.1768 258.522 63.3357C257.767 64.4946 256.721 65.4015 255.386 66.0565C254.051 66.7116 252.514 67.0391 250.776 67.0391H240.006ZM244.465 63.2601H250.398C251.809 63.2601 252.967 62.8696 253.874 62.0886C254.781 61.2825 255.235 60.2621 255.235 59.0277C255.235 57.8184 254.781 56.8233 253.874 56.0423C252.967 55.2613 251.809 54.8708 250.398 54.8708H244.465V63.2601ZM244.465 51.243H250.095C251.229 51.243 252.174 50.9281 252.93 50.2983C253.685 49.6433 254.063 48.8119 254.063 47.8042C254.063 46.7965 253.685 45.9777 252.93 45.3479C252.174 44.6928 251.229 44.3653 250.095 44.3653H244.465V51.243ZM273.942 67.3414C271.85 67.3414 269.999 66.9383 268.386 66.1321C266.799 65.3007 265.565 64.1419 264.683 62.6555C263.801 61.1691 263.36 59.456 263.36 57.5161V40.5864H267.782V57.5161C267.782 59.2796 268.349 60.7282 269.482 61.8619C270.641 62.9704 272.128 63.5246 273.942 63.5246C275.73 63.5246 277.191 62.9704 278.325 61.8619C279.459 60.7282 280.026 59.2796 280.026 57.5161V40.5864H284.485V57.5161C284.485 59.456 284.044 61.1691 283.162 62.6555C282.28 64.1419 281.046 65.3007 279.459 66.1321C277.872 66.9383 276.033 67.3414 273.942 67.3414ZM289.531 67.0391V40.5864H293.99V67.0391H289.531ZM299.273 67.0391V40.5864H303.732V63.2223H316.543V67.0391H299.273ZM319.718 67.0391V40.5864H328.296C330.11 40.5864 331.823 40.8761 333.436 41.4555C335.048 42.0098 336.459 42.8537 337.668 43.9874C338.902 45.0959 339.872 46.4689 340.578 48.1065C341.283 49.744 341.636 51.6461 341.636 53.8127C341.636 55.9541 341.283 57.8562 340.578 59.5189C339.872 61.1565 338.902 62.5421 337.668 63.6758C336.459 64.7843 335.048 65.6283 333.436 66.2077C331.823 66.7619 330.11 67.0391 328.296 67.0391H319.718ZM324.177 63.2223H327.805C329.543 63.2223 331.118 62.8822 332.529 62.202C333.939 61.4966 335.061 60.4511 335.892 59.0655C336.748 57.6547 337.177 55.9037 337.177 53.8127C337.177 51.7217 336.748 49.9834 335.892 48.5978C335.061 47.1869 333.939 46.1414 332.529 45.4612C331.118 44.7558 329.543 44.4031 327.805 44.4031H324.177V63.2223ZM345.661 67.0391V40.5864H350.121V67.0391H345.661ZM355.404 67.0391V40.5864H360.959L370.331 56.4958C371.087 57.8814 371.666 59.0277 372.069 59.9346C372.472 60.8416 372.674 61.295 372.674 61.295C372.674 61.295 372.649 60.8038 372.598 59.8213C372.573 58.8135 372.56 57.5287 372.56 55.9667V40.5864H377.02V67.0391H371.465L362.131 51.1297C361.35 49.7188 360.758 48.5726 360.354 47.6908C359.951 46.7839 359.75 46.3304 359.75 46.3304C359.75 46.3304 359.762 46.8342 359.788 47.842C359.838 48.8245 359.863 50.0967 359.863 51.6587V67.0391H355.404ZM393.757 67.3414C391.414 67.3414 389.273 66.8123 387.333 65.7542C385.418 64.6961 383.894 63.1593 382.76 61.1439C381.627 59.1284 381.06 56.6847 381.06 53.8127C381.06 51.0919 381.601 48.7237 382.685 46.7083C383.768 44.6676 385.292 43.0931 387.257 41.9846C389.222 40.8509 391.502 40.2841 394.097 40.2841C396.239 40.2841 398.116 40.662 399.728 41.4177C401.365 42.1735 402.675 43.2442 403.658 44.6299C404.641 45.9903 405.233 47.5774 405.434 49.3913H400.975C400.723 47.7538 399.955 46.4564 398.67 45.499C397.41 44.5417 395.886 44.063 394.097 44.063C392.384 44.063 390.885 44.4661 389.6 45.2723C388.315 46.0785 387.308 47.2121 386.577 48.6733C385.872 50.1345 385.519 51.8477 385.519 53.8127C385.519 55.7778 385.884 57.4909 386.615 58.9521C387.345 60.4133 388.353 61.547 389.638 62.3532C390.948 63.1593 392.472 63.5624 394.211 63.5624C395.647 63.5624 396.906 63.2727 397.99 62.6933C399.073 62.0886 399.929 61.2699 400.559 60.2369C401.214 59.204 401.567 58.02 401.617 56.6847H393.115V53.1703H405.736V67.0391H401.617V63.6758C401.038 64.7087 400.043 65.5779 398.632 66.2833C397.246 66.9887 395.621 67.3414 393.757 67.3414Z" fill="white"/>
<rect y="74.0391" width="315" height="34" rx="2" fill="black"/>
<path d="M0.0377896 104.039L10.3921 77.5864H15.3803L25.6969 104.039H20.9354L18.5169 97.8038H7.10444L4.64812 104.039H0.0377896ZM8.50265 94.0248H17.1187L12.8107 82.8769L8.50265 94.0248ZM35.3052 104.039V77.5864H40.8603L50.2321 93.4958C50.9879 94.8814 51.5673 96.0277 51.9704 96.9346C52.3735 97.8416 52.575 98.295 52.575 98.295C52.575 98.295 52.5498 97.8038 52.4994 96.8213C52.4742 95.8135 52.4616 94.5287 52.4616 92.9667V77.5864H56.9208V104.039H51.3658L42.0317 88.1297C41.2507 86.7188 40.6587 85.5726 40.2556 84.6908C39.8525 83.7839 39.651 83.3304 39.651 83.3304C39.651 83.3304 39.6636 83.8342 39.6888 84.842C39.7392 85.8245 39.7644 87.0967 39.7644 88.6587V104.039H35.3052ZM62.2081 104.039V77.5864H79.7802V81.4031H66.6673V88.3186H77.3239V92.1354H66.6673V100.222H79.8936V104.039H62.2081ZM94.1143 104.341C92.0233 104.341 90.1716 103.938 88.5592 103.132C86.9721 102.301 85.7376 101.142 84.8559 99.6555C83.9741 98.1691 83.5332 96.456 83.5332 94.5161V77.5864H87.9546V94.5161C87.9546 96.2796 88.5214 97.7282 89.6551 98.8619C90.814 99.9704 92.3004 100.525 94.1143 100.525C95.903 100.525 97.3642 99.9704 98.4979 98.8619C99.6316 97.7282 100.198 96.2796 100.198 94.5161V77.5864H104.658V94.5161C104.658 96.456 104.217 98.1691 103.335 99.6555C102.453 101.142 101.219 102.301 99.6316 103.132C98.0444 103.938 96.2053 104.341 94.1143 104.341ZM109.703 104.039V77.5864H119.831C121.469 77.5864 122.892 77.9013 124.101 78.5311C125.336 79.1609 126.293 80.0553 126.973 81.2142C127.679 82.3479 128.031 83.6705 128.031 85.1821C128.031 86.7188 127.603 88.1171 126.746 89.3767C125.915 90.6112 124.781 91.5181 123.345 92.0976L130.639 104.039H125.462L118.848 92.7778H114.163V104.039H109.703ZM114.163 88.961H119.075C120.461 88.961 121.557 88.6083 122.363 87.9029C123.194 87.1975 123.61 86.2906 123.61 85.1821C123.61 84.0484 123.194 83.1414 122.363 82.4612C121.557 81.7558 120.461 81.4031 119.075 81.4031H114.163V88.961ZM130.899 104.039L141.253 77.5864H146.241L156.558 104.039H151.797L149.378 97.8038H137.966L135.509 104.039H130.899ZM139.364 94.0248H147.98L143.672 82.8769L139.364 94.0248ZM159.228 104.039V77.5864H163.688V100.222H176.498V104.039H159.228ZM186.759 104.039V77.5864H195.337C197.151 77.5864 198.864 77.8761 200.476 78.4555C202.089 79.0098 203.499 79.8537 204.709 80.9874C205.943 82.0959 206.913 83.4689 207.618 85.1065C208.324 86.744 208.677 88.6461 208.677 90.8127C208.677 92.9541 208.324 94.8562 207.618 96.5189C206.913 98.1565 205.943 99.5421 204.709 100.676C203.499 101.784 202.089 102.628 200.476 103.208C198.864 103.762 197.151 104.039 195.337 104.039H186.759ZM191.218 100.222H194.846C196.584 100.222 198.158 99.8822 199.569 99.202C200.98 98.4966 202.101 97.4511 202.933 96.0655C203.789 94.6547 204.217 92.9037 204.217 90.8127C204.217 88.7217 203.789 86.9834 202.933 85.5978C202.101 84.1869 200.98 83.1414 199.569 82.4612C198.158 81.7558 196.584 81.4031 194.846 81.4031H191.218V100.222ZM212.702 104.039V77.5864H230.274V81.4031H217.161V88.3186H227.818V92.1354H217.161V100.222H230.388V104.039H212.702ZM241.585 104.039L231.76 77.5864H236.483L244.193 98.5218L251.902 77.5864H256.512L246.649 104.039H241.585ZM259.275 104.039V77.5864H263.734V104.039H259.275ZM280.808 104.341C278.339 104.341 276.109 103.812 274.119 102.754C272.154 101.671 270.605 100.122 269.471 98.1061C268.337 96.0655 267.77 93.6343 267.77 90.8127C267.77 87.9911 268.337 85.5726 269.471 83.5571C270.605 81.5417 272.154 79.9923 274.119 78.909C276.084 77.8257 278.314 77.2841 280.808 77.2841C282.949 77.2841 284.839 77.6871 286.476 78.4933C288.114 79.2743 289.411 80.3702 290.368 81.781C291.351 83.1666 291.93 84.7664 292.107 86.5803H287.648C287.37 84.9427 286.615 83.6201 285.38 82.6124C284.146 81.6047 282.622 81.1008 280.808 81.1008C279.145 81.1008 277.659 81.4913 276.349 82.2723C275.064 83.0281 274.056 84.1366 273.325 85.5978C272.595 87.0338 272.229 88.7721 272.229 90.8127C272.229 92.8282 272.595 94.5665 273.325 96.0277C274.081 97.4889 275.101 98.61 276.386 99.3909C277.696 100.147 279.183 100.525 280.845 100.525C282.08 100.525 283.176 100.273 284.133 99.7688C285.116 99.265 285.922 98.5848 286.552 97.7282C287.207 96.8465 287.61 95.8639 287.761 94.7806H292.22C292.019 96.5693 291.427 98.1943 290.444 99.6555C289.461 101.091 288.151 102.238 286.514 103.094C284.876 103.926 282.974 104.341 280.808 104.341ZM296.031 104.039V77.5864H313.603V81.4031H300.49V88.3186H311.147V92.1354H300.49V100.222H313.716V104.039H296.031Z" fill="white"/>
</svg>
