<svg width="388" height="109" viewBox="0 0 388 109" fill="none" xmlns="http://www.w3.org/2000/svg">
<rect x="118" width="151" height="34" rx="2" fill="black"/>
<path d="M137.802 30V18.0585H125.104V30H120.645V3.54731H125.104V14.2418H137.802V3.54731H142.261V30H137.802ZM159.565 30.3023C157.651 30.3023 155.874 29.9748 154.237 29.3198C152.625 28.6396 151.214 27.6948 150.005 26.4856C148.82 25.2511 147.901 23.8151 147.246 22.1776C146.591 20.54 146.263 18.7387 146.263 16.7737C146.263 14.8086 146.591 13.0073 147.246 11.3697C147.901 9.7322 148.82 8.30879 150.005 7.09953C151.214 5.86507 152.625 4.92033 154.237 4.26531C155.874 3.5851 157.651 3.245 159.565 3.245C161.455 3.245 163.206 3.5851 164.818 4.26531C166.43 4.92033 167.829 5.86507 169.013 7.09953C170.222 8.30879 171.154 9.7322 171.809 11.3697C172.489 13.0073 172.829 14.8086 172.829 16.7737C172.829 18.7387 172.489 20.54 171.809 22.1776C171.154 23.8151 170.222 25.2511 169.013 26.4856C167.829 27.6948 166.43 28.6396 164.818 29.3198C163.206 29.9748 161.455 30.3023 159.565 30.3023ZM159.565 26.4856C161.278 26.4856 162.79 26.0699 164.1 25.2385C165.435 24.382 166.481 23.2231 167.237 21.7619C167.992 20.3007 168.37 18.6379 168.37 16.7737C168.37 14.9094 167.992 13.2466 167.237 11.7854C166.481 10.3242 165.435 9.17795 164.1 8.34658C162.79 7.49002 161.278 7.06174 159.565 7.06174C157.852 7.06174 156.328 7.47742 154.993 8.3088C153.657 9.14017 152.612 10.2864 151.856 11.7476C151.1 13.2088 150.723 14.8842 150.723 16.7737C150.723 18.6379 151.1 20.3133 151.856 21.7997C152.612 23.2609 153.657 24.4071 154.993 25.2385C156.328 26.0699 157.852 26.4856 159.565 26.4856ZM182.041 30L173.954 3.54731H178.64L183.326 19.8724C183.754 21.4092 184.069 22.6814 184.271 23.6891C184.472 24.6717 184.573 25.1629 184.573 25.1629C184.573 25.1629 184.686 24.6717 184.913 23.6891C185.14 22.7066 185.455 21.447 185.858 19.9102L190.468 3.54731H195.57L200.18 19.8724C200.608 21.4092 200.923 22.6814 201.125 23.6891C201.326 24.6717 201.427 25.1629 201.427 25.1629C201.427 25.1629 201.541 24.6717 201.767 23.6891C201.994 22.7066 202.309 21.447 202.712 19.9102L207.36 3.54731H211.933L203.846 30H198.82L194.247 14.204C193.794 12.642 193.466 11.3697 193.265 10.3872C193.063 9.3795 192.962 8.87564 192.962 8.87564C192.962 8.87564 192.849 9.3795 192.622 10.3872C192.421 11.3697 192.093 12.6294 191.64 14.1662L187.067 30H182.041ZM227.218 30V7.36406H219.093V3.54731H239.802V7.36406H231.677V30H227.218ZM253.412 30.3023C251.497 30.3023 249.721 29.9748 248.083 29.3198C246.471 28.6396 245.06 27.6948 243.851 26.4856C242.667 25.2511 241.747 23.8151 241.092 22.1776C240.437 20.54 240.11 18.7387 240.11 16.7737C240.11 14.8086 240.437 13.0073 241.092 11.3697C241.747 9.7322 242.667 8.30879 243.851 7.09953C245.06 5.86507 246.471 4.92033 248.083 4.26531C249.721 3.5851 251.497 3.245 253.412 3.245C255.301 3.245 257.052 3.5851 258.665 4.26531C260.277 4.92033 261.675 5.86507 262.859 7.09953C264.068 8.30879 265.001 9.7322 265.656 11.3697C266.336 13.0073 266.676 14.8086 266.676 16.7737C266.676 18.7387 266.336 20.54 265.656 22.1776C265.001 23.8151 264.068 25.2511 262.859 26.4856C261.675 27.6948 260.277 28.6396 258.665 29.3198C257.052 29.9748 255.301 30.3023 253.412 30.3023ZM253.412 26.4856C255.125 26.4856 256.636 26.0699 257.947 25.2385C259.282 24.382 260.327 23.2231 261.083 21.7619C261.839 20.3007 262.217 18.6379 262.217 16.7737C262.217 14.9094 261.839 13.2466 261.083 11.7854C260.327 10.3242 259.282 9.17795 257.947 8.34658C256.636 7.49002 255.125 7.06174 253.412 7.06174C251.699 7.06174 250.174 7.47742 248.839 8.3088C247.504 9.14017 246.459 10.2864 245.703 11.7476C244.947 13.2088 244.569 14.8842 244.569 16.7737C244.569 18.6379 244.947 20.3133 245.703 21.7997C246.459 23.2609 247.504 24.4071 248.839 25.2385C250.174 26.0699 251.699 26.4856 253.412 26.4856Z" fill="white"/>
<rect y="37.0391" width="222" height="34" rx="2" fill="black"/>
<path d="M8.6916 67.0391V44.4031H0.566843V40.5864H21.2755V44.4031H13.1508V67.0391H8.6916ZM34.8857 67.3414C32.971 67.3414 31.1949 67.0139 29.5573 66.3589C27.945 65.6786 26.5342 64.7339 25.3249 63.5246C24.1408 62.2902 23.2213 60.8542 22.5663 59.2166C21.9112 57.5791 21.5837 55.7778 21.5837 53.8127C21.5837 51.8477 21.9112 50.0464 22.5663 48.4088C23.2213 46.7713 24.1408 45.3479 25.3249 44.1386C26.5342 42.9041 27.945 41.9594 29.5573 41.3044C31.1949 40.6242 32.971 40.2841 34.8857 40.2841C36.7751 40.2841 38.5261 40.6242 40.1384 41.3044C41.7508 41.9594 43.149 42.9041 44.3331 44.1386C45.5423 45.3479 46.4745 46.7713 47.1295 48.4088C47.8097 50.0464 48.1498 51.8477 48.1498 53.8127C48.1498 55.7778 47.8097 57.5791 47.1295 59.2166C46.4745 60.8542 45.5423 62.2902 44.3331 63.5246C43.149 64.7339 41.7508 65.6786 40.1384 66.3589C38.5261 67.0139 36.7751 67.3414 34.8857 67.3414ZM34.8857 63.5246C36.5988 63.5246 38.1104 63.1089 39.4204 62.2776C40.7556 61.421 41.8012 60.2621 42.5569 58.8009C43.3127 57.3397 43.6906 55.677 43.6906 53.8127C43.6906 51.9484 43.3127 50.2857 42.5569 48.8245C41.8012 47.3633 40.7556 46.217 39.4204 45.3856C38.1104 44.5291 36.5988 44.1008 34.8857 44.1008C33.1725 44.1008 31.6484 44.5165 30.3131 45.3479C28.9779 46.1792 27.9324 47.3255 27.1766 48.7867C26.4208 50.2479 26.0429 51.9232 26.0429 53.8127C26.0429 55.677 26.4208 57.3523 27.1766 58.8387C27.9324 60.2999 28.9779 61.4462 30.3131 62.2776C31.6484 63.1089 33.1725 63.5246 34.8857 63.5246ZM60.326 67.0391V40.5864H64.7852V67.0391H60.326ZM70.0686 67.0391V40.5864H76.3417L82.8415 56.1557C83.4461 57.6169 83.887 58.8261 84.1641 59.7835C84.4413 60.7156 84.5798 61.1817 84.5798 61.1817C84.5798 61.1817 84.731 60.7156 85.0333 59.7835C85.3356 58.8261 85.7891 57.6169 86.3937 56.1557L92.8935 40.5864H99.0154V67.0391H94.5563V51.8855C94.5563 50.2983 94.5689 49.0134 94.594 48.0309C94.6444 47.0232 94.6696 46.5193 94.6696 46.5193C94.6696 46.5193 94.5059 46.9854 94.1784 47.9175C93.8509 48.8497 93.3848 50.059 92.7801 51.5453L86.3181 67.0391H82.7659L76.3039 51.5453C75.6993 50.0841 75.2332 48.8875 74.9057 47.9553C74.5782 47.0232 74.4144 46.5571 74.4144 46.5571C74.4144 46.5571 74.427 47.0484 74.4522 48.0309C74.5026 49.0134 74.5278 50.2983 74.5278 51.8855V67.0391H70.0686ZM104.315 67.0391V40.5864H114.896C116.635 40.5864 118.146 40.9139 119.431 41.5689C120.716 42.2239 121.711 43.1435 122.417 44.3275C123.122 45.4864 123.475 46.8594 123.475 48.4466C123.475 50.0338 123.122 51.4194 122.417 52.6035C121.711 53.7875 120.716 54.7071 119.431 55.3621C118.146 56.0171 116.635 56.3446 114.896 56.3446H108.737V67.0391H104.315ZM108.737 52.5657H114.443C115.854 52.5657 116.975 52.1878 117.806 51.432C118.638 50.6762 119.053 49.6811 119.053 48.4466C119.053 47.2121 118.638 46.2296 117.806 45.499C116.975 44.7684 115.854 44.4031 114.443 44.4031H108.737V52.5657ZM126.864 67.0391V40.5864H136.991C138.629 40.5864 140.052 40.9013 141.261 41.5311C142.496 42.1609 143.453 43.0553 144.133 44.2142C144.839 45.3479 145.192 46.6705 145.192 48.1821C145.192 49.7188 144.763 51.1171 143.907 52.3767C143.075 53.6112 141.942 54.5181 140.506 55.0976L147.799 67.0391H142.622L136.009 55.7778H131.323V67.0391H126.864ZM131.323 51.961H136.235C137.621 51.961 138.717 51.6083 139.523 50.9029C140.355 50.1975 140.77 49.2906 140.77 48.1821C140.77 47.0484 140.355 46.1414 139.523 45.4612C138.717 44.7558 137.621 44.4031 136.235 44.4031H131.323V51.961ZM161.687 67.3414C159.773 67.3414 157.997 67.0139 156.359 66.3589C154.747 65.6786 153.336 64.7339 152.127 63.5246C150.943 62.2902 150.023 60.8542 149.368 59.2166C148.713 57.5791 148.385 55.7778 148.385 53.8127C148.385 51.8477 148.713 50.0464 149.368 48.4088C150.023 46.7713 150.943 45.3479 152.127 44.1386C153.336 42.9041 154.747 41.9594 156.359 41.3044C157.997 40.6242 159.773 40.2841 161.687 40.2841C163.577 40.2841 165.328 40.6242 166.94 41.3044C168.552 41.9594 169.951 42.9041 171.135 44.1386C172.344 45.3479 173.276 46.7713 173.931 48.4088C174.611 50.0464 174.951 51.8477 174.951 53.8127C174.951 55.7778 174.611 57.5791 173.931 59.2166C173.276 60.8542 172.344 62.2902 171.135 63.5246C169.951 64.7339 168.552 65.6786 166.94 66.3589C165.328 67.0139 163.577 67.3414 161.687 67.3414ZM161.687 63.5246C163.4 63.5246 164.912 63.1089 166.222 62.2776C167.557 61.421 168.603 60.2621 169.359 58.8009C170.114 57.3397 170.492 55.677 170.492 53.8127C170.492 51.9484 170.114 50.2857 169.359 48.8245C168.603 47.3633 167.557 46.217 166.222 45.3856C164.912 44.5291 163.4 44.1008 161.687 44.1008C159.974 44.1008 158.45 44.5165 157.115 45.3479C155.78 46.1792 154.734 47.3255 153.978 48.7867C153.222 50.2479 152.845 51.9232 152.845 53.8127C152.845 55.677 153.222 57.3523 153.978 58.8387C154.734 60.2999 155.78 61.4462 157.115 62.2776C158.45 63.1089 159.974 63.5246 161.687 63.5246ZM185.38 67.0391L175.555 40.5864H180.279L187.988 61.5218L195.697 40.5864H200.307L190.444 67.0391H185.38ZM203.07 67.0391V40.5864H220.642V44.4031H207.529V51.3186H218.186V55.1354H207.529V63.2223H220.756V67.0391H203.07Z" fill="white"/>
<rect x="222" y="74.0391" width="166" height="34" rx="2" fill="black"/>
<path d="M224.645 104.039V77.5864H230.918L237.418 93.1557C238.023 94.6169 238.464 95.8261 238.741 96.7835C239.018 97.7156 239.156 98.1817 239.156 98.1817C239.156 98.1817 239.308 97.7156 239.61 96.7835C239.912 95.8261 240.366 94.6169 240.97 93.1557L247.47 77.5864H253.592V104.039H249.133V88.8855C249.133 87.2983 249.145 86.0134 249.171 85.0309C249.221 84.0232 249.246 83.5193 249.246 83.5193C249.246 83.5193 249.083 83.9854 248.755 84.9175C248.427 85.8497 247.961 87.059 247.357 88.5453L240.895 104.039H237.343L230.881 88.5453C230.276 87.0841 229.81 85.8875 229.482 84.9553C229.155 84.0232 228.991 83.5571 228.991 83.5571C228.991 83.5571 229.004 84.0484 229.029 85.0309C229.079 86.0134 229.104 87.2983 229.104 88.8855V104.039H224.645ZM258.892 104.039V77.5864H276.464V81.4031H263.351V88.3186H274.008V92.1354H263.351V100.222H276.578V104.039H258.892ZM280.444 104.039V77.5864H286.717L293.217 93.1557C293.821 94.6169 294.262 95.8261 294.539 96.7835C294.817 97.7156 294.955 98.1817 294.955 98.1817C294.955 98.1817 295.106 97.7156 295.409 96.7835C295.711 95.8261 296.164 94.6169 296.769 93.1557L303.269 77.5864H309.391V104.039H304.932V88.8855C304.932 87.2983 304.944 86.0134 304.969 85.0309C305.02 84.0232 305.045 83.5193 305.045 83.5193C305.045 83.5193 304.881 83.9854 304.554 84.9175C304.226 85.8497 303.76 87.059 303.155 88.5453L296.693 104.039H293.141L286.679 88.5453C286.075 87.0841 285.608 85.8875 285.281 84.9553C284.953 84.0232 284.79 83.5571 284.79 83.5571C284.79 83.5571 284.802 84.0484 284.827 85.0309C284.878 86.0134 284.903 87.2983 284.903 88.8855V104.039H280.444ZM326.708 104.341C324.793 104.341 323.017 104.014 321.379 103.359C319.767 102.679 318.356 101.734 317.147 100.525C315.963 99.2902 315.043 97.8542 314.388 96.2166C313.733 94.5791 313.406 92.7778 313.406 90.8127C313.406 88.8477 313.733 87.0464 314.388 85.4088C315.043 83.7713 315.963 82.3479 317.147 81.1386C318.356 79.9041 319.767 78.9594 321.379 78.3044C323.017 77.6242 324.793 77.2841 326.708 77.2841C328.597 77.2841 330.348 77.6242 331.961 78.3044C333.573 78.9594 334.971 79.9041 336.155 81.1386C337.364 82.3479 338.297 83.7713 338.952 85.4088C339.632 87.0464 339.972 88.8477 339.972 90.8127C339.972 92.7778 339.632 94.5791 338.952 96.2166C338.297 97.8542 337.364 99.2902 336.155 100.525C334.971 101.734 333.573 102.679 331.961 103.359C330.348 104.014 328.597 104.341 326.708 104.341ZM326.708 100.525C328.421 100.525 329.932 100.109 331.243 99.2776C332.578 98.421 333.623 97.2621 334.379 95.8009C335.135 94.3397 335.513 92.677 335.513 90.8127C335.513 88.9484 335.135 87.2857 334.379 85.8245C333.623 84.3633 332.578 83.217 331.243 82.3856C329.932 81.5291 328.421 81.1008 326.708 81.1008C324.995 81.1008 323.47 81.5165 322.135 82.3479C320.8 83.1792 319.754 84.3255 318.999 85.7867C318.243 87.2479 317.865 88.9232 317.865 90.8127C317.865 92.677 318.243 94.3523 318.999 95.8387C319.754 97.2999 320.8 98.4462 322.135 99.2776C323.47 100.109 324.995 100.525 326.708 100.525ZM344.029 104.039V77.5864H354.157C355.794 77.5864 357.218 77.9013 358.427 78.5311C359.662 79.1609 360.619 80.0553 361.299 81.2142C362.004 82.3479 362.357 83.6705 362.357 85.1821C362.357 86.7188 361.929 88.1171 361.072 89.3767C360.241 90.6112 359.107 91.5181 357.671 92.0976L364.965 104.039H359.788L353.174 92.7778H348.488V104.039H344.029ZM348.488 88.961H353.401C354.787 88.961 355.883 88.6083 356.689 87.9029C357.52 87.1975 357.936 86.2906 357.936 85.1821C357.936 84.0484 357.52 83.1414 356.689 82.4612C355.883 81.7558 354.787 81.4031 353.401 81.4031H348.488V88.961ZM373.016 104.039V93.269L363.455 77.5864H368.632L375.321 88.6965L382.01 77.5864H386.998L377.437 93.2312V104.039H373.016Z" fill="white"/>
</svg>
