<svg width="340" height="109" viewBox="0 0 340 109" fill="none" xmlns="http://www.w3.org/2000/svg">
<rect width="151" height="34" rx="2" fill="black"/>
<path d="M19.8017 30V18.0585H7.10444V30H2.64527V3.54731H7.10444V14.2418H19.8017V3.54731H24.2609V30H19.8017ZM41.5653 30.3023C39.6506 30.3023 37.8745 29.9748 36.2369 29.3198C34.6246 28.6396 33.2138 27.6948 32.0045 26.4856C30.8204 25.2511 29.9009 23.8151 29.2459 22.1776C28.5908 20.54 28.2633 18.7387 28.2633 16.7737C28.2633 14.8086 28.5908 13.0073 29.2459 11.3697C29.9009 9.7322 30.8204 8.30879 32.0045 7.09953C33.2138 5.86507 34.6246 4.92033 36.2369 4.26531C37.8745 3.5851 39.6506 3.245 41.5653 3.245C43.4547 3.245 45.2057 3.5851 46.818 4.26531C48.4304 4.92033 49.8286 5.86507 51.0127 7.09953C52.2219 8.30879 53.1541 9.7322 53.8091 11.3697C54.4893 13.0073 54.8294 14.8086 54.8294 16.7737C54.8294 18.7387 54.4893 20.54 53.8091 22.1776C53.1541 23.8151 52.2219 25.2511 51.0127 26.4856C49.8286 27.6948 48.4304 28.6396 46.818 29.3198C45.2057 29.9748 43.4547 30.3023 41.5653 30.3023ZM41.5653 26.4856C43.2784 26.4856 44.79 26.0699 46.1 25.2385C47.4352 24.382 48.4808 23.2231 49.2365 21.7619C49.9923 20.3007 50.3702 18.6379 50.3702 16.7737C50.3702 14.9094 49.9923 13.2466 49.2365 11.7854C48.4808 10.3242 47.4352 9.17795 46.1 8.34658C44.79 7.49002 43.2784 7.06174 41.5653 7.06174C39.8521 7.06174 38.328 7.47742 36.9927 8.3088C35.6575 9.14017 34.612 10.2864 33.8562 11.7476C33.1004 13.2088 32.7225 14.8842 32.7225 16.7737C32.7225 18.6379 33.1004 20.3133 33.8562 21.7997C34.612 23.2609 35.6575 24.4071 36.9927 25.2385C38.328 26.0699 39.8521 26.4856 41.5653 26.4856ZM64.0412 30L55.9542 3.54731H60.6401L65.326 19.8724C65.7543 21.4092 66.0692 22.6814 66.2708 23.6891C66.4723 24.6717 66.5731 25.1629 66.5731 25.1629C66.5731 25.1629 66.6865 24.6717 66.9132 23.6891C67.1399 22.7066 67.4548 21.447 67.8579 19.9102L72.4683 3.54731H77.5699L82.1802 19.8724C82.6085 21.4092 82.9234 22.6814 83.1249 23.6891C83.3265 24.6717 83.4272 25.1629 83.4272 25.1629C83.4272 25.1629 83.5406 24.6717 83.7673 23.6891C83.9941 22.7066 84.309 21.447 84.7121 19.9102L89.3602 3.54731H93.9327L85.8458 30H80.8198L76.2472 14.204C75.7937 12.642 75.4662 11.3697 75.2647 10.3872C75.0631 9.3795 74.9624 8.87564 74.9624 8.87564C74.9624 8.87564 74.849 9.3795 74.6223 10.3872C74.4207 11.3697 74.0932 12.6294 73.6397 14.1662L69.0672 30H64.0412ZM109.218 30V7.36406H101.093V3.54731H121.802V7.36406H113.677V30H109.218ZM135.412 30.3023C133.497 30.3023 131.721 29.9748 130.083 29.3198C128.471 28.6396 127.06 27.6948 125.851 26.4856C124.667 25.2511 123.747 23.8151 123.092 22.1776C122.437 20.54 122.11 18.7387 122.11 16.7737C122.11 14.8086 122.437 13.0073 123.092 11.3697C123.747 9.7322 124.667 8.30879 125.851 7.09953C127.06 5.86507 128.471 4.92033 130.083 4.26531C131.721 3.5851 133.497 3.245 135.412 3.245C137.301 3.245 139.052 3.5851 140.665 4.26531C142.277 4.92033 143.675 5.86507 144.859 7.09953C146.068 8.30879 147.001 9.7322 147.656 11.3697C148.336 13.0073 148.676 14.8086 148.676 16.7737C148.676 18.7387 148.336 20.54 147.656 22.1776C147.001 23.8151 146.068 25.2511 144.859 26.4856C143.675 27.6948 142.277 28.6396 140.665 29.3198C139.052 29.9748 137.301 30.3023 135.412 30.3023ZM135.412 26.4856C137.125 26.4856 138.636 26.0699 139.947 25.2385C141.282 24.382 142.327 23.2231 143.083 21.7619C143.839 20.3007 144.217 18.6379 144.217 16.7737C144.217 14.9094 143.839 13.2466 143.083 11.7854C142.327 10.3242 141.282 9.17795 139.947 8.34658C138.636 7.49002 137.125 7.06174 135.412 7.06174C133.699 7.06174 132.174 7.47742 130.839 8.3088C129.504 9.14017 128.459 10.2864 127.703 11.7476C126.947 13.2088 126.569 14.8842 126.569 16.7737C126.569 18.6379 126.947 20.3133 127.703 21.7997C128.459 23.2609 129.504 24.4071 130.839 25.2385C132.174 26.0699 133.699 26.4856 135.412 26.4856Z" fill="white"/>
<rect x="139.52" y="37.1562" width="178" height="34" rx="2" fill="black"/>
<path d="M153.955 67.4586C151.486 67.4586 149.257 66.9295 147.266 65.8714C145.301 64.7881 143.752 63.2387 142.618 61.2233C141.485 59.1827 140.918 56.7515 140.918 53.9299C140.918 51.1083 141.485 48.6898 142.618 46.6743C143.752 44.6589 145.301 43.1095 147.266 42.0262C149.231 40.9429 151.461 40.4012 153.955 40.4012C156.097 40.4012 157.986 40.8043 159.624 41.6105C161.261 42.3915 162.559 43.4874 163.516 44.8982C164.498 46.2838 165.078 47.8836 165.254 49.6975H160.795C160.518 48.0599 159.762 46.7373 158.528 45.7296C157.293 44.7218 155.769 44.218 153.955 44.218C152.292 44.218 150.806 44.6085 149.496 45.3895C148.211 46.1453 147.203 47.2538 146.473 48.7149C145.742 50.1509 145.377 51.8893 145.377 53.9299C145.377 55.9453 145.742 57.6837 146.473 59.1449C147.229 60.6061 148.249 61.7272 149.534 62.5081C150.844 63.2639 152.33 63.6418 153.993 63.6418C155.227 63.6418 156.323 63.3899 157.281 62.886C158.263 62.3822 159.069 61.702 159.699 60.8454C160.354 59.9636 160.757 58.9811 160.908 57.8978H165.368C165.166 59.6865 164.574 61.3115 163.591 62.7727C162.609 64.2087 161.299 65.3549 159.661 66.2115C158.024 67.0429 156.122 67.4586 153.955 67.4586ZM181.196 67.4586C179.281 67.4586 177.505 67.1311 175.867 66.476C174.255 65.7958 172.844 64.8511 171.635 63.6418C170.451 62.4074 169.531 60.9714 168.876 59.3338C168.221 57.6963 167.894 55.895 167.894 53.9299C167.894 51.9648 168.221 50.1635 168.876 48.526C169.531 46.8885 170.451 45.465 171.635 44.2558C172.844 43.0213 174.255 42.0766 175.867 41.4216C177.505 40.7414 179.281 40.4012 181.196 40.4012C183.085 40.4012 184.836 40.7414 186.448 41.4216C188.061 42.0766 189.459 43.0213 190.643 44.2558C191.852 45.465 192.784 46.8885 193.439 48.526C194.12 50.1635 194.46 51.9648 194.46 53.9299C194.46 55.895 194.12 57.6963 193.439 59.3338C192.784 60.9714 191.852 62.4074 190.643 63.6418C189.459 64.8511 188.061 65.7958 186.448 66.476C184.836 67.1311 183.085 67.4586 181.196 67.4586ZM181.196 63.6418C182.909 63.6418 184.42 63.2261 185.73 62.3948C187.065 61.5382 188.111 60.3793 188.867 58.9181C189.623 57.4569 190 55.7942 190 53.9299C190 52.0656 189.623 50.4029 188.867 48.9417C188.111 47.4805 187.065 46.3342 185.73 45.5028C184.42 44.6463 182.909 44.218 181.196 44.218C179.482 44.218 177.958 44.6337 176.623 45.465C175.288 46.2964 174.242 47.4427 173.486 48.9039C172.731 50.3651 172.353 52.0404 172.353 53.9299C172.353 55.7942 172.731 57.4695 173.486 58.9559C174.242 60.4171 175.288 61.5634 176.623 62.3948C177.958 63.2261 179.482 63.6418 181.196 63.6418ZM198.517 67.1562V40.7036H204.072L213.444 56.613C214.2 57.9986 214.779 59.1449 215.182 60.0518C215.585 60.9588 215.787 61.4122 215.787 61.4122C215.787 61.4122 215.762 60.921 215.711 59.9384C215.686 58.9307 215.673 57.6459 215.673 56.0839V40.7036H220.133V67.1562H214.578L205.244 51.2468C204.463 49.836 203.871 48.6898 203.467 47.808C203.064 46.901 202.863 46.4476 202.863 46.4476C202.863 46.4476 202.875 46.9514 202.901 47.9592C202.951 48.9417 202.976 50.2139 202.976 51.7759V67.1562H198.517ZM231.466 67.1562V44.5203H223.341V40.7036H244.05V44.5203H235.925V67.1562H231.466ZM247.267 67.1562V40.7036H257.395C259.032 40.7036 260.456 41.0185 261.665 41.6483C262.899 42.2781 263.857 43.1725 264.537 44.3314C265.242 45.465 265.595 46.7877 265.595 48.2993C265.595 49.836 265.167 51.2343 264.31 52.4939C263.479 53.7284 262.345 54.6353 260.909 55.2148L268.202 67.1562H263.025L256.412 55.895H251.726V67.1562H247.267ZM251.726 52.0782H256.639C258.024 52.0782 259.12 51.7255 259.926 51.0201C260.758 50.3147 261.174 49.4078 261.174 48.2993C261.174 47.1656 260.758 46.2586 259.926 45.5784C259.12 44.873 258.024 44.5203 256.639 44.5203H251.726V52.0782ZM282.091 67.4586C280.176 67.4586 278.4 67.1311 276.762 66.476C275.15 65.7958 273.739 64.8511 272.53 63.6418C271.346 62.4074 270.426 60.9714 269.771 59.3338C269.116 57.6963 268.789 55.895 268.789 53.9299C268.789 51.9648 269.116 50.1635 269.771 48.526C270.426 46.8885 271.346 45.465 272.53 44.2558C273.739 43.0213 275.15 42.0766 276.762 41.4216C278.4 40.7414 280.176 40.4012 282.091 40.4012C283.98 40.4012 285.731 40.7414 287.343 41.4216C288.956 42.0766 290.354 43.0213 291.538 44.2558C292.747 45.465 293.679 46.8885 294.334 48.526C295.015 50.1635 295.355 51.9648 295.355 53.9299C295.355 55.895 295.015 57.6963 294.334 59.3338C293.679 60.9714 292.747 62.4074 291.538 63.6418C290.354 64.8511 288.956 65.7958 287.343 66.476C285.731 67.1311 283.98 67.4586 282.091 67.4586ZM282.091 63.6418C283.804 63.6418 285.315 63.2261 286.625 62.3948C287.961 61.5382 289.006 60.3793 289.762 58.9181C290.518 57.4569 290.896 55.7942 290.896 53.9299C290.896 52.0656 290.518 50.4029 289.762 48.9417C289.006 47.4805 287.961 46.3342 286.625 45.5028C285.315 44.6463 283.804 44.218 282.091 44.218C280.378 44.218 278.853 44.6337 277.518 45.465C276.183 46.2964 275.137 47.4427 274.382 48.9039C273.626 50.3651 273.248 52.0404 273.248 53.9299C273.248 55.7942 273.626 57.4695 274.382 58.9559C275.137 60.4171 276.183 61.5634 277.518 62.3948C278.853 63.2261 280.378 63.6418 282.091 63.6418ZM299.412 67.1562V40.7036H303.871V63.3395H316.682V67.1562H299.412Z" fill="white"/>
<rect x="6.17773" y="74.2109" width="333" height="34" rx="2" fill="black"/>
<path d="M20.6133 104.513C18.1444 104.513 15.9148 103.984 13.9246 102.926C11.9595 101.843 10.4102 100.293 9.27648 98.278C8.14279 96.2373 7.57595 93.8062 7.57595 90.9846C7.57595 88.163 8.14279 85.7444 9.27648 83.729C10.4102 81.7136 11.9595 80.1642 13.9246 79.0809C15.8897 77.9976 18.1192 77.4559 20.6133 77.4559C22.7548 77.4559 24.6442 77.859 26.2818 78.6652C27.9193 79.4462 29.2168 80.5421 30.1741 81.9529C31.1566 83.3385 31.7361 84.9383 31.9124 86.7522H27.4533C27.1761 85.1146 26.4203 83.792 25.1859 82.7843C23.9514 81.7765 22.4272 81.2727 20.6133 81.2727C18.9506 81.2727 17.4642 81.6632 16.1542 82.4442C14.8693 83.1999 13.8616 84.3084 13.131 85.7696C12.4004 87.2056 12.0351 88.944 12.0351 90.9846C12.0351 93 12.4004 94.7384 13.131 96.1996C13.8868 97.6607 14.9071 98.7818 16.192 99.5628C17.502 100.319 18.9884 100.697 20.6511 100.697C21.8856 100.697 22.9815 100.445 23.9388 99.9407C24.9214 99.4369 25.7275 98.7566 26.3574 97.9001C27.0124 97.0183 27.4155 96.0358 27.5666 94.9525H32.0258C31.8242 96.7412 31.2322 98.3662 30.2497 99.8273C29.2672 101.263 27.9571 102.41 26.3196 103.266C24.682 104.098 22.7799 104.513 20.6133 104.513ZM47.8537 104.513C45.939 104.513 44.1629 104.186 42.5254 103.531C40.913 102.851 39.5022 101.906 38.293 100.697C37.1089 99.462 36.1893 98.026 35.5343 96.3885C34.8793 94.751 34.5518 92.9496 34.5518 90.9846C34.5518 89.0195 34.8793 87.2182 35.5343 85.5807C36.1893 83.9431 37.1089 82.5197 38.293 81.3105C39.5022 80.076 40.913 79.1313 42.5254 78.4762C44.1629 77.796 45.939 77.4559 47.8537 77.4559C49.7432 77.4559 51.4941 77.796 53.1065 78.4762C54.7188 79.1313 56.117 80.076 57.3011 81.3105C58.5104 82.5197 59.4425 83.9431 60.0975 85.5807C60.7777 87.2182 61.1178 89.0195 61.1178 90.9846C61.1178 92.9496 60.7777 94.751 60.0975 96.3885C59.4425 98.026 58.5104 99.462 57.3011 100.697C56.117 101.906 54.7188 102.851 53.1065 103.531C51.4941 104.186 49.7432 104.513 47.8537 104.513ZM47.8537 100.697C49.5668 100.697 51.0784 100.281 52.3885 99.4495C53.7237 98.5929 54.7692 97.434 55.525 95.9728C56.2808 94.5116 56.6587 92.8489 56.6587 90.9846C56.6587 89.1203 56.2808 87.4576 55.525 85.9964C54.7692 84.5352 53.7237 83.3889 52.3885 82.5575C51.0784 81.701 49.5668 81.2727 47.8537 81.2727C46.1406 81.2727 44.6164 81.6884 43.2812 82.5197C41.9459 83.3511 40.9004 84.4974 40.1446 85.9586C39.3888 87.4198 39.011 89.0951 39.011 90.9846C39.011 92.8489 39.3888 94.5242 40.1446 96.0106C40.9004 97.4718 41.9459 98.6181 43.2812 99.4495C44.6164 100.281 46.1406 100.697 47.8537 100.697ZM65.1752 104.211V77.7582H70.7303L80.1021 93.6677C80.8579 95.0533 81.4373 96.1996 81.8404 97.1065C82.2435 98.0135 82.445 98.4669 82.445 98.4669C82.445 98.4669 82.4198 97.9757 82.3694 96.9931C82.3443 95.9854 82.3317 94.7006 82.3317 93.1386V77.7582H86.7908V104.211H81.2358L71.9017 88.3015C71.1208 86.8907 70.5287 85.7444 70.1256 84.8627C69.7225 83.9557 69.521 83.5023 69.521 83.5023C69.521 83.5023 69.5336 84.0061 69.5588 85.0138C69.6092 85.9964 69.6344 87.2686 69.6344 88.8306V104.211H65.1752ZM101.148 104.513C98.0993 104.513 95.6177 103.694 93.7031 102.057C91.8136 100.394 90.7429 98.089 90.491 95.1414H94.8368C95.0383 96.9301 95.6933 98.3032 96.8018 99.2605C97.9103 100.218 99.3589 100.697 101.148 100.697C102.508 100.697 103.667 100.394 104.624 99.7896C105.582 99.1597 106.06 98.1646 106.06 96.8042C106.06 95.9476 105.796 95.2674 105.267 94.7635C104.738 94.2345 104.045 93.8062 103.188 93.4787C102.332 93.126 101.374 92.8111 100.316 92.534C99.2833 92.2568 98.2504 91.9419 97.2175 91.5892C96.1846 91.2365 95.2398 90.7956 94.3833 90.2666C93.5267 89.7123 92.8339 88.9943 92.3049 88.1126C91.7758 87.2308 91.5113 86.1097 91.5113 84.7493C91.5113 83.2629 91.9144 81.9781 92.7205 80.8948C93.5267 79.8115 94.61 78.9675 95.9704 78.3629C97.3561 77.7582 98.8676 77.4559 100.505 77.4559C103.302 77.4559 105.531 78.1487 107.194 79.5344C108.857 80.8948 109.852 82.8095 110.179 85.2784H105.834C105.607 84.0187 105.002 83.0362 104.02 82.3308C103.037 81.6254 101.828 81.2727 100.392 81.2727C99.0566 81.2727 97.9859 81.575 97.1797 82.1796C96.3735 82.7843 95.9704 83.5778 95.9704 84.5604C95.9704 85.3162 96.235 85.9334 96.764 86.4121C97.2931 86.8655 97.9859 87.2434 98.8424 87.5457C99.699 87.8229 100.644 88.0874 101.677 88.3393C102.735 88.5913 103.78 88.8936 104.813 89.2463C105.846 89.599 106.791 90.065 107.647 90.6445C108.504 91.2239 109.197 91.9923 109.726 92.9496C110.255 93.8818 110.519 95.0659 110.519 96.5019C110.519 98.2402 110.091 99.714 109.235 100.923C108.403 102.107 107.282 103.002 105.871 103.606C104.46 104.211 102.886 104.513 101.148 104.513ZM126.306 104.513C123.837 104.513 121.608 103.984 119.617 102.926C117.652 101.843 116.103 100.293 114.969 98.278C113.835 96.2373 113.269 93.8062 113.269 90.9846C113.269 88.163 113.835 85.7444 114.969 83.729C116.103 81.7136 117.652 80.1642 119.617 79.0809C121.582 77.9976 123.812 77.4559 126.306 77.4559C128.447 77.4559 130.337 77.859 131.974 78.6652C133.612 79.4462 134.909 80.5421 135.867 81.9529C136.849 83.3385 137.429 84.9383 137.605 86.7522H133.146C132.869 85.1146 132.113 83.792 130.879 82.7843C129.644 81.7765 128.12 81.2727 126.306 81.2727C124.643 81.2727 123.157 81.6632 121.847 82.4442C120.562 83.1999 119.554 84.3084 118.824 85.7696C118.093 87.2056 117.728 88.944 117.728 90.9846C117.728 93 118.093 94.7384 118.824 96.1996C119.579 97.6607 120.6 98.7818 121.885 99.5628C123.195 100.319 124.681 100.697 126.344 100.697C127.578 100.697 128.674 100.445 129.631 99.9407C130.614 99.4369 131.42 98.7566 132.05 97.9001C132.705 97.0183 133.108 96.0358 133.259 94.9525H137.718C137.517 96.7412 136.925 98.3662 135.942 99.8273C134.96 101.263 133.65 102.41 132.012 103.266C130.375 104.098 128.473 104.513 126.306 104.513ZM141.529 104.211V77.7582H145.988V104.211H141.529ZM163.289 104.513C161.374 104.513 159.598 104.186 157.961 103.531C156.348 102.851 154.937 101.906 153.728 100.697C152.544 99.462 151.625 98.026 150.97 96.3885C150.315 94.751 149.987 92.9496 149.987 90.9846C149.987 89.0195 150.315 87.2182 150.97 85.5807C151.625 83.9431 152.544 82.5197 153.728 81.3105C154.937 80.076 156.348 79.1313 157.961 78.4762C159.598 77.796 161.374 77.4559 163.289 77.4559C165.178 77.4559 166.929 77.796 168.542 78.4762C170.154 79.1313 171.552 80.076 172.736 81.3105C173.946 82.5197 174.878 83.9431 175.533 85.5807C176.213 87.2182 176.553 89.0195 176.553 90.9846C176.553 92.9496 176.213 94.751 175.533 96.3885C174.878 98.026 173.946 99.462 172.736 100.697C171.552 101.906 170.154 102.851 168.542 103.531C166.929 104.186 165.178 104.513 163.289 104.513ZM163.289 100.697C165.002 100.697 166.514 100.281 167.824 99.4495C169.159 98.5929 170.204 97.434 170.96 95.9728C171.716 94.5116 172.094 92.8489 172.094 90.9846C172.094 89.1203 171.716 87.4576 170.96 85.9964C170.204 84.5352 169.159 83.3889 167.824 82.5575C166.514 81.701 165.002 81.2727 163.289 81.2727C161.576 81.2727 160.052 81.6884 158.716 82.5197C157.381 83.3511 156.336 84.4974 155.58 85.9586C154.824 87.4198 154.446 89.0951 154.446 90.9846C154.446 92.8489 154.824 94.5242 155.58 96.0106C156.336 97.4718 157.381 98.6181 158.716 99.4495C160.052 100.281 161.576 100.697 163.289 100.697ZM190.965 104.513C188.874 104.513 187.022 104.11 185.41 103.304C183.823 102.473 182.588 101.314 181.706 99.8273C180.825 98.341 180.384 96.6278 180.384 94.688V77.7582H184.805V94.688C184.805 96.4515 185.372 97.9001 186.506 99.0338C187.665 100.142 189.151 100.697 190.965 100.697C192.754 100.697 194.215 100.142 195.348 99.0338C196.482 97.9001 197.049 96.4515 197.049 94.688V77.7582H201.508V94.688C201.508 96.6278 201.067 98.341 200.185 99.8273C199.304 101.314 198.069 102.473 196.482 103.304C194.895 104.11 193.056 104.513 190.965 104.513ZM215.623 104.513C212.575 104.513 210.094 103.694 208.179 102.057C206.289 100.394 205.219 98.089 204.967 95.1414H209.313C209.514 96.9301 210.169 98.3032 211.278 99.2605C212.386 100.218 213.835 100.697 215.623 100.697C216.984 100.697 218.143 100.394 219.1 99.7896C220.057 99.1597 220.536 98.1646 220.536 96.8042C220.536 95.9476 220.272 95.2674 219.742 94.7635C219.213 94.2345 218.521 93.8062 217.664 93.4787C216.807 93.126 215.85 92.8111 214.792 92.534C213.759 92.2568 212.726 91.9419 211.693 91.5892C210.66 91.2365 209.716 90.7956 208.859 90.2666C208.002 89.7123 207.31 88.9943 206.781 88.1126C206.252 87.2308 205.987 86.1097 205.987 84.7493C205.987 83.2629 206.39 81.9781 207.196 80.8948C208.002 79.8115 209.086 78.9675 210.446 78.3629C211.832 77.7582 213.343 77.4559 214.981 77.4559C217.777 77.4559 220.007 78.1487 221.67 79.5344C223.332 80.8948 224.328 82.8095 224.655 85.2784H220.309C220.083 84.0187 219.478 83.0362 218.495 82.3308C217.513 81.6254 216.304 81.2727 214.868 81.2727C213.532 81.2727 212.462 81.575 211.655 82.1796C210.849 82.7843 210.446 83.5778 210.446 84.5604C210.446 85.3162 210.711 85.9334 211.24 86.4121C211.769 86.8655 212.462 87.2434 213.318 87.5457C214.175 87.8229 215.12 88.0874 216.152 88.3393C217.211 88.5913 218.256 88.8936 219.289 89.2463C220.322 89.599 221.267 90.065 222.123 90.6445C222.98 91.2239 223.673 91.9923 224.202 92.9496C224.731 93.8818 224.995 95.0659 224.995 96.5019C224.995 98.2402 224.567 99.714 223.71 100.923C222.879 102.107 221.758 103.002 220.347 103.606C218.936 104.211 217.362 104.513 215.623 104.513ZM228.991 104.211V77.7582H234.547L243.918 93.6677C244.674 95.0533 245.254 96.1996 245.657 97.1065C246.06 98.0135 246.261 98.4669 246.261 98.4669C246.261 98.4669 246.236 97.9757 246.186 96.9931C246.161 95.9854 246.148 94.7006 246.148 93.1386V77.7582H250.607V104.211H245.052L235.718 88.3015C234.937 86.8907 234.345 85.7444 233.942 84.8627C233.539 83.9557 233.337 83.5023 233.337 83.5023C233.337 83.5023 233.35 84.0061 233.375 85.0138C233.425 85.9964 233.451 87.2686 233.451 88.8306V104.211H228.991ZM255.894 104.211V77.7582H273.466V81.575H260.354V88.4905H271.01V92.3072H260.354V100.394H273.58V104.211H255.894ZM286.442 104.513C283.394 104.513 280.912 103.694 278.997 102.057C277.108 100.394 276.037 98.089 275.785 95.1414H280.131C280.333 96.9301 280.988 98.3032 282.096 99.2605C283.205 100.218 284.653 100.697 286.442 100.697C287.802 100.697 288.961 100.394 289.919 99.7896C290.876 99.1597 291.355 98.1646 291.355 96.8042C291.355 95.9476 291.09 95.2674 290.561 94.7635C290.032 94.2345 289.339 93.8062 288.483 93.4787C287.626 93.126 286.669 92.8111 285.611 92.534C284.578 92.2568 283.545 91.9419 282.512 91.5892C281.479 91.2365 280.534 90.7956 279.678 90.2666C278.821 89.7123 278.128 88.9943 277.599 88.1126C277.07 87.2308 276.806 86.1097 276.806 84.7493C276.806 83.2629 277.209 81.9781 278.015 80.8948C278.821 79.8115 279.904 78.9675 281.265 78.3629C282.65 77.7582 284.162 77.4559 285.799 77.4559C288.596 77.4559 290.825 78.1487 292.488 79.5344C294.151 80.8948 295.146 82.8095 295.474 85.2784H291.128C290.901 84.0187 290.296 83.0362 289.314 82.3308C288.331 81.6254 287.122 81.2727 285.686 81.2727C284.351 81.2727 283.28 81.575 282.474 82.1796C281.668 82.7843 281.265 83.5778 281.265 84.5604C281.265 85.3162 281.529 85.9334 282.058 86.4121C282.587 86.8655 283.28 87.2434 284.137 87.5457C284.993 87.8229 285.938 88.0874 286.971 88.3393C288.029 88.5913 289.075 88.8936 290.107 89.2463C291.14 89.599 292.085 90.065 292.942 90.6445C293.798 91.2239 294.491 91.9923 295.02 92.9496C295.549 93.8818 295.814 95.0659 295.814 96.5019C295.814 98.2402 295.385 99.714 294.529 100.923C293.698 102.107 292.576 103.002 291.166 103.606C289.755 104.211 288.18 104.513 286.442 104.513ZM308.879 104.513C305.831 104.513 303.35 103.694 301.435 102.057C299.545 100.394 298.475 98.089 298.223 95.1414H302.569C302.77 96.9301 303.425 98.3032 304.534 99.2605C305.642 100.218 307.091 100.697 308.879 100.697C310.24 100.697 311.399 100.394 312.356 99.7896C313.313 99.1597 313.792 98.1646 313.792 96.8042C313.792 95.9476 313.528 95.2674 312.998 94.7635C312.469 94.2345 311.777 93.8062 310.92 93.4787C310.064 93.126 309.106 92.8111 308.048 92.534C307.015 92.2568 305.982 91.9419 304.949 91.5892C303.916 91.2365 302.972 90.7956 302.115 90.2666C301.259 89.7123 300.566 88.9943 300.037 88.1126C299.508 87.2308 299.243 86.1097 299.243 84.7493C299.243 83.2629 299.646 81.9781 300.452 80.8948C301.259 79.8115 302.342 78.9675 303.702 78.3629C305.088 77.7582 306.599 77.4559 308.237 77.4559C311.033 77.4559 313.263 78.1487 314.926 79.5344C316.589 80.8948 317.584 82.8095 317.911 85.2784H313.565C313.339 84.0187 312.734 83.0362 311.751 82.3308C310.769 81.6254 309.56 81.2727 308.124 81.2727C306.788 81.2727 305.718 81.575 304.912 82.1796C304.105 82.7843 303.702 83.5778 303.702 84.5604C303.702 85.3162 303.967 85.9334 304.496 86.4121C305.025 86.8655 305.718 87.2434 306.574 87.5457C307.431 87.8229 308.376 88.0874 309.408 88.3393C310.467 88.5913 311.512 88.8936 312.545 89.2463C313.578 89.599 314.523 90.065 315.379 90.6445C316.236 91.2239 316.929 91.9923 317.458 92.9496C317.987 93.8818 318.251 95.0659 318.251 96.5019C318.251 98.2402 317.823 99.714 316.966 100.923C316.135 102.107 315.014 103.002 313.603 103.606C312.192 104.211 310.618 104.513 308.879 104.513ZM326.287 96.6152C326.187 95.28 326.325 94.1715 326.703 93.2898C327.081 92.408 327.585 91.6774 328.215 91.098C328.87 90.5185 329.537 89.9769 330.218 89.473C331.024 88.8684 331.742 88.2386 332.372 87.5835C333.027 86.9285 333.354 86.0342 333.354 84.9005C333.354 83.7668 332.938 82.822 332.107 82.0663C331.301 81.3105 330.268 80.9326 329.008 80.9326C327.522 80.9326 326.363 81.4238 325.532 82.4064C324.7 83.3637 324.335 84.5982 324.436 86.1097H320.506C320.43 84.3462 320.732 82.822 321.413 81.5372C322.118 80.2524 323.126 79.2572 324.436 78.5518C325.746 77.8212 327.27 77.4559 329.008 77.4559C330.696 77.4559 332.17 77.7708 333.43 78.4007C334.715 79.0305 335.71 79.9123 336.415 81.0459C337.146 82.1544 337.511 83.4519 337.511 84.9383C337.511 86.1223 337.309 87.1175 336.906 87.9236C336.503 88.7046 335.999 89.3722 335.395 89.9265C334.79 90.4807 334.16 90.9972 333.505 91.4759C332.901 91.9041 332.334 92.345 331.805 92.7985C331.301 93.252 330.898 93.781 330.595 94.3857C330.293 94.9903 330.155 95.7335 330.18 96.6152H326.287ZM328.252 104.438C327.472 104.438 326.816 104.186 326.287 103.682C325.784 103.178 325.532 102.536 325.532 101.755C325.532 100.999 325.784 100.369 326.287 99.8651C326.816 99.3613 327.472 99.1093 328.252 99.1093C329.008 99.1093 329.638 99.3613 330.142 99.8651C330.671 100.369 330.936 100.999 330.936 101.755C330.936 102.536 330.671 103.178 330.142 103.682C329.638 104.186 329.008 104.438 328.252 104.438Z" fill="white"/>
</svg>
