<svg width="372" height="109" viewBox="0 0 372 109" fill="none" xmlns="http://www.w3.org/2000/svg">
<rect width="178" height="34" rx="2" fill="black"/>
<path d="M2.64527 30V3.54731H13.2263C14.9647 3.54731 16.4762 3.87482 17.7611 4.52984C19.0459 5.18486 20.0411 6.1044 20.7465 7.28848C21.4519 8.44736 21.8046 9.82038 21.8046 11.4075C21.8046 12.9947 21.4519 14.3803 20.7465 15.5644C20.0411 16.7485 19.0459 17.668 17.7611 18.323C16.4762 18.978 14.9647 19.3056 13.2263 19.3056H7.06665V30H2.64527ZM7.06665 15.5266H12.7729C14.1837 15.5266 15.3048 15.1487 16.1361 14.3929C16.9675 13.6371 17.3832 12.642 17.3832 11.4075C17.3832 10.1731 16.9675 9.19055 16.1361 8.45995C15.3048 7.72935 14.1837 7.36406 12.7729 7.36406H7.06665V15.5266ZM25.1935 30V3.54731H35.3211C36.9587 3.54731 38.3821 3.86222 39.5914 4.49205C40.8258 5.12188 41.7831 6.01623 42.4634 7.17511C43.1688 8.30879 43.5215 9.63143 43.5215 11.143C43.5215 12.6798 43.0932 14.078 42.2366 15.3377C41.4052 16.5721 40.2716 17.4791 38.8356 18.0585L46.1289 30H40.9518L34.3386 18.7387H29.6527V30H25.1935ZM29.6527 14.922H34.5653C35.951 14.922 37.0469 14.5693 37.853 13.8639C38.6844 13.1585 39.1001 12.2515 39.1001 11.143C39.1001 10.0093 38.6844 9.10238 37.853 8.42216C37.0469 7.71676 35.951 7.36406 34.5653 7.36406H29.6527V14.922ZM46.389 30L56.7434 3.54731H61.7316L72.0481 30H67.2867L64.8681 23.7647H53.4557L50.9994 30H46.389ZM54.8539 19.9858H63.4699L59.1619 8.83785L54.8539 19.9858ZM85.5125 30.3023C83.0435 30.3023 80.814 29.7733 78.8237 28.7152C76.8586 27.6319 75.3093 26.0825 74.1756 24.067C73.0419 22.0264 72.4751 19.5953 72.4751 16.7737C72.4751 13.952 73.0419 11.5335 74.1756 9.51806C75.3093 7.50262 76.8586 5.95325 78.8237 4.86995C80.7888 3.78665 83.0183 3.245 85.5125 3.245C87.6539 3.245 89.5433 3.64808 91.1809 4.45426C92.8184 5.23524 94.1159 6.33114 95.0732 7.74195C96.0557 9.12757 96.6352 10.7273 96.8115 12.5412H92.3524C92.0752 10.9037 91.3194 9.58104 90.085 8.57332C88.8505 7.5656 87.3264 7.06174 85.5125 7.06174C83.8497 7.06174 82.3633 7.45223 81.0533 8.23322C79.7684 8.98901 78.7607 10.0975 78.0301 11.5587C77.2995 12.9947 76.9342 14.733 76.9342 16.7737C76.9342 18.7891 77.2995 20.5274 78.0301 21.9886C78.7859 23.4498 79.8062 24.5709 81.0911 25.3519C82.4011 26.1077 83.8875 26.4856 85.5502 26.4856C86.7847 26.4856 87.8806 26.2336 88.8379 25.7298C89.8205 25.2259 90.6266 24.5457 91.2565 23.6891C91.9115 22.8074 92.3146 21.8249 92.4657 20.7416H96.9249C96.7234 22.5303 96.1313 24.1552 95.1488 25.6164C94.1663 27.0524 92.8562 28.1987 91.2187 29.0553C89.5811 29.8866 87.6791 30.3023 85.5125 30.3023ZM105.601 30V7.36406H97.4764V3.54731H118.185V7.36406H110.06V30H105.601ZM121.402 30V3.54731H125.861V30H121.402ZM142.935 30.3023C140.466 30.3023 138.236 29.7733 136.246 28.7152C134.281 27.6319 132.732 26.0825 131.598 24.067C130.464 22.0264 129.897 19.5953 129.897 16.7737C129.897 13.952 130.464 11.5335 131.598 9.51806C132.732 7.50262 134.281 5.95325 136.246 4.86995C138.211 3.78665 140.441 3.245 142.935 3.245C145.076 3.245 146.966 3.64808 148.603 4.45426C150.241 5.23524 151.538 6.33114 152.496 7.74195C153.478 9.12757 154.058 10.7273 154.234 12.5412H149.775C149.498 10.9037 148.742 9.58104 147.507 8.57332C146.273 7.5656 144.749 7.06174 142.935 7.06174C141.272 7.06174 139.786 7.45223 138.476 8.23322C137.191 8.98901 136.183 10.0975 135.453 11.5587C134.722 12.9947 134.357 14.733 134.357 16.7737C134.357 18.7891 134.722 20.5274 135.453 21.9886C136.208 23.4498 137.229 24.5709 138.513 25.3519C139.824 26.1077 141.31 26.4856 142.973 26.4856C144.207 26.4856 145.303 26.2336 146.26 25.7298C147.243 25.2259 148.049 24.5457 148.679 23.6891C149.334 22.8074 149.737 21.8249 149.888 20.7416H154.347C154.146 22.5303 153.554 24.1552 152.571 25.6164C151.589 27.0524 150.279 28.1987 148.641 29.0553C147.004 29.8866 145.101 30.3023 142.935 30.3023ZM158.158 30V3.54731H175.73V7.36406H162.617V14.2795H173.274V18.0963H162.617V26.1833H175.844V30H158.158Z" fill="white"/>
<rect x="23.2441" y="37.1562" width="239" height="34" rx="2" fill="black"/>
<path d="M37.9065 67.4586C35.9918 67.4586 34.2157 67.1311 32.5782 66.476C30.9658 65.7958 29.555 64.8511 28.3457 63.6418C27.1617 62.4074 26.2421 60.9714 25.5871 59.3338C24.9321 57.6963 24.6046 55.895 24.6046 53.9299C24.6046 51.9648 24.9321 50.1635 25.5871 48.526C26.2421 46.8885 27.1617 45.465 28.3457 44.2558C29.555 43.0213 30.9658 42.0766 32.5782 41.4216C34.2157 40.7414 35.9918 40.4012 37.9065 40.4012C39.796 40.4012 41.5469 40.7414 43.1592 41.4216C44.7716 42.0766 46.1698 43.0213 47.3539 44.2558C48.5631 45.465 49.4953 46.8885 50.1503 48.526C50.8305 50.1635 51.1706 51.9648 51.1706 53.9299C51.1706 55.895 50.8305 57.6963 50.1503 59.3338C49.4953 60.9714 48.5631 62.4074 47.3539 63.6418C46.1698 64.8511 44.7716 65.7958 43.1592 66.476C41.5469 67.1311 39.796 67.4586 37.9065 67.4586ZM37.9065 63.6418C39.6196 63.6418 41.1312 63.2261 42.4412 62.3948C43.7765 61.5382 44.822 60.3793 45.5778 58.9181C46.3336 57.4569 46.7115 55.7942 46.7115 53.9299C46.7115 52.0656 46.3336 50.4029 45.5778 48.9417C44.822 47.4805 43.7765 46.3342 42.4412 45.5028C41.1312 44.6463 39.6196 44.218 37.9065 44.218C36.1934 44.218 34.6692 44.6337 33.334 45.465C31.9987 46.2964 30.9532 47.4427 30.1974 48.9039C29.4416 50.3651 29.0637 52.0404 29.0637 53.9299C29.0637 55.7942 29.4416 57.4695 30.1974 58.9559C30.9532 60.4171 31.9987 61.5634 33.334 62.3948C34.6692 63.2261 36.1934 63.6418 37.9065 63.6418ZM55.228 67.1562V40.7036H72.8001V44.5203H59.6871V51.4358H70.3438V55.2525H59.6871V67.1562H55.228ZM94.8807 67.4586C92.4118 67.4586 90.1822 66.9295 88.192 65.8714C86.2269 64.7881 84.6776 63.2387 83.5439 61.2233C82.4102 59.1827 81.8433 56.7515 81.8433 53.9299C81.8433 51.1083 82.4102 48.6898 83.5439 46.6743C84.6776 44.6589 86.2269 43.1095 88.192 42.0262C90.157 40.9429 92.3866 40.4012 94.8807 40.4012C97.0221 40.4012 98.9116 40.8043 100.549 41.6105C102.187 42.3915 103.484 43.4874 104.441 44.8982C105.424 46.2838 106.003 47.8836 106.18 49.6975H101.721C101.444 48.0599 100.688 46.7373 99.4533 45.7296C98.2188 44.7218 96.6946 44.218 94.8807 44.218C93.218 44.218 91.7316 44.6085 90.4216 45.3895C89.1367 46.1453 88.129 47.2538 87.3984 48.7149C86.6678 50.1509 86.3025 51.8893 86.3025 53.9299C86.3025 55.9453 86.6678 57.6837 87.3984 59.1449C88.1542 60.6061 89.1745 61.7272 90.4594 62.5081C91.7694 63.2639 93.2558 63.6418 94.9185 63.6418C96.153 63.6418 97.2489 63.3899 98.2062 62.886C99.1887 62.3822 99.9949 61.702 100.625 60.8454C101.28 59.9636 101.683 58.9811 101.834 57.8978H106.293C106.092 59.6865 105.5 61.3115 104.517 62.7727C103.535 64.2087 102.225 65.3549 100.587 66.2115C98.9494 67.0429 97.0473 67.4586 94.8807 67.4586ZM110.104 67.1562V40.7036H120.232C121.869 40.7036 123.293 41.0185 124.502 41.6483C125.736 42.2781 126.694 43.1725 127.374 44.3314C128.079 45.465 128.432 46.7877 128.432 48.2993C128.432 49.836 128.004 51.2343 127.147 52.4939C126.316 53.7284 125.182 54.6353 123.746 55.2148L131.039 67.1562H125.862L119.249 55.895H114.563V67.1562H110.104ZM114.563 52.0782H119.476C120.861 52.0782 121.957 51.7255 122.764 51.0201C123.595 50.3147 124.011 49.4078 124.011 48.2993C124.011 47.1656 123.595 46.2586 122.764 45.5784C121.957 44.873 120.861 44.5203 119.476 44.5203H114.563V52.0782ZM133.833 67.1562V40.7036H151.405V44.5203H138.292V51.4358H148.949V55.2525H138.292V63.3395H151.519V67.1562H133.833ZM152.778 67.1562L163.132 40.7036H168.12L178.437 67.1562H173.675L171.257 60.921H159.844L157.388 67.1562H152.778ZM161.242 57.142H169.858L165.55 45.9941L161.242 57.142ZM183.648 67.1562V44.5203H175.523V40.7036H196.231V44.5203H188.107V67.1562H183.648ZM199.448 67.1562V40.7036H203.907V67.1562H199.448ZM209.191 67.1562V40.7036H214.746L224.118 56.613C224.874 57.9986 225.453 59.1449 225.856 60.0518C226.259 60.9588 226.461 61.4122 226.461 61.4122C226.461 61.4122 226.436 60.921 226.385 59.9384C226.36 58.9307 226.347 57.6459 226.347 56.0839V40.7036H230.807V67.1562H225.251L215.917 51.2468C215.136 49.836 214.544 48.6898 214.141 47.808C213.738 46.901 213.537 46.4476 213.537 46.4476C213.537 46.4476 213.549 46.9514 213.574 47.9592C213.625 48.9417 213.65 50.2139 213.65 51.7759V67.1562H209.191ZM247.544 67.4586C245.201 67.4586 243.06 66.9295 241.12 65.8714C239.205 64.8133 237.681 63.2765 236.547 61.2611C235.414 59.2456 234.847 56.8019 234.847 53.9299C234.847 51.2091 235.388 48.8409 236.472 46.8255C237.555 44.7848 239.079 43.2103 241.044 42.1018C243.009 40.9681 245.289 40.4012 247.884 40.4012C250.026 40.4012 251.902 40.7791 253.515 41.5349C255.152 42.2907 256.462 43.3614 257.445 44.747C258.427 46.1075 259.019 47.6946 259.221 49.5085H254.762C254.51 47.871 253.742 46.5735 252.457 45.6162C251.197 44.6589 249.673 44.1802 247.884 44.1802C246.171 44.1802 244.672 44.5833 243.387 45.3895C242.102 46.1956 241.095 47.3293 240.364 48.7905C239.659 50.2517 239.306 51.9648 239.306 53.9299C239.306 55.895 239.671 57.6081 240.402 59.0693C241.132 60.5305 242.14 61.6642 243.425 62.4703C244.735 63.2765 246.259 63.6796 247.998 63.6796C249.434 63.6796 250.693 63.3899 251.776 62.8105C252.86 62.2058 253.716 61.387 254.346 60.3541C255.001 59.3212 255.354 58.1371 255.404 56.8019H246.902V53.2875H259.523V67.1562H255.404V63.793C254.825 64.8259 253.83 65.6951 252.419 66.4005C251.033 67.1059 249.408 67.4586 247.544 67.4586Z" fill="white"/>
<rect x="35.2461" y="74.2109" width="336" height="34" rx="2" fill="black"/>
<path d="M37.8914 104.211V77.7582H43.4464L52.8182 93.6677C53.574 95.0533 54.1535 96.1996 54.5566 97.1065C54.9596 98.0135 55.1612 98.4669 55.1612 98.4669C55.1612 98.4669 55.136 97.9757 55.0856 96.9931C55.0604 95.9854 55.0478 94.7006 55.0478 93.1386V77.7582H59.507V104.211H53.9519L44.6179 88.3015C43.8369 86.8907 43.2449 85.7444 42.8418 84.8627C42.4387 83.9557 42.2372 83.5023 42.2372 83.5023C42.2372 83.5023 42.2498 84.0061 42.275 85.0138C42.3253 85.9964 42.3505 87.2686 42.3505 88.8306V104.211H37.8914ZM64.7943 104.211V77.7582H82.3664V81.575H69.2534V88.4905H79.9101V92.3072H69.2534V100.394H82.4798V104.211H64.7943ZM96.7005 104.513C94.6095 104.513 92.7578 104.11 91.1454 103.304C89.5582 102.473 88.3238 101.314 87.442 99.8273C86.5603 98.341 86.1194 96.6278 86.1194 94.688V77.7582H90.5408V94.688C90.5408 96.4515 91.1076 97.9001 92.2413 99.0338C93.4002 100.142 94.8866 100.697 96.7005 100.697C98.4892 100.697 99.9504 100.142 101.084 99.0338C102.218 97.9001 102.785 96.4515 102.785 94.688V77.7582H107.244V94.688C107.244 96.6278 106.803 98.341 105.921 99.8273C105.039 101.314 103.805 102.473 102.218 103.304C100.631 104.11 98.7915 104.513 96.7005 104.513ZM112.29 104.211V77.7582H122.417C124.055 77.7582 125.478 78.0732 126.687 78.703C127.922 79.3328 128.879 80.2272 129.559 81.386C130.265 82.5197 130.617 83.8424 130.617 85.3539C130.617 86.8907 130.189 88.2889 129.333 89.5486C128.501 90.783 127.368 91.69 125.932 92.2694L133.225 104.211H128.048L121.435 92.9496H116.749V104.211H112.29ZM116.749 89.1329H121.661C123.047 89.1329 124.143 88.7802 124.949 88.0748C125.78 87.3694 126.196 86.4624 126.196 85.3539C126.196 84.2203 125.78 83.3133 124.949 82.6331C124.143 81.9277 123.047 81.575 121.661 81.575H116.749V89.1329ZM147.113 104.513C145.199 104.513 143.422 104.186 141.785 103.531C140.173 102.851 138.762 101.906 137.552 100.697C136.368 99.462 135.449 98.026 134.794 96.3885C134.139 94.751 133.811 92.9496 133.811 90.9846C133.811 89.0195 134.139 87.2182 134.794 85.5807C135.449 83.9431 136.368 82.5197 137.552 81.3105C138.762 80.076 140.173 79.1313 141.785 78.4762C143.422 77.796 145.199 77.4559 147.113 77.4559C149.003 77.4559 150.754 77.796 152.366 78.4762C153.978 79.1313 155.377 80.076 156.561 81.3105C157.77 82.5197 158.702 83.9431 159.357 85.5807C160.037 87.2182 160.377 89.0195 160.377 90.9846C160.377 92.9496 160.037 94.751 159.357 96.3885C158.702 98.026 157.77 99.462 156.561 100.697C155.377 101.906 153.978 102.851 152.366 103.531C150.754 104.186 149.003 104.513 147.113 104.513ZM147.113 100.697C148.826 100.697 150.338 100.281 151.648 99.4495C152.983 98.5929 154.029 97.434 154.784 95.9728C155.54 94.5116 155.918 92.8489 155.918 90.9846C155.918 89.1203 155.54 87.4576 154.784 85.9964C154.029 84.5352 152.983 83.3889 151.648 82.5575C150.338 81.701 148.826 81.2727 147.113 81.2727C145.4 81.2727 143.876 81.6884 142.541 82.5197C141.205 83.3511 140.16 84.4974 139.404 85.9586C138.648 87.4198 138.27 89.0951 138.27 90.9846C138.27 92.8489 138.648 94.5242 139.404 96.0106C140.16 97.4718 141.205 98.6181 142.541 99.4495C143.876 100.281 145.4 100.697 147.113 100.697ZM164.435 104.211V77.7582H175.016C176.754 77.7582 178.266 78.0858 179.551 78.7408C180.835 79.3958 181.83 80.3153 182.536 81.4994C183.241 82.6583 183.594 84.0313 183.594 85.6185C183.594 87.2056 183.241 88.5913 182.536 89.7753C181.83 90.9594 180.835 91.8789 179.551 92.534C178.266 93.189 176.754 93.5165 175.016 93.5165H168.856V104.211H164.435ZM168.856 89.7375H174.562C175.973 89.7375 177.094 89.3596 177.926 88.6039C178.757 87.8481 179.173 86.8529 179.173 85.6185C179.173 84.384 178.757 83.4015 177.926 82.6709C177.094 81.9403 175.973 81.575 174.562 81.575H168.856V89.7375ZM186.983 104.211V77.7582H197.111C198.748 77.7582 200.172 78.0732 201.381 78.703C202.615 79.3328 203.573 80.2272 204.253 81.386C204.958 82.5197 205.311 83.8424 205.311 85.3539C205.311 86.8907 204.883 88.2889 204.026 89.5486C203.195 90.783 202.061 91.69 200.625 92.2694L207.918 104.211H202.741L196.128 92.9496H191.442V104.211H186.983ZM191.442 89.1329H196.355C197.74 89.1329 198.836 88.7802 199.642 88.0748C200.474 87.3694 200.89 86.4624 200.89 85.3539C200.89 84.2203 200.474 83.3133 199.642 82.6331C198.836 81.9277 197.74 81.575 196.355 81.575H191.442V89.1329ZM221.807 104.513C219.892 104.513 218.116 104.186 216.478 103.531C214.866 102.851 213.455 101.906 212.246 100.697C211.062 99.462 210.142 98.026 209.487 96.3885C208.832 94.751 208.505 92.9496 208.505 90.9846C208.505 89.0195 208.832 87.2182 209.487 85.5807C210.142 83.9431 211.062 82.5197 212.246 81.3105C213.455 80.076 214.866 79.1313 216.478 78.4762C218.116 77.796 219.892 77.4559 221.807 77.4559C223.696 77.4559 225.447 77.796 227.059 78.4762C228.672 79.1313 230.07 80.076 231.254 81.3105C232.463 82.5197 233.395 83.9431 234.05 85.5807C234.731 87.2182 235.071 89.0195 235.071 90.9846C235.071 92.9496 234.731 94.751 234.05 96.3885C233.395 98.026 232.463 99.462 231.254 100.697C230.07 101.906 228.672 102.851 227.059 103.531C225.447 104.186 223.696 104.513 221.807 104.513ZM221.807 100.697C223.52 100.697 225.031 100.281 226.341 99.4495C227.677 98.5929 228.722 97.434 229.478 95.9728C230.234 94.5116 230.612 92.8489 230.612 90.9846C230.612 89.1203 230.234 87.4576 229.478 85.9964C228.722 84.5352 227.677 83.3889 226.341 82.5575C225.031 81.701 223.52 81.2727 221.807 81.2727C220.094 81.2727 218.569 81.6884 217.234 82.5197C215.899 83.3511 214.853 84.4974 214.098 85.9586C213.342 87.4198 212.964 89.0951 212.964 90.9846C212.964 92.8489 213.342 94.5242 214.098 96.0106C214.853 97.4718 215.899 98.6181 217.234 99.4495C218.569 100.281 220.094 100.697 221.807 100.697ZM250.578 104.513C248.235 104.513 246.094 103.984 244.154 102.926C242.239 101.868 240.715 100.331 239.582 98.3158C238.448 96.3003 237.881 93.8566 237.881 90.9846C237.881 88.2637 238.423 85.8956 239.506 83.8802C240.589 81.8395 242.113 80.265 244.079 79.1565C246.044 78.0228 248.324 77.4559 250.918 77.4559C253.06 77.4559 254.937 77.8338 256.549 78.5896C258.187 79.3454 259.497 80.4161 260.479 81.8017C261.462 83.1622 262.054 84.7493 262.255 86.5632H257.796C257.544 84.9257 256.776 83.6282 255.491 82.6709C254.231 81.7136 252.707 81.2349 250.918 81.2349C249.205 81.2349 247.706 81.638 246.422 82.4442C245.137 83.2503 244.129 84.384 243.398 85.8452C242.693 87.3064 242.34 89.0195 242.34 90.9846C242.34 92.9496 242.706 94.6628 243.436 96.124C244.167 97.5852 245.174 98.7189 246.459 99.525C247.769 100.331 249.294 100.734 251.032 100.734C252.468 100.734 253.727 100.445 254.811 99.8651C255.894 99.2605 256.751 98.4417 257.38 97.4088C258.035 96.3759 258.388 95.1918 258.439 93.8566H249.936V90.3422H262.558V104.211H258.439V100.848C257.859 101.881 256.864 102.75 255.453 103.455C254.068 104.161 252.443 104.513 250.578 104.513ZM267.175 104.211V77.7582H277.303C278.94 77.7582 280.364 78.0732 281.573 78.703C282.807 79.3328 283.765 80.2272 284.445 81.386C285.15 82.5197 285.503 83.8424 285.503 85.3539C285.503 86.8907 285.075 88.2889 284.218 89.5486C283.387 90.783 282.253 91.69 280.817 92.2694L288.11 104.211H282.933L276.32 92.9496H271.634V104.211H267.175ZM271.634 89.1329H276.547C277.932 89.1329 279.028 88.7802 279.835 88.0748C280.666 87.3694 281.082 86.4624 281.082 85.3539C281.082 84.2203 280.666 83.3133 279.835 82.6331C279.028 81.9277 277.932 81.575 276.547 81.575H271.634V89.1329ZM288.371 104.211L298.725 77.7582H303.713L314.03 104.211H309.268L306.85 97.9757H295.437L292.981 104.211H288.371ZM296.835 94.1967H305.451L301.143 83.0488L296.835 94.1967ZM316.7 104.211V77.7582H322.973L329.473 93.3275C330.078 94.7887 330.518 95.998 330.796 96.9553C331.073 97.8875 331.211 98.3536 331.211 98.3536C331.211 98.3536 331.362 97.8875 331.665 96.9553C331.967 95.998 332.421 94.7887 333.025 93.3275L339.525 77.7582H345.647V104.211H341.188V89.0573C341.188 87.4702 341.2 86.1853 341.225 85.2028C341.276 84.1951 341.301 83.6912 341.301 83.6912C341.301 83.6912 341.137 84.1573 340.81 85.0894C340.482 86.0216 340.016 87.2308 339.412 88.7172L332.95 104.211H329.397L322.935 88.7172C322.331 87.256 321.865 86.0594 321.537 85.1272C321.21 84.1951 321.046 83.729 321.046 83.729C321.046 83.729 321.058 84.2203 321.084 85.2028C321.134 86.1853 321.159 87.4702 321.159 89.0573V104.211H316.7ZM360.016 104.513C356.968 104.513 354.486 103.694 352.572 102.057C350.682 100.394 349.612 98.089 349.36 95.1414H353.705C353.907 96.9301 354.562 98.3032 355.671 99.2605C356.779 100.218 358.228 100.697 360.016 100.697C361.377 100.697 362.536 100.394 363.493 99.7896C364.45 99.1597 364.929 98.1646 364.929 96.8042C364.929 95.9476 364.664 95.2674 364.135 94.7635C363.606 94.2345 362.914 93.8062 362.057 93.4787C361.2 93.126 360.243 92.8111 359.185 92.534C358.152 92.2568 357.119 91.9419 356.086 91.5892C355.053 91.2365 354.109 90.7956 353.252 90.2666C352.395 89.7123 351.703 88.9943 351.174 88.1126C350.644 87.2308 350.38 86.1097 350.38 84.7493C350.38 83.2629 350.783 81.9781 351.589 80.8948C352.395 79.8115 353.479 78.9675 354.839 78.3629C356.225 77.7582 357.736 77.4559 359.374 77.4559C362.17 77.4559 364.4 78.1487 366.063 79.5344C367.725 80.8948 368.721 82.8095 369.048 85.2784H364.702C364.475 84.0187 363.871 83.0362 362.888 82.3308C361.906 81.6254 360.697 81.2727 359.261 81.2727C357.925 81.2727 356.855 81.575 356.048 82.1796C355.242 82.7843 354.839 83.5778 354.839 84.5604C354.839 85.3162 355.104 85.9334 355.633 86.4121C356.162 86.8655 356.855 87.2434 357.711 87.5457C358.568 87.8229 359.512 88.0874 360.545 88.3393C361.603 88.5913 362.649 88.8936 363.682 89.2463C364.715 89.599 365.66 90.065 366.516 90.6445C367.373 91.2239 368.065 91.9923 368.595 92.9496C369.124 93.8818 369.388 95.0659 369.388 96.5019C369.388 98.2402 368.96 99.714 368.103 100.923C367.272 102.107 366.151 103.002 364.74 103.606C363.329 104.211 361.755 104.513 360.016 104.513Z" fill="white"/>
</svg>
