<svg width="961" height="1146" viewBox="0 0 961 1146" fill="none" xmlns="http://www.w3.org/2000/svg">
<rect width="960.051" height="952.171" fill="#641600"/>
<rect x="38.8439" y="312.487" width="549.689" height="154.687" stroke="#FF3700" stroke-width="1.31334"/>
<rect x="-0.65667" y="0.65667" width="331.446" height="367.653" transform="matrix(-1 0 0 1 920.635 98.8662)" stroke="#FF3700" stroke-width="1.31334"/>
<rect x="921.292" y="643.286" width="331.446" height="174.797" transform="rotate(180 921.292 643.286)" stroke="#FF3700" stroke-width="1.31334"/>
<rect x="699.932" y="643.286" width="110.085" height="174.797" transform="rotate(180 699.932 643.286)" stroke="#FF3700" stroke-width="1.31334"/>
<rect x="811.331" y="643.286" width="110.085" height="174.797" transform="rotate(180 811.331 643.286)" stroke="#FF3700" stroke-width="1.31334"/>
<rect x="921.292" y="643.286" width="110.085" height="174.797" transform="rotate(180 921.292 643.286)" stroke="#FF3700" stroke-width="1.31334"/>
<rect x="0.65667" y="-0.65667" width="882.449" height="443.663" transform="matrix(1 0 0 -1 38.1873 911.493)" stroke="#FF3700" stroke-width="1.31334"/>
<rect x="960.476" y="1058.77" width="826.859" height="106.771" rx="5.81378" transform="rotate(-180 960.476 1058.77)" fill="#641600"/>
<rect x="960.476" y="1010.42" width="909.476" height="58.416" rx="5.81378" transform="rotate(-180 960.476 1010.42)" fill="#641600"/>
<rect x="960.476" y="1114.29" width="754.472" height="162.292" rx="5.81378" transform="rotate(-180 960.476 1114.29)" fill="#641600"/>
<rect x="960.476" y="1083.53" width="768.95" height="131.525" rx="5.81378" transform="rotate(-180 960.476 1083.53)" fill="#641600"/>
<rect width="472.168" height="61.5273" rx="5.81378" transform="matrix(-1 -8.74228e-08 -8.74228e-08 1 960.476 1083.53)" fill="#641600"/>
</svg>
