<svg width="961" height="1145" viewBox="0 0 961 1145" fill="none" xmlns="http://www.w3.org/2000/svg">
<rect width="960.051" height="952.171" transform="translate(0 192.326)" fill="#640000"/>
<rect x="38.8437" y="504.806" width="549.689" height="154.687" stroke="#FF0000" stroke-width="1.31334"/>
<rect x="-0.65667" y="0.65667" width="331.446" height="367.653" transform="matrix(-1 0 0 1 920.636 291.186)" stroke="#FF0000" stroke-width="1.31334"/>
<rect x="921.293" y="835.605" width="331.446" height="174.797" transform="rotate(180 921.293 835.605)" stroke="#FF0000" stroke-width="1.31334"/>
<rect x="699.932" y="835.605" width="110.085" height="174.797" transform="rotate(180 699.932 835.605)" stroke="#FF0000" stroke-width="1.31334"/>
<rect x="811.332" y="835.605" width="110.085" height="174.797" transform="rotate(180 811.332 835.605)" stroke="#FF0000" stroke-width="1.31334"/>
<rect x="921.293" y="835.605" width="110.085" height="174.797" transform="rotate(180 921.293 835.605)" stroke="#FF0000" stroke-width="1.31334"/>
<rect x="0.65667" y="-0.65667" width="882.449" height="443.663" transform="matrix(1 0 0 -1 38.187 1103.81)" stroke="#FF0000" stroke-width="1.31334"/>
<rect y="61.5273" width="768.95" height="131.525" rx="5.81378" fill="#640000"/>
<rect width="472.168" height="61.5273" rx="5.81378" transform="matrix(1 0 0 -1 0 61.5273)" fill="#640000"/>
</svg>
