<svg width="1058" height="599" viewBox="0 0 1058 599" fill="none" xmlns="http://www.w3.org/2000/svg">
<rect width="1057.38" height="598.819" fill="#EE07FF"/>
<rect x="386.262" y="233.253" width="87.641" height="40.8185" rx="8.72067" transform="rotate(-90 386.262 233.253)" fill="#EE07FF" stroke="#470D0D" stroke-width="5.81378"/>
<rect x="448.899" y="233.264" width="87.641" height="40.8185" rx="8.72067" transform="rotate(-90 448.899 233.264)" fill="#EE07FF" stroke="#470D0D" stroke-width="5.81378"/>
<mask id="path-3-outside-1_123_546" maskUnits="userSpaceOnUse" x="326.341" y="257.575" width="322" height="87" fill="black">
<rect fill="white" x="326.341" y="257.575" width="322" height="87"/>
<path fill-rule="evenodd" clip-rule="evenodd" d="M567.845 269.388C567.845 266.178 565.242 263.575 562.032 263.575H491.832C488.621 263.575 486.018 266.178 486.018 269.388V275.929C486.018 279.14 483.415 281.743 480.204 281.743H412.94C409.729 281.743 407.126 284.346 407.126 287.557V291.241C407.126 294.452 404.523 297.055 401.312 297.055H338.154C334.943 297.055 332.341 299.658 332.341 302.869V332.259C332.341 335.47 334.943 338.073 338.154 338.073H408.354C411.565 338.073 414.168 335.47 414.168 332.259V328.575C414.168 325.364 416.771 322.761 419.982 322.761H483.14C486.351 322.761 488.953 320.158 488.953 316.947V310.407C488.953 307.196 491.556 304.593 494.767 304.593H554.154C557.365 304.593 559.968 307.196 559.968 310.407V332.265C559.968 335.476 562.571 338.079 565.782 338.079H635.981C639.192 338.079 641.795 335.476 641.795 332.265V302.874C641.795 299.664 639.192 297.061 635.981 297.061H573.659C570.448 297.061 567.845 294.458 567.845 291.247V269.388Z"/>
</mask>
<path fill-rule="evenodd" clip-rule="evenodd" d="M567.845 269.388C567.845 266.178 565.242 263.575 562.032 263.575H491.832C488.621 263.575 486.018 266.178 486.018 269.388V275.929C486.018 279.14 483.415 281.743 480.204 281.743H412.94C409.729 281.743 407.126 284.346 407.126 287.557V291.241C407.126 294.452 404.523 297.055 401.312 297.055H338.154C334.943 297.055 332.341 299.658 332.341 302.869V332.259C332.341 335.47 334.943 338.073 338.154 338.073H408.354C411.565 338.073 414.168 335.47 414.168 332.259V328.575C414.168 325.364 416.771 322.761 419.982 322.761H483.14C486.351 322.761 488.953 320.158 488.953 316.947V310.407C488.953 307.196 491.556 304.593 494.767 304.593H554.154C557.365 304.593 559.968 307.196 559.968 310.407V332.265C559.968 335.476 562.571 338.079 565.782 338.079H635.981C639.192 338.079 641.795 335.476 641.795 332.265V302.874C641.795 299.664 639.192 297.061 635.981 297.061H573.659C570.448 297.061 567.845 294.458 567.845 291.247V269.388Z" fill="#EE07FF"/>
<path d="M491.832 269.388H562.032V257.761H491.832V269.388ZM491.832 275.929V269.388H480.204V275.929H491.832ZM412.94 287.557H480.204V275.929H412.94V287.557ZM412.94 291.241V287.557H401.312V291.241H412.94ZM338.154 302.869H401.312V291.241H338.154V302.869ZM338.154 332.259V302.869H326.527V332.259H338.154ZM408.354 332.259H338.154V343.887H408.354V332.259ZM408.354 328.575V332.259H419.982V328.575H408.354ZM483.14 316.947H419.982V328.575H483.14V316.947ZM483.14 310.407V316.947H494.767V310.407H483.14ZM554.154 298.779H494.767V310.407H554.154V298.779ZM565.782 332.265V310.407H554.154V332.265H565.782ZM635.981 332.265H565.782V343.893H635.981V332.265ZM635.981 302.874V332.265H647.609V302.874H635.981ZM573.659 302.874H635.981V291.247H573.659V302.874ZM562.032 269.388V291.247H573.659V269.388H562.032ZM573.659 291.247L573.659 291.247H562.032C562.032 297.669 567.237 302.874 573.659 302.874V291.247ZM647.609 302.874C647.609 296.453 642.403 291.247 635.981 291.247V302.874L635.981 302.874H647.609ZM635.981 343.893C642.403 343.893 647.609 338.687 647.609 332.265H635.981L635.981 332.265V343.893ZM554.154 332.265C554.154 338.687 559.36 343.893 565.782 343.893V332.265L565.782 332.265H554.154ZM554.154 310.407L554.154 310.407H565.782C565.782 303.985 560.576 298.779 554.154 298.779V310.407ZM494.767 310.407L494.767 310.407V298.779C488.346 298.779 483.14 303.985 483.14 310.407H494.767ZM483.14 328.575C489.561 328.575 494.767 323.369 494.767 316.947H483.14L483.14 316.947V328.575ZM419.982 328.575L419.982 328.575V316.947C413.56 316.947 408.354 322.153 408.354 328.575H419.982ZM408.354 343.887C414.776 343.887 419.982 338.681 419.982 332.259H408.354L408.354 332.259V343.887ZM326.527 332.259C326.527 338.681 331.733 343.887 338.154 343.887V332.259L338.154 332.259H326.527ZM338.154 291.241C331.733 291.241 326.527 296.447 326.527 302.869H338.154L338.154 302.869V291.241ZM401.312 291.241L401.312 291.241V302.869C407.734 302.869 412.94 297.663 412.94 291.241H401.312ZM412.94 275.929C406.518 275.929 401.312 281.135 401.312 287.557H412.94L412.94 287.557V275.929ZM480.204 275.929L480.204 275.929V287.557C486.626 287.557 491.832 282.351 491.832 275.929H480.204ZM562.032 269.388L562.032 269.388H573.659C573.659 262.967 568.453 257.761 562.032 257.761V269.388ZM491.832 257.761C485.41 257.761 480.204 262.967 480.204 269.388H491.832L491.832 269.388V257.761Z" fill="#470D0D" mask="url(#path-3-outside-1_123_546)"/>
</svg>
