<svg width="1014" height="599" viewBox="0 0 1014 599" fill="none" xmlns="http://www.w3.org/2000/svg">
<g clip-path="url(#clip0_123_488)">
<rect width="1013.05" height="598.819" fill="white"/>
<path fill-rule="evenodd" clip-rule="evenodd" d="M1920.57 890.614C1923.98 894.02 1929.5 894.02 1932.9 890.614L1935.63 887.885C1939.04 884.479 1939.04 878.958 1935.63 875.552L1276 215.92C1275.95 215.869 1275.87 215.869 1275.82 215.92V215.92C1275.74 216.001 1275.6 215.943 1275.6 215.828L1275.6 214.938C1275.6 214.663 1275.37 214.44 1275.1 214.44L1201.06 214.44C1198.74 214.44 1196.53 213.521 1194.89 211.886L1133.18 150.174C1133.11 150.102 1133.07 150.004 1133.07 149.902V149.902C1133.07 149.69 1132.89 149.517 1132.68 149.517V149.517C1132.58 149.517 1132.48 149.477 1132.41 149.405L1132.33 149.329C1132.08 149.077 1131.67 149.077 1131.42 149.329V149.329C1131.3 149.45 1131.14 149.517 1130.96 149.517L1032.68 149.517C1030.36 149.517 1028.14 148.599 1026.51 146.963L862.07 -17.4757C862.063 -17.4826 862.052 -17.4826 862.045 -17.4757L862.033 -17.4633C862.026 -17.4568 862.015 -17.4614 862.015 -17.4706V-17.4706C862.015 -17.4764 862.011 -17.481 862.005 -17.481L694.858 -17.481C690.042 -17.481 686.138 -13.5766 686.138 -8.76034L686.138 3.82018L686.138 188.125C686.138 192.941 682.234 196.845 677.417 196.845L615.185 196.845C610.369 196.845 606.464 192.941 606.464 188.125L606.464 -87.1668C606.464 -91.9831 602.56 -95.8875 597.744 -95.8875L588.654 -95.8875C583.837 -95.8875 579.933 -91.9831 579.933 -87.1668L579.933 188.125C579.933 192.941 576.029 196.845 571.212 196.845L418.143 196.845C415.83 196.845 413.612 197.764 411.977 199.4L289.387 321.99C287.752 323.625 285.534 324.544 283.221 324.544L213.613 324.544L187.082 324.544L-211.377 324.544C-216.194 324.544 -220.098 328.448 -220.098 333.265L-220.098 337.124C-220.098 341.941 -216.194 345.845 -211.377 345.845L178.361 345.845C183.177 345.845 187.082 349.75 187.082 354.566L187.082 586.74C187.082 589.053 186.163 591.271 184.527 592.906L-122.975 900.409C-122.979 900.412 -122.979 900.418 -122.977 900.422V900.422C-122.976 900.423 -122.975 900.425 -122.975 900.427L-122.975 1228.89L-122.975 1251.18V1251.18C-122.975 1251.19 -122.973 1251.19 -122.971 1251.19L-101.676 1251.19C-101.675 1251.19 -101.674 1251.19 -101.674 1251.19V1251.19C-101.674 1251.19 -101.673 1251.18 -101.672 1251.18L196.114 1251.18C198.427 1251.18 200.645 1252.1 202.281 1253.74L272.235 1323.69C273.87 1325.33 274.789 1327.55 274.789 1329.86L274.789 1386.48C274.789 1391.29 278.694 1395.2 283.51 1395.2L292.6 1395.2C297.416 1395.2 301.321 1391.29 301.321 1386.48L301.321 1373.83C301.321 1366.06 310.714 1362.17 316.208 1367.67L356.088 1407.55C359.494 1410.95 365.016 1410.95 368.421 1407.55L371.151 1404.82C374.556 1401.41 374.556 1395.89 371.151 1392.48L303.875 1325.21C302.239 1323.57 301.321 1321.35 301.321 1319.04L301.321 1259.91C301.321 1255.09 305.225 1251.18 310.041 1251.18L399.136 1251.18C399.137 1251.18 399.138 1251.19 399.139 1251.19V1251.19C399.14 1251.19 399.143 1251.19 399.144 1251.19V1251.19C399.145 1251.19 399.146 1251.18 399.147 1251.18L399.409 1251.18C399.761 1251.18 400.046 1250.9 400.046 1250.55V1250.55C400.046 1250.38 400.113 1250.22 400.232 1250.1L711.023 939.307C712.659 937.671 714.877 936.753 717.19 936.753L1168.27 936.753C1168.51 936.753 1168.69 936.565 1168.69 936.333V936.333C1168.69 936.221 1168.74 936.115 1168.82 936.036L1400.59 704.26C1400.6 704.258 1400.6 704.256 1400.6 704.256V704.256C1400.61 704.256 1400.61 704.251 1400.61 704.244L1400.61 418.234C1400.61 418.156 1400.55 418.093 1400.47 418.093V418.093C1400.35 418.093 1400.28 417.941 1400.37 417.851L1400.47 417.751C1400.55 417.673 1400.55 417.547 1400.47 417.468L1234.62 251.619C1229.13 246.125 1233.02 236.732 1240.79 236.732L1263.07 236.732C1265.39 236.732 1267.61 237.65 1269.24 239.286L1920.57 890.614ZM-99.1195 906.678C-100.755 908.313 -101.674 910.531 -101.674 912.844L-101.674 1220.17C-101.674 1224.99 -97.7694 1228.89 -92.9531 1228.89L156.381 1228.89C164.151 1228.89 168.041 1219.5 162.548 1214.01L-29.0309 1022.43C-29.2315 1022.23 -29.2315 1021.9 -29.0309 1021.7L-28.2947 1020.96C-28.2427 1020.91 -28.2795 1020.82 -28.3531 1020.82V1020.82C-28.3987 1020.82 -28.4357 1020.79 -28.4357 1020.74L-28.4357 892.604V892.604C-28.4356 892.587 -28.422 892.574 -28.4052 892.574L147.177 892.574C149.49 892.574 151.708 891.655 153.343 890.02L272.235 771.128C273.87 769.492 274.789 767.274 274.789 764.961L274.789 637.931C274.789 637.859 274.847 637.801 274.919 637.801V637.801C275.034 637.801 275.092 637.661 275.01 637.58L274.921 637.49C274.85 637.419 274.85 637.304 274.921 637.233L577.379 334.775C579.014 333.139 579.933 330.921 579.933 328.608L579.933 226.867C579.933 222.051 576.029 218.146 571.212 218.146L426.967 218.146C424.654 218.146 422.436 219.065 420.801 220.701L295.678 345.824C295.662 345.839 295.637 345.839 295.621 345.824L295.597 345.8C295.581 345.784 295.552 345.795 295.552 345.819V345.819C295.552 345.833 295.541 345.845 295.526 345.845L222.334 345.845C217.517 345.845 213.613 349.75 213.613 354.566L213.613 593.949C213.613 593.954 213.609 593.959 213.603 593.959V593.959C213.601 593.959 213.598 593.96 213.596 593.962L-99.1195 906.678ZM159.291 913.93C159.256 913.895 159.208 913.875 159.158 913.875L1.5861 913.875C-3.23019 913.875 -7.13457 917.779 -7.13457 922.596L-7.13457 1010.59C-7.13457 1012.9 -6.21579 1015.12 -4.58035 1016.75L205.005 1226.34C206.641 1227.97 208.859 1228.89 211.172 1228.89L266.069 1228.89C270.885 1228.89 274.789 1224.99 274.789 1220.17L274.789 819.752C274.789 811.982 265.396 808.091 259.902 813.585L159.557 913.93C159.483 914.004 159.364 914.004 159.291 913.93V913.93ZM303.875 769.612C302.239 771.248 301.321 773.466 301.321 775.779L301.321 1220.17C301.321 1224.99 305.225 1228.89 310.041 1228.89L387.7 1228.89C390.013 1228.89 392.231 1227.97 393.867 1226.34L705.064 915.142C705.361 914.845 705.843 914.845 706.14 915.142L706.449 915.45C706.814 915.816 707.439 915.557 707.439 915.04V915.04C707.439 914.72 707.698 914.461 708.018 914.461L1156.66 914.461C1158.97 914.461 1161.19 913.542 1162.82 911.906L1376.76 697.97C1378.39 696.335 1379.31 694.117 1379.31 691.804L1379.31 430.045C1379.31 427.732 1378.39 425.514 1376.76 423.879L1192.17 239.286C1190.53 237.65 1188.31 236.732 1186 236.732L961.712 236.732C959.399 236.732 957.181 237.65 955.545 239.286L858.753 336.078C857.117 337.714 856.199 339.932 856.199 342.245L856.199 554.608L856.199 563.562L856.199 567.189C856.199 572.005 852.294 575.91 847.478 575.91L637.861 575.91C637.675 575.91 637.497 575.983 637.366 576.114V576.114C637.093 576.387 636.651 576.387 636.378 576.114L573.042 512.778C569.636 509.373 564.115 509.373 560.709 512.778L303.875 769.612ZM950.525 214.44C950.363 214.44 950.231 214.572 950.231 214.735L950.231 214.961C950.231 215.14 950.014 215.23 949.888 215.103V215.103C949.809 215.025 949.682 215.025 949.604 215.103L837.157 327.549C836.909 327.798 836.572 327.937 836.221 327.937V327.937C835.49 327.937 834.897 328.53 834.897 329.261L834.897 545.888C834.897 550.704 830.993 554.608 826.177 554.608L648.609 554.608C646.296 554.608 644.078 553.69 642.442 552.054L572.034 481.646C568.629 478.241 563.107 478.241 559.701 481.646L551.309 490.038C551.031 490.316 551.031 490.768 551.309 491.046V491.046C551.588 491.324 551.588 491.775 551.309 492.053L316.208 727.155C310.714 732.649 301.321 728.758 301.321 720.989L301.321 651.966C301.321 649.653 302.239 647.435 303.875 645.8L601.972 347.703C602.465 347.21 603.135 346.932 603.833 346.932V346.932C605.286 346.932 606.464 345.754 606.464 344.3L606.464 226.867C606.464 222.051 610.369 218.146 615.185 218.147L686.138 218.147L698.719 218.147C703.535 218.147 707.439 214.243 707.439 209.427L707.439 12.5408C707.439 7.72456 711.344 3.82018 716.16 3.82018L849.629 3.82019C851.942 3.82019 854.16 4.73897 855.796 6.37442L1021.23 171.806C1021.23 171.806 1021.23 171.806 1021.23 171.806L1021.23 171.805C1021.23 171.804 1021.23 171.805 1021.23 171.807V171.807C1021.23 171.808 1021.24 171.809 1021.24 171.809L1121.08 171.809C1123.39 171.809 1125.61 172.728 1127.24 174.363L1152.43 199.553C1157.93 205.046 1154.04 214.44 1146.27 214.44L950.525 214.44ZM250.905 1251.18C243.135 1251.18 239.245 1260.58 244.738 1266.07L259.902 1281.24C265.396 1286.73 274.789 1282.84 274.789 1275.07L274.789 1259.91C274.789 1255.09 270.885 1251.18 266.069 1251.18L250.905 1251.18Z" fill="#F13032"/>
<rect x="360.873" y="142.318" width="87.641" height="40.8185" rx="8.72067" fill="#EE07FF" stroke="#470D0D" stroke-width="5.81378"/>
<rect x="460.62" y="142.318" width="87.641" height="40.8185" rx="8.72067" fill="#EE07FF" stroke="#470D0D" stroke-width="5.81378"/>
<mask id="path-4-outside-1_123_488" maskUnits="userSpaceOnUse" x="293.84" y="241.038" width="322" height="87" fill="black">
<rect fill="white" x="293.84" y="241.038" width="322" height="87"/>
<path fill-rule="evenodd" clip-rule="evenodd" d="M453.518 247.038H380.44C377.229 247.038 374.626 249.641 374.626 252.852V274.704C374.626 277.915 372.023 280.518 368.812 280.518H305.654C302.443 280.518 299.84 283.121 299.84 286.332V315.723C299.84 318.933 302.443 321.536 305.654 321.536H375.854C379.065 321.536 381.668 318.933 381.668 315.723V293.87C381.668 290.659 384.27 288.056 387.481 288.056H453.518H456.453H521.654C524.865 288.056 527.468 290.659 527.468 293.87V315.728C527.468 318.939 530.071 321.542 533.281 321.542H603.481C606.692 321.542 609.295 318.939 609.295 315.728V286.338C609.295 283.127 606.692 280.524 603.481 280.524H541.159C537.948 280.524 535.345 277.921 535.345 274.71V252.852C535.345 249.641 532.742 247.038 529.531 247.038H456.453H453.518Z"/>
</mask>
<path fill-rule="evenodd" clip-rule="evenodd" d="M453.518 247.038H380.44C377.229 247.038 374.626 249.641 374.626 252.852V274.704C374.626 277.915 372.023 280.518 368.812 280.518H305.654C302.443 280.518 299.84 283.121 299.84 286.332V315.723C299.84 318.933 302.443 321.536 305.654 321.536H375.854C379.065 321.536 381.668 318.933 381.668 315.723V293.87C381.668 290.659 384.27 288.056 387.481 288.056H453.518H456.453H521.654C524.865 288.056 527.468 290.659 527.468 293.87V315.728C527.468 318.939 530.071 321.542 533.281 321.542H603.481C606.692 321.542 609.295 318.939 609.295 315.728V286.338C609.295 283.127 606.692 280.524 603.481 280.524H541.159C537.948 280.524 535.345 277.921 535.345 274.71V252.852C535.345 249.641 532.742 247.038 529.531 247.038H456.453H453.518Z" fill="#EE07FF"/>
<path d="M380.44 252.852H453.518V241.224H380.44V252.852ZM380.44 274.704V252.852H368.812V274.704H380.44ZM305.654 286.332H368.812V274.704H305.654V286.332ZM305.654 315.723V286.332H294.027V315.723H305.654ZM375.854 315.723H305.654V327.35H375.854V315.723ZM375.854 293.87V315.723H387.481V293.87H375.854ZM453.518 282.242H387.481V293.87H453.518V282.242ZM456.453 282.242H453.518V293.87H456.453V282.242ZM521.654 282.242H456.453V293.87H521.654V282.242ZM533.281 315.728V293.87H521.654V315.728H533.281ZM603.481 315.728H533.281V327.356H603.481V315.728ZM603.481 286.338V315.728H615.109V286.338H603.481ZM541.159 286.338H603.481V274.71H541.159V286.338ZM529.531 252.852V274.71H541.159V252.852H529.531ZM456.453 252.852H529.531V241.224H456.453V252.852ZM453.518 252.852H456.453V241.224H453.518V252.852ZM541.159 252.852C541.159 246.43 535.953 241.224 529.531 241.224V252.852L529.531 252.852H541.159ZM615.109 286.338C615.109 279.916 609.903 274.71 603.481 274.71V286.338L603.481 286.338H615.109ZM521.654 315.728C521.654 322.15 526.86 327.356 533.281 327.356V315.728L533.281 315.728H521.654ZM521.654 293.87L521.654 293.87H533.281C533.281 287.448 528.076 282.242 521.654 282.242V293.87ZM387.481 293.87L387.481 293.87V282.242C381.06 282.242 375.854 287.448 375.854 293.87H387.481ZM294.027 315.723C294.027 322.144 299.232 327.35 305.654 327.35V315.723L305.654 315.723H294.027ZM305.654 274.704C299.232 274.704 294.027 279.91 294.027 286.332H305.654L305.654 286.332V274.704ZM541.159 274.71L541.159 274.71H529.531C529.531 281.132 534.737 286.338 541.159 286.338V274.71ZM368.812 274.704L368.812 274.704V286.332C375.234 286.332 380.44 281.126 380.44 274.704H368.812ZM375.854 327.35C382.275 327.35 387.481 322.144 387.481 315.723H375.854L375.854 315.723V327.35ZM603.481 327.356C609.903 327.356 615.109 322.15 615.109 315.728H603.481L603.481 315.728V327.356ZM380.44 241.224C374.018 241.224 368.812 246.43 368.812 252.852H380.44L380.44 252.852V241.224Z" fill="#470D0D" mask="url(#path-4-outside-1_123_488)"/>
</g>
<defs>
<clipPath id="clip0_123_488">
<rect width="1013.05" height="598.819" fill="white"/>
</clipPath>
</defs>
</svg>
