<svg width="910" height="600" viewBox="0 0 910 600" fill="none" xmlns="http://www.w3.org/2000/svg">
<rect width="909.129" height="598.819" transform="translate(0 0.621826)" fill="#F13032"/>
<rect x="360.872" y="162" width="87.641" height="87.641" rx="8.72067" fill="white" stroke="#634C00" stroke-width="5.81378"/>
<rect x="460.619" y="162" width="87.641" height="87.641" rx="8.72067" fill="white" stroke="#634C00" stroke-width="5.81378"/>
<mask id="path-3-outside-1_117_127" maskUnits="userSpaceOnUse" x="293.839" y="289.812" width="322" height="158" fill="black">
<rect fill="white" x="293.839" y="289.812" width="322" height="158"/>
<path fill-rule="evenodd" clip-rule="evenodd" d="M381.666 301.626C381.666 298.415 379.063 295.812 375.852 295.812H305.653C302.442 295.812 299.839 298.415 299.839 301.626V371.825C299.839 375.036 302.442 377.639 305.653 377.639H368.811C372.022 377.639 374.625 380.242 374.625 383.453V435.51C374.625 438.721 377.227 441.324 380.438 441.324H453.516H456.452H529.53C532.741 441.324 535.344 438.721 535.344 435.51V383.458C535.344 380.248 537.947 377.645 541.157 377.645H603.48C606.69 377.645 609.293 375.042 609.293 371.831V301.631C609.293 298.42 606.69 295.817 603.48 295.817H533.28C530.069 295.817 527.466 298.42 527.466 301.631V353.683C527.466 356.894 524.863 359.496 521.652 359.496H456.452H453.516H387.48C384.269 359.496 381.666 356.894 381.666 353.683V301.626Z"/>
</mask>
<path fill-rule="evenodd" clip-rule="evenodd" d="M381.666 301.626C381.666 298.415 379.063 295.812 375.852 295.812H305.653C302.442 295.812 299.839 298.415 299.839 301.626V371.825C299.839 375.036 302.442 377.639 305.653 377.639H368.811C372.022 377.639 374.625 380.242 374.625 383.453V435.51C374.625 438.721 377.227 441.324 380.438 441.324H453.516H456.452H529.53C532.741 441.324 535.344 438.721 535.344 435.51V383.458C535.344 380.248 537.947 377.645 541.157 377.645H603.48C606.69 377.645 609.293 375.042 609.293 371.831V301.631C609.293 298.42 606.69 295.817 603.48 295.817H533.28C530.069 295.817 527.466 298.42 527.466 301.631V353.683C527.466 356.894 524.863 359.496 521.652 359.496H456.452H453.516H387.48C384.269 359.496 381.666 356.894 381.666 353.683V301.626Z" fill="white"/>
<path d="M305.653 301.626H375.852V289.998H305.653V301.626ZM305.653 371.825V301.626H294.025V371.825H305.653ZM368.811 371.825H305.653V383.453H368.811V371.825ZM368.811 383.453V435.51H380.438V383.453H368.811ZM380.438 447.137H453.516V435.51H380.438V447.137ZM453.516 447.137H456.452V435.51H453.516V447.137ZM456.452 447.137H529.53V435.51H456.452V447.137ZM541.157 435.51V383.458H529.53V435.51H541.157ZM541.157 383.458H603.48V371.831H541.157V383.458ZM615.107 371.831V301.631H603.48V371.831H615.107ZM603.48 290.004H533.28V301.631H603.48V290.004ZM521.652 301.631V353.683H533.28V301.631H521.652ZM521.652 353.683H456.452V365.31H521.652V353.683ZM456.452 353.683H453.516V365.31H456.452V353.683ZM453.516 353.683H387.48V365.31H453.516V353.683ZM375.852 301.626V353.683H387.48V301.626H375.852ZM387.48 353.683V353.683H375.852C375.852 360.104 381.058 365.31 387.48 365.31V353.683ZM615.107 301.631C615.107 295.21 609.901 290.004 603.48 290.004V301.631V301.631H615.107ZM603.48 383.458C609.901 383.458 615.107 378.253 615.107 371.831H603.48V383.458ZM541.157 383.458V371.831C534.736 371.831 529.53 377.037 529.53 383.458H541.157ZM529.53 447.137C535.952 447.137 541.157 441.932 541.157 435.51H529.53V447.137ZM368.811 435.51C368.811 441.932 374.017 447.137 380.438 447.137V435.51H368.811ZM368.811 383.453H380.438C380.438 377.031 375.232 371.825 368.811 371.825V383.453ZM294.025 371.825C294.025 378.247 299.231 383.453 305.653 383.453V371.825H305.653H294.025ZM521.652 353.683V353.683V365.31C528.074 365.31 533.28 360.104 533.28 353.683H521.652ZM375.852 301.626L375.852 301.626H387.48C387.48 295.204 382.274 289.998 375.852 289.998V301.626ZM533.28 290.004C526.858 290.004 521.652 295.209 521.652 301.631H533.28V290.004ZM305.653 289.998C299.231 289.998 294.025 295.204 294.025 301.626H305.653L305.653 301.626V289.998Z" fill="#634C00" mask="url(#path-3-outside-1_117_127)"/>
</svg>
