<svg width="1010" height="624" viewBox="0 0 1010 624" fill="none" xmlns="http://www.w3.org/2000/svg">
<rect width="1010" height="624" fill="black"/>
<rect x="413.232" y="171" width="81.8272" height="81.8272" rx="5.81378" fill="white"/>
<rect x="506.914" y="171" width="81.8272" height="81.8272" rx="5.81378" fill="white"/>
<path fill-rule="evenodd" clip-rule="evenodd" d="M431.827 313.889C431.827 310.678 429.224 308.075 426.013 308.075H355.814C352.603 308.075 350 310.678 350 313.889V384.088C350 387.299 352.603 389.902 355.814 389.902H418.972C422.183 389.902 424.786 392.505 424.786 395.716V447.773C424.786 450.984 427.389 453.587 430.599 453.587H503.678H506.613H579.691C582.902 453.587 585.505 450.984 585.505 447.773V395.722C585.505 392.511 588.108 389.908 591.319 389.908H653.641C656.852 389.908 659.454 387.305 659.454 384.094V313.894C659.454 310.684 656.852 308.081 653.641 308.081H583.441C580.23 308.081 577.627 310.684 577.627 313.894V365.946C577.627 369.157 575.024 371.76 571.813 371.76H506.613H503.678H437.641C434.43 371.76 431.827 369.157 431.827 365.946V313.889Z" fill="white"/>
</svg>
