<svg width="1920" height="1417" viewBox="0 0 1920 1417" fill="none" xmlns="http://www.w3.org/2000/svg">
<path fill-rule="evenodd" clip-rule="evenodd" d="M2140.67 986.679C2144.07 990.085 2149.6 990.085 2153 986.679L2155.73 983.95C2159.14 980.544 2159.14 975.023 2155.73 971.617L1496.1 311.985C1496.05 311.934 1495.97 311.934 1495.92 311.985C1495.83 312.066 1495.7 312.008 1495.7 311.894L1495.7 311.003C1495.7 310.728 1495.47 310.505 1495.2 310.505L1421.16 310.505C1418.84 310.505 1416.62 309.586 1414.99 307.951L1353.28 246.239C1353.21 246.167 1353.16 246.069 1353.16 245.967C1353.16 245.755 1352.99 245.583 1352.78 245.583C1352.68 245.583 1352.58 245.542 1352.51 245.47L1352.43 245.394C1352.18 245.142 1351.77 245.142 1351.52 245.394C1351.4 245.515 1351.23 245.583 1351.06 245.583L1252.77 245.583C1250.46 245.583 1248.24 244.664 1246.61 243.028L1082.17 78.5895C1082.16 78.5826 1082.15 78.5826 1082.14 78.5895L1082.13 78.6019C1082.13 78.6084 1082.11 78.6038 1082.11 78.5945C1082.11 78.5888 1082.11 78.5842 1082.1 78.5842L914.958 78.5842C910.141 78.5842 906.237 82.4886 906.237 87.3048L906.237 99.8854L906.237 284.19C906.237 289.006 902.333 292.91 897.516 292.91L835.284 292.91C830.468 292.91 826.564 289.006 826.564 284.19L826.564 8.89834C826.564 4.08205 822.659 0.177676 817.843 0.177676L808.753 0.177675C803.937 0.177675 800.032 4.08206 800.032 8.89835L800.032 284.19C800.032 289.006 796.128 292.91 791.312 292.91L638.242 292.91C635.929 292.91 633.711 293.829 632.076 295.465L509.486 418.055C507.851 419.69 505.633 420.609 503.32 420.609L433.712 420.609L407.181 420.609L8.72166 420.609C3.90526 420.609 0.000958014 424.514 0.000957804 429.33L0.000957635 433.19C0.000957424 438.006 3.90525 441.91 8.72166 441.91L398.46 441.91C403.276 441.91 407.181 445.815 407.181 450.631L407.181 682.805C407.181 685.118 406.262 687.336 404.626 688.971L97.1237 996.474C97.1203 996.478 97.1198 996.483 97.1225 996.487C97.1235 996.488 97.1242 996.49 97.1242 996.492L97.1245 1324.96L97.1245 1347.25C97.1242 1347.25 97.1259 1347.25 97.1279 1347.25L118.423 1347.25C118.425 1347.25 118.425 1347.25 118.425 1347.25C118.425 1347.25 118.426 1347.25 118.427 1347.25L416.214 1347.25C418.526 1347.25 420.745 1348.17 422.38 1349.8L492.334 1419.76C493.97 1421.39 494.888 1423.61 494.888 1425.92L494.888 1482.54C494.888 1487.36 498.793 1491.26 503.609 1491.26L512.699 1491.26C517.515 1491.26 521.42 1487.36 521.42 1482.54L521.42 1469.9C521.42 1462.13 530.813 1458.24 536.307 1463.73L576.187 1503.61C579.593 1507.02 585.115 1507.02 588.52 1503.61L591.25 1500.88C594.655 1497.48 594.655 1491.96 591.25 1488.55L523.974 1421.27C522.338 1419.64 521.42 1417.42 521.42 1415.11L521.42 1355.97C521.42 1351.15 525.324 1347.25 530.14 1347.25L619.235 1347.25C619.236 1347.25 619.237 1347.25 619.238 1347.25C619.239 1347.25 619.242 1347.25 619.243 1347.25C619.244 1347.25 619.245 1347.25 619.246 1347.25L619.508 1347.25C619.86 1347.25 620.145 1346.96 620.145 1346.61C620.145 1346.44 620.212 1346.28 620.331 1346.16L931.122 1035.37C932.758 1033.74 934.976 1032.82 937.289 1032.82L1388.37 1032.82C1388.61 1032.82 1388.79 1032.63 1388.79 1032.4C1388.79 1032.29 1388.84 1032.18 1388.92 1032.1L1620.69 800.325C1620.7 800.323 1620.7 800.322 1620.7 800.322C1620.71 800.322 1620.71 800.316 1620.71 800.309L1620.71 514.3C1620.71 514.221 1620.65 514.158 1620.57 514.158C1620.45 514.158 1620.38 514.006 1620.47 513.917L1620.57 513.817C1620.65 513.738 1620.65 513.612 1620.57 513.534L1454.72 347.684C1449.23 342.19 1453.12 332.797 1460.89 332.797L1483.17 332.797C1485.49 332.797 1487.7 333.716 1489.34 335.351L2140.67 986.679ZM120.98 1002.74C119.344 1004.38 118.425 1006.6 118.425 1008.91L118.425 1316.24C118.425 1321.05 122.33 1324.96 127.146 1324.96L376.48 1324.96C384.25 1324.96 388.141 1315.56 382.647 1310.07L191.068 1118.49C190.868 1118.29 190.868 1117.97 191.068 1117.77L191.804 1117.03C191.857 1116.98 191.82 1116.89 191.746 1116.89C191.7 1116.89 191.663 1116.85 191.663 1116.81L191.663 988.669C191.664 988.653 191.677 988.639 191.694 988.639L367.276 988.639C369.589 988.639 371.807 987.72 373.442 986.085L492.334 867.193C493.97 865.557 494.888 863.339 494.888 861.026L494.888 733.996C494.888 733.924 494.946 733.866 495.018 733.866C495.133 733.866 495.191 733.727 495.109 733.645L495.02 733.555C494.949 733.484 494.949 733.369 495.02 733.298L797.478 430.84C799.113 429.205 800.032 426.986 800.032 424.674L800.032 322.932C800.032 318.116 796.128 314.212 791.312 314.212L647.066 314.212C644.754 314.212 642.535 315.13 640.9 316.766L515.777 441.889C515.761 441.905 515.736 441.905 515.72 441.889L515.696 441.865C515.68 441.849 515.651 441.86 515.651 441.884C515.651 441.899 515.64 441.91 515.625 441.91L442.433 441.91C437.616 441.91 433.712 445.815 433.712 450.631L433.712 690.014C433.712 690.02 433.708 690.024 433.702 690.024C433.7 690.024 433.697 690.025 433.696 690.027L120.98 1002.74ZM379.39 1010C379.355 1009.96 379.307 1009.94 379.257 1009.94L221.685 1009.94C216.869 1009.94 212.965 1013.84 212.965 1018.66L212.965 1106.65C212.965 1108.96 213.883 1111.18 215.519 1112.82L425.104 1322.4C426.74 1324.04 428.958 1324.96 431.271 1324.96L486.168 1324.96C490.984 1324.96 494.888 1321.05 494.888 1316.24L494.888 915.817C494.888 908.047 485.495 904.156 480.001 909.65L379.656 1010C379.583 1010.07 379.463 1010.07 379.39 1010ZM523.974 865.678C522.338 867.313 521.42 869.531 521.42 871.844L521.42 1316.24C521.42 1321.05 525.324 1324.96 530.14 1324.96L607.799 1324.96C610.112 1324.96 612.33 1324.04 613.966 1322.4L925.163 1011.21C925.46 1010.91 925.942 1010.91 926.239 1011.21L926.548 1011.52C926.913 1011.88 927.538 1011.62 927.538 1011.11C927.538 1010.79 927.797 1010.53 928.117 1010.53L1376.76 1010.53C1379.07 1010.53 1381.29 1009.61 1382.92 1007.97L1596.86 794.035C1598.49 792.4 1599.41 790.182 1599.41 787.869L1599.41 526.111C1599.41 523.798 1598.49 521.58 1596.86 519.944L1412.26 335.351C1410.63 333.716 1408.41 332.797 1406.1 332.797L1181.81 332.797C1179.5 332.797 1177.28 333.716 1175.64 335.351L1078.85 432.144C1077.22 433.779 1076.3 435.997 1076.3 438.31L1076.3 650.673L1076.3 659.627L1076.3 663.254C1076.3 668.07 1072.39 671.975 1067.58 671.975L857.96 671.975C857.774 671.975 857.597 672.048 857.465 672.179C857.192 672.452 856.75 672.452 856.477 672.179L793.141 608.843C789.735 605.438 784.214 605.438 780.808 608.843L523.974 865.678ZM1170.62 310.505C1170.46 310.505 1170.33 310.637 1170.33 310.8L1170.33 311.026C1170.33 311.205 1170.11 311.295 1169.99 311.169C1169.91 311.09 1169.78 311.09 1169.7 311.169L1057.26 423.615C1057.01 423.863 1056.67 424.002 1056.32 424.002C1055.59 424.002 1055 424.595 1055 425.326L1055 641.953C1055 646.769 1051.09 650.673 1046.28 650.673L868.708 650.673C866.395 650.673 864.177 649.755 862.541 648.119L792.133 577.711C788.728 574.306 783.206 574.306 779.8 577.711L771.408 586.103C771.13 586.382 771.13 586.833 771.408 587.111C771.687 587.389 771.687 587.84 771.408 588.119L536.307 823.22C530.813 828.714 521.42 824.823 521.42 817.054L521.42 748.031C521.42 745.719 522.339 743.5 523.974 741.865L822.071 443.768C822.564 443.275 823.234 442.998 823.932 442.998C825.385 442.998 826.564 441.819 826.564 440.366L826.564 322.932C826.564 318.116 830.468 314.212 835.284 314.212L906.237 314.213L918.817 314.213C923.634 314.213 927.538 310.308 927.538 305.492L927.538 108.606C927.538 103.79 931.443 99.8854 936.259 99.8854L1069.73 99.8854C1072.04 99.8854 1074.26 100.804 1075.89 102.44L1241.33 267.871C1241.33 267.872 1241.33 267.872 1241.33 267.871L1241.33 267.871C1241.33 267.869 1241.33 267.87 1241.33 267.872C1241.33 267.873 1241.33 267.874 1241.34 267.874L1341.18 267.874C1343.49 267.874 1345.71 268.793 1347.34 270.429L1372.53 295.618C1378.03 301.112 1374.13 310.505 1366.37 310.505L1170.62 310.505ZM471.004 1347.25C463.235 1347.25 459.344 1356.64 464.837 1362.14L480.001 1377.3C485.495 1382.79 494.888 1378.9 494.888 1371.13L494.888 1355.97C494.888 1351.15 490.984 1347.25 486.168 1347.25L471.004 1347.25Z" fill="#641600"/>
</svg>
