<svg width="285" height="206" viewBox="0 0 285 206" fill="none" xmlns="http://www.w3.org/2000/svg">
<mask id="path-1-outside-1_1_57" maskUnits="userSpaceOnUse" x="0.706665" y="0.138763" width="284" height="206" fill="black">
<rect fill="white" x="0.706665" y="0.138763" width="284" height="206"/>
<path fill-rule="evenodd" clip-rule="evenodd" d="M199.355 6.04565C199.355 4.44022 198.054 3.13876 196.449 3.13876H59.2037C57.5982 3.13876 56.2968 4.44022 56.2968 6.04566V23.1293C56.2968 24.7347 54.9953 26.0362 53.3899 26.0362H30.7636C29.1581 26.0362 27.8567 27.3376 27.8567 28.9431V54.1032C27.8567 55.7086 29.1581 57.0101 30.7636 57.0101H40.6176V71.4285C40.6176 73.0339 41.9191 74.3354 43.5245 74.3354H56.2968V97.8657H6.61355C5.00812 97.8657 3.70667 99.1671 3.70667 100.773V126.06C3.70667 127.666 5.00812 128.967 6.61355 128.967H56.2968V158.153C56.2968 159.758 57.5982 161.059 59.2037 161.059H96.0924C97.6978 161.059 98.9993 162.361 98.9993 163.966V169.091C98.9993 170.697 97.6978 171.998 96.0924 171.998H69.9062C68.3007 171.998 66.9993 173.3 66.9993 174.905V200.091C66.9993 201.697 68.3007 202.998 69.9061 202.998H114.092C115.698 202.998 116.999 201.697 116.999 200.091V174.905C116.999 173.3 118.301 171.998 119.906 171.998H239.092C240.698 171.998 241.999 170.697 241.999 169.091V150.641H267.976C269.582 150.641 270.883 149.34 270.883 147.734V122.574C270.883 120.969 269.582 119.667 267.976 119.667H241.999V101.488C241.999 99.8823 243.301 98.5808 244.906 98.5808H278.554C280.159 98.5808 281.461 97.2794 281.461 95.6739V70.5139C281.461 68.9084 280.159 67.607 278.554 67.607H244.906C243.301 67.607 241.999 66.3055 241.999 64.7001V47.905C241.999 46.2996 240.698 44.9981 239.092 44.9981H202.262C200.657 44.9981 199.355 43.6967 199.355 42.0913V6.04565ZM241.999 119.667H130.731C129.126 119.667 127.824 120.969 127.824 122.574V147.734C127.824 149.34 129.126 150.641 130.731 150.641H241.999V119.667ZM56.2968 128.967H93.5628C95.1682 128.967 96.4697 127.666 96.4697 126.06V100.773C96.4697 99.1671 95.1682 97.8657 93.5628 97.8657H56.2968V128.967ZM56.2968 74.3354H180.769C182.375 74.3354 183.676 73.0339 183.676 71.4285V46.2684C183.676 44.663 182.375 43.3615 180.769 43.3615H43.5245C41.9191 43.3615 40.6176 44.663 40.6176 46.2684V57.0101H53.3899C54.9953 57.0101 56.2968 58.3115 56.2968 59.9169V74.3354Z"/>
</mask>
<path fill-rule="evenodd" clip-rule="evenodd" d="M199.355 6.04565C199.355 4.44022 198.054 3.13876 196.449 3.13876H59.2037C57.5982 3.13876 56.2968 4.44022 56.2968 6.04566V23.1293C56.2968 24.7347 54.9953 26.0362 53.3899 26.0362H30.7636C29.1581 26.0362 27.8567 27.3376 27.8567 28.9431V54.1032C27.8567 55.7086 29.1581 57.0101 30.7636 57.0101H40.6176V71.4285C40.6176 73.0339 41.9191 74.3354 43.5245 74.3354H56.2968V97.8657H6.61355C5.00812 97.8657 3.70667 99.1671 3.70667 100.773V126.06C3.70667 127.666 5.00812 128.967 6.61355 128.967H56.2968V158.153C56.2968 159.758 57.5982 161.059 59.2037 161.059H96.0924C97.6978 161.059 98.9993 162.361 98.9993 163.966V169.091C98.9993 170.697 97.6978 171.998 96.0924 171.998H69.9062C68.3007 171.998 66.9993 173.3 66.9993 174.905V200.091C66.9993 201.697 68.3007 202.998 69.9061 202.998H114.092C115.698 202.998 116.999 201.697 116.999 200.091V174.905C116.999 173.3 118.301 171.998 119.906 171.998H239.092C240.698 171.998 241.999 170.697 241.999 169.091V150.641H267.976C269.582 150.641 270.883 149.34 270.883 147.734V122.574C270.883 120.969 269.582 119.667 267.976 119.667H241.999V101.488C241.999 99.8823 243.301 98.5808 244.906 98.5808H278.554C280.159 98.5808 281.461 97.2794 281.461 95.6739V70.5139C281.461 68.9084 280.159 67.607 278.554 67.607H244.906C243.301 67.607 241.999 66.3055 241.999 64.7001V47.905C241.999 46.2996 240.698 44.9981 239.092 44.9981H202.262C200.657 44.9981 199.355 43.6967 199.355 42.0913V6.04565ZM241.999 119.667H130.731C129.126 119.667 127.824 120.969 127.824 122.574V147.734C127.824 149.34 129.126 150.641 130.731 150.641H241.999V119.667ZM56.2968 128.967H93.5628C95.1682 128.967 96.4697 127.666 96.4697 126.06V100.773C96.4697 99.1671 95.1682 97.8657 93.5628 97.8657H56.2968V128.967ZM56.2968 74.3354H180.769C182.375 74.3354 183.676 73.0339 183.676 71.4285V46.2684C183.676 44.663 182.375 43.3615 180.769 43.3615H43.5245C41.9191 43.3615 40.6176 44.663 40.6176 46.2684V57.0101H53.3899C54.9953 57.0101 56.2968 58.3115 56.2968 59.9169V74.3354Z" fill="#F13032"/>
<path d="M59.2037 6.13876H196.449V0.138763H59.2037V6.13876ZM59.2968 23.1293V6.04566H53.2968V23.1293H59.2968ZM30.7636 29.0362H53.3899V23.0362H30.7636V29.0362ZM30.8567 54.1032V28.9431H24.8567V54.1032H30.8567ZM40.6176 54.0101H30.7636V60.0101H40.6176V54.0101ZM37.6176 57.0101V71.4285H43.6176V57.0101H37.6176ZM43.5245 77.3354H56.2968V71.3354H43.5245V77.3354ZM59.2968 97.8657V74.3354H53.2968V97.8657H59.2968ZM6.61355 100.866H56.2968V94.8657H6.61355V100.866ZM6.70667 126.06V100.773H0.706665V126.06H6.70667ZM56.2968 125.967H6.61355V131.967H56.2968V125.967ZM59.2968 158.153V128.967H53.2968V158.153H59.2968ZM96.0924 158.059H59.2037V164.059H96.0924V158.059ZM101.999 169.091V163.966H95.9993V169.091H101.999ZM69.9062 174.998H96.0924V168.998H69.9062V174.998ZM69.9993 200.091V174.905H63.9993V200.091H69.9993ZM114.092 199.998H69.9061V205.998H114.092V199.998ZM113.999 174.905V200.091H119.999V174.905H113.999ZM239.092 168.998H119.906V174.998H239.092V168.998ZM238.999 150.641V169.091H244.999V150.641H238.999ZM241.999 153.641H267.976V147.641H241.999V153.641ZM273.883 147.734V122.574H267.883V147.734H273.883ZM267.976 116.667H241.999V122.667H267.976V116.667ZM238.999 101.488V119.667H244.999V101.488H238.999ZM278.554 95.5808H244.906V101.581H278.554V95.5808ZM278.461 70.5139V95.6739H284.461V70.5139H278.461ZM244.906 70.607H278.554V64.607H244.906V70.607ZM238.999 47.905V64.7001H244.999V47.905H238.999ZM202.262 47.9981H239.092V41.9981H202.262V47.9981ZM196.355 6.04565V42.0913H202.355V6.04565H196.355ZM241.999 116.667H130.731V122.667H241.999V116.667ZM124.824 122.574V147.734H130.824V122.574H124.824ZM130.731 153.641H241.999V147.641H130.731V153.641ZM238.999 119.667V150.641H244.999V119.667H238.999ZM93.5628 125.967H56.2968V131.967H93.5628V125.967ZM93.4697 100.773V126.06H99.4697V100.773H93.4697ZM56.2968 100.866H93.5628V94.8657H56.2968V100.866ZM59.2968 128.967V97.8657H53.2968V128.967H59.2968ZM56.2968 77.3354H180.769V71.3354H56.2968V77.3354ZM186.676 71.4285V46.2684H180.676V71.4285H186.676ZM180.769 40.3615H43.5245V46.3615H180.769V40.3615ZM37.6176 46.2684V57.0101H43.6176V46.2684H37.6176ZM53.3899 54.0101H40.6176V60.0101H53.3899V54.0101ZM59.2968 74.3354V59.9169H53.2968V74.3354H59.2968ZM53.3899 60.0101C53.3826 60.0101 53.368 60.008 53.3527 60.0015C53.3394 59.9959 53.3303 59.989 53.3241 59.9828C53.3178 59.9765 53.311 59.9674 53.3053 59.9541C53.2989 59.9388 53.2968 59.9243 53.2968 59.9169H59.2968C59.2968 56.6547 56.6522 54.0101 53.3899 54.0101V60.0101ZM43.5245 40.3615C40.2622 40.3615 37.6176 43.0061 37.6176 46.2684H43.6176C43.6176 46.2757 43.6155 46.2903 43.6091 46.3056C43.6034 46.3189 43.5966 46.328 43.5904 46.3342C43.5841 46.3405 43.575 46.3473 43.5617 46.353C43.5464 46.3594 43.5318 46.3615 43.5245 46.3615V40.3615ZM186.676 46.2684C186.676 43.0061 184.032 40.3615 180.769 40.3615V46.3615C180.762 46.3615 180.748 46.3594 180.732 46.353C180.719 46.3473 180.71 46.3405 180.704 46.3342C180.697 46.328 180.69 46.3189 180.685 46.3056C180.678 46.2903 180.676 46.2757 180.676 46.2684H186.676ZM180.769 77.3354C184.032 77.3354 186.676 74.6908 186.676 71.4285H180.676C180.676 71.4212 180.678 71.4066 180.685 71.3913C180.69 71.378 180.697 71.3689 180.704 71.3626C180.71 71.3564 180.719 71.3496 180.732 71.3439C180.748 71.3375 180.762 71.3354 180.769 71.3354V77.3354ZM99.4697 100.773C99.4697 97.5103 96.8251 94.8657 93.5628 94.8657V100.866C93.5554 100.866 93.5409 100.864 93.5256 100.857C93.5123 100.852 93.5032 100.845 93.4969 100.838C93.4907 100.832 93.4838 100.823 93.4782 100.81C93.4717 100.794 93.4697 100.78 93.4697 100.773H99.4697ZM93.5628 131.967C96.8251 131.967 99.4697 129.323 99.4697 126.06H93.4697C93.4697 126.053 93.4717 126.038 93.4782 126.023C93.4838 126.01 93.4907 126.001 93.4969 125.994C93.5032 125.988 93.5123 125.981 93.5256 125.976C93.5409 125.969 93.5554 125.967 93.5628 125.967V131.967ZM124.824 147.734C124.824 150.997 127.469 153.641 130.731 153.641V147.641C130.738 147.641 130.753 147.643 130.768 147.65C130.782 147.655 130.791 147.662 130.797 147.668C130.803 147.675 130.81 147.684 130.816 147.697C130.822 147.712 130.824 147.727 130.824 147.734H124.824ZM130.731 116.667C127.469 116.667 124.824 119.312 124.824 122.574H130.824C130.824 122.582 130.822 122.596 130.816 122.611C130.81 122.625 130.803 122.634 130.797 122.64C130.791 122.646 130.782 122.653 130.768 122.659C130.753 122.665 130.739 122.667 130.731 122.667V116.667ZM202.262 41.9981C202.27 41.9981 202.284 42.0002 202.3 42.0067C202.313 42.0123 202.322 42.0192 202.328 42.0254C202.334 42.0317 202.341 42.0408 202.347 42.0541C202.353 42.0694 202.355 42.0839 202.355 42.0913H196.355C196.355 45.3535 199 47.9981 202.262 47.9981V41.9981ZM244.999 47.905C244.999 44.6427 242.355 41.9981 239.092 41.9981V47.9981C239.085 47.9981 239.071 47.9961 239.055 47.9896C239.042 47.984 239.033 47.9771 239.027 47.9709C239.02 47.9646 239.013 47.9555 239.008 47.9422C239.001 47.9269 238.999 47.9123 238.999 47.905H244.999ZM273.883 122.574C273.883 119.312 271.238 116.667 267.976 116.667V122.667C267.969 122.667 267.954 122.665 267.939 122.659C267.926 122.653 267.916 122.646 267.91 122.64C267.904 122.634 267.897 122.625 267.892 122.611C267.885 122.596 267.883 122.582 267.883 122.574H273.883ZM267.976 153.641C271.238 153.641 273.883 150.997 273.883 147.734H267.883C267.883 147.727 267.885 147.712 267.892 147.697C267.897 147.684 267.904 147.675 267.91 147.668C267.916 147.662 267.926 147.655 267.939 147.65C267.954 147.643 267.969 147.641 267.976 147.641V153.641ZM239.092 174.998C242.355 174.998 244.999 172.354 244.999 169.091H238.999C238.999 169.084 239.001 169.069 239.008 169.054C239.013 169.041 239.02 169.032 239.027 169.025C239.033 169.019 239.042 169.012 239.055 169.007C239.071 169 239.085 168.998 239.092 168.998V174.998ZM119.999 174.905C119.999 174.912 119.997 174.927 119.991 174.942C119.985 174.956 119.978 174.965 119.972 174.971C119.966 174.977 119.957 174.984 119.943 174.99C119.928 174.996 119.913 174.998 119.906 174.998V168.998C116.644 168.998 113.999 171.643 113.999 174.905H119.999ZM114.092 205.998C117.355 205.998 119.999 203.354 119.999 200.091H113.999C113.999 200.084 114.001 200.069 114.008 200.054C114.013 200.041 114.02 200.032 114.027 200.025C114.033 200.019 114.042 200.012 114.055 200.007C114.071 200 114.085 199.998 114.092 199.998V205.998ZM63.9993 200.091C63.9993 203.354 66.6439 205.998 69.9061 205.998V199.998C69.9135 199.998 69.928 200 69.9433 200.007C69.9566 200.012 69.9657 200.019 69.972 200.025C69.9782 200.032 69.9851 200.041 69.9907 200.054C69.9972 200.069 69.9993 200.084 69.9993 200.091H63.9993ZM69.9062 168.998C66.6439 168.998 63.9993 171.643 63.9993 174.905H69.9993C69.9993 174.912 69.9972 174.927 69.9907 174.942C69.9851 174.956 69.9782 174.965 69.972 174.971C69.9657 174.977 69.9566 174.984 69.9433 174.99C69.928 174.996 69.9135 174.998 69.9062 174.998V168.998ZM0.706665 126.06C0.706665 129.323 3.35127 131.967 6.61355 131.967V125.967C6.62088 125.967 6.63541 125.969 6.65072 125.976C6.66403 125.981 6.67315 125.988 6.67939 125.994C6.68564 126.001 6.69249 126.01 6.69812 126.023C6.70459 126.038 6.70667 126.053 6.70667 126.06H0.706665ZM6.61355 94.8657C3.35127 94.8657 0.706665 97.5103 0.706665 100.773H6.70667C6.70667 100.78 6.70459 100.794 6.69812 100.81C6.69249 100.823 6.68564 100.832 6.67939 100.838C6.67315 100.845 6.66403 100.852 6.65072 100.857C6.63541 100.864 6.62088 100.866 6.61355 100.866V94.8657ZM37.6176 71.4285C37.6176 74.6908 40.2622 77.3354 43.5245 77.3354V71.3354C43.5318 71.3354 43.5464 71.3375 43.5617 71.3439C43.575 71.3496 43.5841 71.3564 43.5904 71.3627C43.5966 71.3689 43.6034 71.378 43.6091 71.3913C43.6155 71.4066 43.6176 71.4212 43.6176 71.4285H37.6176ZM244.906 64.607C244.913 64.607 244.928 64.609 244.943 64.6155C244.957 64.6211 244.966 64.628 244.972 64.6342C244.978 64.6405 244.985 64.6496 244.991 64.6629C244.997 64.6782 244.999 64.6928 244.999 64.7001H238.999C238.999 67.9624 241.644 70.607 244.906 70.607V64.607ZM24.8567 54.1032C24.8567 57.3655 27.5013 60.0101 30.7636 60.0101V54.0101C30.7709 54.0101 30.7854 54.0121 30.8007 54.0186C30.814 54.0242 30.8232 54.0311 30.8294 54.0373C30.8357 54.0436 30.8425 54.0527 30.8481 54.066C30.8546 54.0813 30.8567 54.0958 30.8567 54.1032H24.8567ZM95.9993 169.091C95.9993 169.084 96.0013 169.069 96.0078 169.054C96.0134 169.041 96.0203 169.032 96.0265 169.025C96.0328 169.019 96.0419 169.012 96.0552 169.007C96.0705 169 96.085 168.998 96.0924 168.998V174.998C99.3547 174.998 101.999 172.354 101.999 169.091H95.9993ZM284.461 70.5139C284.461 67.2516 281.816 64.607 278.554 64.607V70.607C278.547 70.607 278.532 70.6049 278.517 70.5984C278.504 70.5928 278.494 70.5859 278.488 70.5797C278.482 70.5734 278.475 70.5643 278.469 70.551C278.463 70.5357 278.461 70.5212 278.461 70.5139H284.461ZM30.7636 23.0362C27.5013 23.0362 24.8567 25.6808 24.8567 28.9431H30.8567C30.8567 28.9504 30.8546 28.9649 30.8481 28.9802C30.8425 28.9936 30.8357 29.0027 30.8294 29.0089C30.8232 29.0152 30.814 29.022 30.8007 29.0276C30.7854 29.0341 30.7709 29.0362 30.7636 29.0362V23.0362ZM96.0924 164.059C96.085 164.059 96.0705 164.057 96.0552 164.051C96.0419 164.045 96.0328 164.038 96.0265 164.032C96.0203 164.026 96.0134 164.017 96.0078 164.003C96.0013 163.988 95.9993 163.974 95.9993 163.966H101.999C101.999 160.704 99.3547 158.059 96.0924 158.059V164.059ZM278.554 101.581C281.816 101.581 284.461 98.9362 284.461 95.6739H278.461C278.461 95.6666 278.463 95.6521 278.469 95.6368C278.475 95.6235 278.482 95.6143 278.488 95.6081C278.494 95.6019 278.504 95.595 278.517 95.5894C278.532 95.5829 278.547 95.5808 278.554 95.5808V101.581ZM53.2968 23.1293C53.2968 23.122 53.2989 23.1074 53.3053 23.0921C53.311 23.0788 53.3178 23.0697 53.3241 23.0635C53.3303 23.0572 53.3394 23.0504 53.3527 23.0447C53.368 23.0383 53.3826 23.0362 53.3899 23.0362V29.0362C56.6522 29.0362 59.2968 26.3916 59.2968 23.1293H53.2968ZM53.2968 158.153C53.2968 161.415 55.9414 164.059 59.2037 164.059V158.059C59.211 158.059 59.2255 158.061 59.2408 158.068C59.2542 158.074 59.2633 158.08 59.2695 158.087C59.2758 158.093 59.2826 158.102 59.2882 158.115C59.2947 158.131 59.2968 158.145 59.2968 158.153H53.2968ZM244.999 101.488C244.999 101.495 244.997 101.51 244.991 101.525C244.985 101.538 244.978 101.547 244.972 101.554C244.966 101.56 244.957 101.567 244.943 101.572C244.928 101.579 244.913 101.581 244.906 101.581V95.5808C241.644 95.5808 238.999 98.2254 238.999 101.488H244.999ZM196.449 6.13876C196.441 6.13876 196.427 6.13669 196.411 6.13021C196.398 6.12459 196.389 6.11774 196.383 6.11149C196.377 6.10525 196.37 6.09613 196.364 6.08282C196.358 6.06751 196.355 6.05298 196.355 6.04565H202.355C202.355 2.78336 199.711 0.138763 196.449 0.138763V6.13876ZM59.2037 0.138763C55.9414 0.138763 53.2968 2.78337 53.2968 6.04566H59.2968C59.2968 6.05298 59.2947 6.06751 59.2882 6.08282C59.2826 6.09613 59.2758 6.10525 59.2695 6.11149C59.2633 6.11774 59.2542 6.12458 59.2408 6.13021C59.2255 6.13669 59.211 6.13876 59.2037 6.13876V0.138763Z" fill="#634C00" mask="url(#path-1-outside-1_1_57)"/>
</svg>
