<svg width="1920" height="1411" viewBox="0 0 1920 1411" fill="none" xmlns="http://www.w3.org/2000/svg">
<path opacity="0.6" fill-rule="evenodd" clip-rule="evenodd" d="M1920.57 890.62C1923.97 894.025 1929.5 894.025 1932.9 890.62L1935.63 887.89C1939.04 884.485 1939.04 878.963 1935.63 875.558L1276 215.925C1275.95 215.875 1275.87 215.875 1275.82 215.925C1275.73 216.006 1275.6 215.949 1275.6 215.834L1275.6 214.943C1275.6 214.668 1275.37 214.445 1275.1 214.445L1201.06 214.445C1198.74 214.445 1196.52 213.527 1194.89 211.891L1133.18 150.179C1133.11 150.107 1133.06 150.009 1133.06 149.907C1133.06 149.695 1132.89 149.523 1132.68 149.523C1132.58 149.523 1132.48 149.482 1132.41 149.41L1132.33 149.334C1132.08 149.082 1131.67 149.082 1131.42 149.334C1131.3 149.455 1131.13 149.523 1130.96 149.523L1032.67 149.523C1030.36 149.523 1028.14 148.604 1026.51 146.969L862.069 -17.4702C862.062 -17.4771 862.051 -17.4771 862.044 -17.4702L862.032 -17.4578C862.025 -17.4512 862.014 -17.4559 862.014 -17.4651C862.014 -17.4709 862.009 -17.4755 862.004 -17.4755L694.857 -17.4755C690.041 -17.4755 686.137 -13.5712 686.137 -8.75486L686.137 3.82567L686.137 188.13C686.137 192.946 682.232 196.851 677.416 196.851L615.184 196.851C610.368 196.851 606.463 192.946 606.463 188.13L606.463 -87.1614C606.463 -91.9776 602.559 -95.882 597.743 -95.882L588.653 -95.882C583.836 -95.882 579.932 -91.9776 579.932 -87.1613L579.932 188.13C579.932 192.946 576.028 196.851 571.211 196.851L418.142 196.851C415.829 196.851 413.611 197.77 411.976 199.405L289.386 321.995C287.751 323.631 285.533 324.549 283.22 324.549L213.612 324.549L187.08 324.549L-211.379 324.549C-216.195 324.549 -220.099 328.454 -220.099 333.27L-220.099 337.13C-220.099 341.946 -216.195 345.851 -211.379 345.851L178.36 345.851C183.176 345.851 187.08 349.755 187.08 354.571L187.08 586.745C187.08 589.058 186.162 591.276 184.526 592.912L-122.977 900.414C-122.98 900.418 -122.981 900.423 -122.978 900.427C-122.977 900.429 -122.976 900.431 -122.976 900.433L-122.976 1228.9L-122.976 1251.19C-122.976 1251.19 -122.974 1251.19 -122.972 1251.19L-101.677 1251.19C-101.676 1251.19 -101.675 1251.19 -101.675 1251.19C-101.675 1251.19 -101.674 1251.19 -101.673 1251.19L196.113 1251.19C198.426 1251.19 200.644 1252.11 202.28 1253.74L272.234 1323.7C273.869 1325.33 274.788 1327.55 274.788 1329.87L274.788 1386.48C274.788 1391.3 278.693 1395.2 283.509 1395.2L292.599 1395.2C297.415 1395.2 301.32 1391.3 301.32 1386.48L301.32 1373.84C301.32 1366.07 310.713 1362.18 316.207 1367.67L356.087 1407.55C359.493 1410.96 365.015 1410.96 368.42 1407.55L371.15 1404.82C374.555 1401.42 374.555 1395.9 371.15 1392.49L303.874 1325.21C302.238 1323.58 301.32 1321.36 301.32 1319.05L301.32 1259.91C301.32 1255.09 305.224 1251.19 310.04 1251.19L399.135 1251.19C399.136 1251.19 399.137 1251.19 399.138 1251.19C399.139 1251.19 399.142 1251.19 399.143 1251.19C399.144 1251.19 399.145 1251.19 399.146 1251.19L399.408 1251.19C399.759 1251.19 400.044 1250.91 400.044 1250.55C400.044 1250.38 400.112 1250.22 400.231 1250.1L711.022 939.312C712.658 937.677 714.876 936.758 717.189 936.758L1168.27 936.758C1168.51 936.758 1168.69 936.57 1168.69 936.338C1168.69 936.227 1168.74 936.12 1168.82 936.041L1400.59 704.265C1400.59 704.263 1400.6 704.262 1400.6 704.262C1400.61 704.262 1400.61 704.256 1400.61 704.25L1400.61 418.24C1400.61 418.162 1400.55 418.098 1400.47 418.098C1400.35 418.098 1400.28 417.946 1400.37 417.857L1400.47 417.757C1400.55 417.679 1400.55 417.552 1400.47 417.474L1234.62 251.624C1229.13 246.131 1233.02 236.737 1240.79 236.737L1263.07 236.737C1265.39 236.737 1267.6 237.656 1269.24 239.291L1920.57 890.62ZM-99.1206 906.683C-100.756 908.318 -101.675 910.537 -101.675 912.849L-101.675 1220.18C-101.675 1224.99 -97.7704 1228.9 -92.9542 1228.9L156.38 1228.9C164.149 1228.9 168.04 1219.5 162.547 1214.01L-29.0319 1022.43C-29.2326 1022.23 -29.2326 1021.91 -29.0319 1021.71L-28.2957 1020.97C-28.2437 1020.92 -28.2806 1020.83 -28.3542 1020.83C-28.3998 1020.83 -28.4368 1020.79 -28.4368 1020.75L-28.4368 892.61C-28.4367 892.593 -28.4231 892.579 -28.4064 892.579L147.176 892.579C149.488 892.579 151.707 891.661 153.342 890.025L272.234 771.133C273.869 769.498 274.788 767.28 274.788 764.967L274.788 637.936C274.788 637.864 274.846 637.807 274.918 637.807C275.033 637.807 275.091 637.667 275.009 637.585L274.92 637.496C274.849 637.425 274.849 637.309 274.92 637.238L577.378 334.78C579.013 333.145 579.932 330.927 579.932 328.614L579.932 226.873C579.932 222.056 576.028 218.152 571.211 218.152L426.966 218.152C424.653 218.152 422.435 219.071 420.8 220.706L295.677 345.829C295.661 345.845 295.635 345.845 295.62 345.829L295.596 345.806C295.58 345.789 295.551 345.801 295.551 345.824C295.551 345.839 295.539 345.851 295.525 345.851L222.333 345.851C217.516 345.851 213.612 349.755 213.612 354.571L213.612 593.955C213.612 593.96 213.607 593.964 213.602 593.964C213.599 593.964 213.597 593.965 213.595 593.967L-99.1206 906.683ZM159.29 913.936C159.254 913.9 159.206 913.881 159.157 913.881L1.58504 913.881C-3.23125 913.881 -7.13566 917.785 -7.13566 922.601L-7.13567 1010.59C-7.13567 1012.91 -6.21685 1015.12 -4.58147 1016.76L205.004 1226.34C206.639 1227.98 208.857 1228.9 211.17 1228.9L266.067 1228.9C270.884 1228.9 274.788 1224.99 274.788 1220.18L274.788 819.757C274.788 811.988 265.395 808.097 259.901 813.591L159.556 913.936C159.482 914.009 159.363 914.009 159.29 913.936ZM303.874 769.618C302.238 771.253 301.32 773.471 301.32 775.784L301.32 1220.18C301.32 1224.99 305.224 1228.9 310.04 1228.9L387.699 1228.9C390.012 1228.9 392.23 1227.98 393.866 1226.34L705.063 915.147C705.36 914.85 705.842 914.85 706.139 915.147L706.448 915.456C706.813 915.821 707.437 915.562 707.437 915.046C707.437 914.726 707.697 914.466 708.017 914.466L1156.66 914.466C1158.97 914.466 1161.19 913.547 1162.82 911.912L1376.76 697.976C1378.39 696.34 1379.31 694.122 1379.31 691.809L1379.31 430.051C1379.31 427.738 1378.39 425.52 1376.76 423.884L1192.16 239.291C1190.53 237.656 1188.31 236.737 1186 236.737L961.711 236.737C959.398 236.737 957.18 237.656 955.544 239.291L858.752 336.084C857.116 337.719 856.197 339.938 856.197 342.25L856.197 554.614L856.197 563.567L856.197 567.194C856.197 572.011 852.293 575.915 847.477 575.915L637.859 575.915C637.674 575.915 637.496 575.989 637.365 576.12C637.092 576.393 636.65 576.393 636.377 576.12L573.041 512.784C569.635 509.378 564.113 509.378 560.708 512.784L303.874 769.618ZM950.524 214.445C950.361 214.445 950.23 214.577 950.23 214.74L950.23 214.967C950.23 215.146 950.013 215.235 949.887 215.109C949.808 215.03 949.681 215.03 949.602 215.109L837.156 327.555C836.908 327.803 836.571 327.943 836.22 327.943C835.489 327.943 834.896 328.535 834.896 329.267L834.896 545.893C834.896 550.709 830.992 554.614 826.176 554.614L648.608 554.614C646.295 554.614 644.077 553.695 642.441 552.06L572.033 481.652C568.627 478.246 563.106 478.246 559.7 481.652L551.308 490.044C551.03 490.322 551.03 490.773 551.308 491.051C551.587 491.33 551.587 491.781 551.308 492.059L316.207 727.161C310.713 732.654 301.32 728.763 301.32 720.994L301.32 651.972C301.32 649.659 302.238 647.441 303.874 645.805L601.97 347.709C602.464 347.215 603.133 346.938 603.831 346.938C605.285 346.938 606.463 345.759 606.463 344.306L606.463 226.873C606.463 222.056 610.368 218.152 615.184 218.152L686.137 218.153L698.717 218.153C703.534 218.153 707.438 214.248 707.438 209.432L707.438 12.5463C707.438 7.73005 711.342 3.82568 716.159 3.82568L849.628 3.82568C851.941 3.82568 854.159 4.74447 855.795 6.37991L1021.23 171.811C1021.23 171.812 1021.23 171.812 1021.23 171.811L1021.23 171.811C1021.23 171.809 1021.23 171.81 1021.23 171.812C1021.23 171.814 1021.23 171.815 1021.24 171.815L1121.08 171.815C1123.39 171.815 1125.61 172.734 1127.24 174.369L1152.43 199.558C1157.93 205.052 1154.03 214.445 1146.27 214.445L950.524 214.445ZM250.904 1251.19C243.134 1251.19 239.243 1260.58 244.737 1266.08L259.901 1281.24C265.395 1286.73 274.788 1282.84 274.788 1275.07L274.788 1259.91C274.788 1255.09 270.884 1251.19 266.067 1251.19L250.904 1251.19Z" fill="#0D0D0D"/>
</svg>
