<svg width="910" height="599" viewBox="0 0 910 599" fill="none" xmlns="http://www.w3.org/2000/svg">
<rect width="909.129" height="598.819" fill="#F13032"/>
<rect x="360.872" y="161.378" width="87.641" height="87.641" rx="8.72067" fill="white" stroke="#634C00" stroke-width="5.81378"/>
<rect x="460.619" y="161.378" width="87.641" height="87.641" rx="8.72067" fill="white" stroke="#634C00" stroke-width="5.81378"/>
<mask id="path-3-outside-1_10_8" maskUnits="userSpaceOnUse" x="293.839" y="289.19" width="322" height="158" fill="black">
<rect fill="white" x="293.839" y="289.19" width="322" height="158"/>
<path fill-rule="evenodd" clip-rule="evenodd" d="M381.666 301.004C381.666 297.793 379.063 295.19 375.852 295.19H305.653C302.442 295.19 299.839 297.793 299.839 301.004V371.203C299.839 374.414 302.442 377.017 305.653 377.017H368.811C372.022 377.017 374.625 379.62 374.625 382.831V434.888C374.625 438.099 377.227 440.702 380.438 440.702H453.516H456.452H529.53C532.741 440.702 535.344 438.099 535.344 434.888V382.837C535.344 379.626 537.947 377.023 541.157 377.023H603.48C606.69 377.023 609.293 374.42 609.293 371.209V301.009C609.293 297.799 606.69 295.196 603.48 295.196H533.28C530.069 295.196 527.466 297.799 527.466 301.009V353.061C527.466 356.272 524.863 358.875 521.652 358.875H456.452H453.516H387.48C384.269 358.875 381.666 356.272 381.666 353.061V301.004Z"/>
</mask>
<path fill-rule="evenodd" clip-rule="evenodd" d="M381.666 301.004C381.666 297.793 379.063 295.19 375.852 295.19H305.653C302.442 295.19 299.839 297.793 299.839 301.004V371.203C299.839 374.414 302.442 377.017 305.653 377.017H368.811C372.022 377.017 374.625 379.62 374.625 382.831V434.888C374.625 438.099 377.227 440.702 380.438 440.702H453.516H456.452H529.53C532.741 440.702 535.344 438.099 535.344 434.888V382.837C535.344 379.626 537.947 377.023 541.157 377.023H603.48C606.69 377.023 609.293 374.42 609.293 371.209V301.009C609.293 297.799 606.69 295.196 603.48 295.196H533.28C530.069 295.196 527.466 297.799 527.466 301.009V353.061C527.466 356.272 524.863 358.875 521.652 358.875H456.452H453.516H387.48C384.269 358.875 381.666 356.272 381.666 353.061V301.004Z" fill="white"/>
<path d="M305.653 301.004H375.852V289.376H305.653V301.004ZM305.653 371.203V301.004H294.025V371.203H305.653ZM368.811 371.203H305.653V382.831H368.811V371.203ZM368.811 382.831V434.888H380.438V382.831H368.811ZM380.438 446.516H453.516V434.888H380.438V446.516ZM453.516 446.516H456.452V434.888H453.516V446.516ZM456.452 446.516H529.53V434.888H456.452V446.516ZM541.157 434.888V382.837H529.53V434.888H541.157ZM541.157 382.837H603.48V371.209H541.157V382.837ZM615.107 371.209V301.009H603.48V371.209H615.107ZM603.48 289.382H533.28V301.009H603.48V289.382ZM521.652 301.009V353.061H533.28V301.009H521.652ZM521.652 353.061H456.452V364.688H521.652V353.061ZM456.452 353.061H453.516V364.688H456.452V353.061ZM453.516 353.061H387.48V364.688H453.516V353.061ZM375.852 301.004V353.061H387.48V301.004H375.852ZM387.48 353.061L387.48 353.061H375.852C375.852 359.483 381.058 364.688 387.48 364.688V353.061ZM615.107 301.009C615.107 294.588 609.901 289.382 603.48 289.382V301.009L603.48 301.009H615.107ZM603.48 382.837C609.901 382.837 615.107 377.631 615.107 371.209H603.48L603.48 371.209V382.837ZM541.157 382.837L541.157 382.837V371.209C534.736 371.209 529.53 376.415 529.53 382.837H541.157ZM529.53 446.516C535.952 446.516 541.157 441.31 541.157 434.888H529.53L529.53 434.888V446.516ZM368.811 434.888C368.811 441.31 374.017 446.516 380.438 446.516V434.888L380.438 434.888H368.811ZM368.811 382.831L368.811 382.831H380.438C380.438 376.409 375.232 371.203 368.811 371.203V382.831ZM294.025 371.203C294.025 377.625 299.231 382.831 305.653 382.831V371.203L305.653 371.203H294.025ZM521.652 353.061L521.652 353.061V364.688C528.074 364.688 533.28 359.483 533.28 353.061H521.652ZM375.852 301.004L375.852 301.004H387.48C387.48 294.582 382.274 289.376 375.852 289.376V301.004ZM533.28 289.382C526.858 289.382 521.652 294.588 521.652 301.009H533.28L533.28 301.009V289.382ZM305.653 289.376C299.231 289.376 294.025 294.582 294.025 301.004H305.653L305.653 301.004V289.376Z" fill="#634C00" mask="url(#path-3-outside-1_10_8)"/>
</svg>
