<svg width="88" height="284" viewBox="0 0 88 284" fill="none" xmlns="http://www.w3.org/2000/svg">
<rect x="63.767" y="0.693115" width="81.8272" height="81.8272" rx="5.81378" fill="white"/>
<path fill-rule="evenodd" clip-rule="evenodd" d="M82.3618 143.582C82.3618 140.371 79.7588 137.768 76.548 137.768H6.34832C3.13746 137.768 0.534546 140.371 0.534546 143.582V213.782C0.534546 216.992 3.13746 219.595 6.34832 219.595H69.5064C72.7173 219.595 75.3202 222.198 75.3202 225.409V277.466C75.3202 280.677 77.9231 283.28 81.134 283.28H154.212H157.147H230.226C233.436 283.28 236.039 280.677 236.039 277.466V225.415C236.039 222.204 238.642 219.601 241.853 219.601H304.175C307.386 219.601 309.989 216.998 309.989 213.787V143.588C309.989 140.377 307.386 137.774 304.175 137.774H233.976C230.765 137.774 228.162 140.377 228.162 143.588V195.639C228.162 198.85 225.559 201.453 222.348 201.453H157.147H154.212H88.1755C84.9647 201.453 82.3618 198.85 82.3618 195.639V143.582Z" fill="white"/>
</svg>
