<svg width="322" height="188" viewBox="0 0 322 188" fill="none" xmlns="http://www.w3.org/2000/svg">
<rect x="67.0023" y="2.94004" width="87.641" height="40.8185" rx="8.72067" fill="#EE07FF" stroke="#470D0D" stroke-width="5.81378"/>
<rect x="166.749" y="2.94004" width="87.641" height="40.8185" rx="8.72067" fill="#EE07FF" stroke="#470D0D" stroke-width="5.81378"/>
<mask id="path-3-outside-1_1_121" maskUnits="userSpaceOnUse" x="-0.0301514" y="101.66" width="322" height="87" fill="black">
<rect fill="white" x="-0.0301514" y="101.66" width="322" height="87"/>
<path fill-rule="evenodd" clip-rule="evenodd" d="M159.647 107.66H86.5693C83.3584 107.66 80.7555 110.263 80.7555 113.473V135.326C80.7555 138.537 78.1526 141.14 74.9417 141.14H11.7836C8.57277 141.14 5.96985 143.743 5.96985 146.954V176.344C5.96985 179.555 8.57277 182.158 11.7836 182.158H81.9833C85.1941 182.158 87.7971 179.555 87.7971 176.344V154.492C87.7971 151.281 90.4 148.678 93.6108 148.678H159.647H162.583H227.783C230.994 148.678 233.597 151.281 233.597 154.492V176.35C233.597 179.561 236.2 182.164 239.411 182.164H309.611C312.821 182.164 315.424 179.561 315.424 176.35V146.959C315.424 143.749 312.821 141.146 309.611 141.146H247.288C244.078 141.146 241.475 138.543 241.475 135.332V113.473C241.475 110.263 238.872 107.66 235.661 107.66H162.583H159.647Z"/>
</mask>
<path fill-rule="evenodd" clip-rule="evenodd" d="M159.647 107.66H86.5693C83.3584 107.66 80.7555 110.263 80.7555 113.473V135.326C80.7555 138.537 78.1526 141.14 74.9417 141.14H11.7836C8.57277 141.14 5.96985 143.743 5.96985 146.954V176.344C5.96985 179.555 8.57277 182.158 11.7836 182.158H81.9833C85.1941 182.158 87.7971 179.555 87.7971 176.344V154.492C87.7971 151.281 90.4 148.678 93.6108 148.678H159.647H162.583H227.783C230.994 148.678 233.597 151.281 233.597 154.492V176.35C233.597 179.561 236.2 182.164 239.411 182.164H309.611C312.821 182.164 315.424 179.561 315.424 176.35V146.959C315.424 143.749 312.821 141.146 309.611 141.146H247.288C244.078 141.146 241.475 138.543 241.475 135.332V113.473C241.475 110.263 238.872 107.66 235.661 107.66H162.583H159.647Z" fill="#EE07FF"/>
<path d="M86.5693 113.473H159.647V101.846H86.5693V113.473ZM86.5693 135.326V113.473H74.9417V135.326H86.5693ZM11.7836 146.954H74.9417V135.326H11.7836V146.954ZM11.7836 176.344V146.954H0.156071V176.344H11.7836ZM81.9833 176.344H11.7836V187.972H81.9833V176.344ZM81.9833 154.492V176.344H93.6108V154.492H81.9833ZM159.647 142.864H93.6108V154.492H159.647V142.864ZM162.583 142.864H159.647V154.492H162.583V142.864ZM227.783 142.864H162.583V154.492H227.783V142.864ZM239.411 176.35V154.492H227.783V176.35H239.411ZM309.611 176.35H239.411V187.978H309.611V176.35ZM309.611 146.959V176.35H321.238V146.959H309.611ZM247.288 146.959H309.611V135.332H247.288V146.959ZM235.661 113.473V135.332H247.288V113.473H235.661ZM162.583 113.473H235.661V101.846H162.583V113.473ZM159.647 113.473H162.583V101.846H159.647V113.473ZM247.288 113.473C247.288 107.052 242.083 101.846 235.661 101.846V113.473V113.473H247.288ZM321.238 146.959C321.238 140.538 316.032 135.332 309.611 135.332V146.959H321.238ZM227.783 176.35C227.783 182.772 232.989 187.978 239.411 187.978V176.35V176.35H227.783ZM227.783 154.492V154.492H239.411C239.411 148.07 234.205 142.864 227.783 142.864V154.492ZM93.6108 154.492V142.864C87.1891 142.864 81.9833 148.07 81.9833 154.492H93.6108ZM0.156071 176.344C0.156071 182.766 5.36191 187.972 11.7836 187.972V176.344H11.7836H0.156071ZM11.7836 135.326C5.36191 135.326 0.156071 140.532 0.156071 146.954H11.7836V146.954V135.326ZM247.288 135.332V135.332H235.661C235.661 141.754 240.867 146.959 247.288 146.959V135.332ZM74.9417 135.326V146.954C81.3635 146.954 86.5693 141.748 86.5693 135.326H74.9417ZM81.9833 187.972C88.405 187.972 93.6108 182.766 93.6108 176.344H81.9833V187.972ZM309.611 187.978C316.032 187.978 321.238 182.772 321.238 176.35H309.611V187.978ZM86.5693 101.846C80.1476 101.846 74.9417 107.052 74.9417 113.473H86.5693V113.473V101.846Z" fill="#470D0D" mask="url(#path-3-outside-1_1_121)"/>
</svg>
