<svg width="322" height="289" viewBox="0 0 322 289" fill="none" xmlns="http://www.w3.org/2000/svg">
<rect x="66.8718" y="3.00009" width="87.641" height="87.641" rx="8.72067" fill="white" stroke="#634C00" stroke-width="5.81378"/>
<rect x="166.619" y="3.00009" width="87.641" height="87.641" rx="8.72067" fill="white" stroke="#634C00" stroke-width="5.81378"/>
<mask id="path-3-outside-1_1_70" maskUnits="userSpaceOnUse" x="-0.161194" y="130.812" width="322" height="158" fill="black">
<rect fill="white" x="-0.161194" y="130.812" width="322" height="158"/>
<path fill-rule="evenodd" clip-rule="evenodd" d="M87.666 142.626C87.666 139.415 85.0631 136.812 81.8522 136.812H11.6526C8.44172 136.812 5.83881 139.415 5.83881 142.626V212.825C5.83881 216.036 8.44172 218.639 11.6526 218.639H74.8107C78.0216 218.639 80.6245 221.242 80.6245 224.453V276.51C80.6245 279.721 83.2274 282.324 86.4383 282.324H159.516H162.452H235.53C238.741 282.324 241.344 279.721 241.344 276.51V224.458C241.344 221.248 243.947 218.645 247.157 218.645H309.48C312.69 218.645 315.293 216.042 315.293 212.831V142.631C315.293 139.42 312.69 136.817 309.48 136.817H239.28C236.069 136.817 233.466 139.42 233.466 142.631V194.683C233.466 197.894 230.863 200.496 227.652 200.496H162.452H159.516H93.4798C90.2689 200.496 87.666 197.894 87.666 194.683V142.626Z"/>
</mask>
<path fill-rule="evenodd" clip-rule="evenodd" d="M87.666 142.626C87.666 139.415 85.0631 136.812 81.8522 136.812H11.6526C8.44172 136.812 5.83881 139.415 5.83881 142.626V212.825C5.83881 216.036 8.44172 218.639 11.6526 218.639H74.8107C78.0216 218.639 80.6245 221.242 80.6245 224.453V276.51C80.6245 279.721 83.2274 282.324 86.4383 282.324H159.516H162.452H235.53C238.741 282.324 241.344 279.721 241.344 276.51V224.458C241.344 221.248 243.947 218.645 247.157 218.645H309.48C312.69 218.645 315.293 216.042 315.293 212.831V142.631C315.293 139.42 312.69 136.817 309.48 136.817H239.28C236.069 136.817 233.466 139.42 233.466 142.631V194.683C233.466 197.894 230.863 200.496 227.652 200.496H162.452H159.516H93.4798C90.2689 200.496 87.666 197.894 87.666 194.683V142.626Z" fill="white"/>
<path d="M11.6526 142.626H81.8522V130.998H11.6526V142.626ZM11.6526 212.825V142.626H0.0250287V212.825H11.6526ZM74.8107 212.825H11.6526V224.453H74.8107V212.825ZM74.8107 224.453V276.51H86.4383V224.453H74.8107ZM86.4383 288.137H159.516V276.51H86.4383V288.137ZM159.516 288.137H162.452V276.51H159.516V288.137ZM162.452 288.137H235.53V276.51H162.452V288.137ZM247.157 276.51V224.458H235.53V276.51H247.157ZM247.157 224.458H309.48V212.831H247.157V224.458ZM321.107 212.831V142.631H309.48V212.831H321.107ZM309.48 131.004H239.28V142.631H309.48V131.004ZM227.652 142.631V194.683H239.28V142.631H227.652ZM227.652 194.683H162.452V206.31H227.652V194.683ZM162.452 194.683H159.516V206.31H162.452V194.683ZM159.516 194.683H93.4798V206.31H159.516V194.683ZM81.8522 142.626V194.683H93.4798V142.626H81.8522ZM93.4798 194.683V194.683H81.8522C81.8522 201.104 87.0581 206.31 93.4798 206.31V194.683ZM321.107 142.631C321.107 136.21 315.901 131.004 309.48 131.004V142.631V142.631H321.107ZM309.48 224.458C315.901 224.458 321.107 219.253 321.107 212.831H309.48V224.458ZM247.157 224.458V212.831C240.736 212.831 235.53 218.037 235.53 224.458H247.157ZM235.53 288.137C241.952 288.137 247.157 282.932 247.157 276.51H235.53V288.137ZM74.8107 276.51C74.8107 282.932 80.0165 288.137 86.4383 288.137V276.51H74.8107ZM74.8107 224.453H86.4383C86.4383 218.031 81.2324 212.825 74.8107 212.825V224.453ZM0.0250287 212.825C0.0250287 219.247 5.23086 224.453 11.6526 224.453V212.825H11.6526H0.0250287ZM227.652 194.683V194.683V206.31C234.074 206.31 239.28 201.104 239.28 194.683H227.652ZM81.8522 142.626L81.8522 142.626H93.4798C93.4798 136.204 88.274 130.998 81.8522 130.998V142.626ZM239.28 131.004C232.858 131.004 227.652 136.209 227.652 142.631H239.28V131.004ZM11.6526 130.998C5.23086 130.998 0.0250287 136.204 0.0250287 142.626H11.6526L11.6526 142.626V130.998Z" fill="#634C00" mask="url(#path-3-outside-1_1_70)"/>
</svg>
