<svg width="322" height="202" viewBox="0 0 322 202" fill="none" xmlns="http://www.w3.org/2000/svg">
<rect x="60.3338" y="90.6938" width="87.641" height="40.8185" rx="8.72067" transform="rotate(-90 60.3338 90.6938)" fill="#EE07FF" stroke="#470D0D" stroke-width="5.81378"/>
<rect x="122.971" y="90.7052" width="87.641" height="40.8185" rx="8.72067" transform="rotate(-90 122.971 90.7052)" fill="#EE07FF" stroke="#470D0D" stroke-width="5.81378"/>
<mask id="path-3-outside-1_1_149" maskUnits="userSpaceOnUse" x="0.412476" y="115.016" width="322" height="87" fill="black">
<rect fill="white" x="0.412476" y="115.016" width="322" height="87"/>
<path fill-rule="evenodd" clip-rule="evenodd" d="M241.917 126.829C241.917 123.619 239.314 121.016 236.104 121.016H165.904C162.693 121.016 160.09 123.619 160.09 126.829V133.37C160.09 136.581 157.487 139.184 154.276 139.184H87.0119C83.8011 139.184 81.1982 141.787 81.1982 144.997V148.682C81.1982 151.893 78.5952 154.496 75.3844 154.496H12.2263C9.01539 154.496 6.41248 157.099 6.41248 160.31V189.7C6.41248 192.911 9.01539 195.514 12.2263 195.514H82.4259C85.6368 195.514 88.2397 192.911 88.2397 189.7V186.016C88.2397 182.805 90.8426 180.202 94.0535 180.202H157.212C160.422 180.202 163.025 177.599 163.025 174.388V167.848C163.025 164.637 165.628 162.034 168.839 162.034H228.226C231.437 162.034 234.04 164.637 234.04 167.848V189.706C234.04 192.917 236.643 195.52 239.854 195.52H310.053C313.264 195.52 315.867 192.917 315.867 189.706V160.315C315.867 157.105 313.264 154.502 310.053 154.502H247.731C244.52 154.502 241.917 151.899 241.917 148.688V126.829Z"/>
</mask>
<path fill-rule="evenodd" clip-rule="evenodd" d="M241.917 126.829C241.917 123.619 239.314 121.016 236.104 121.016H165.904C162.693 121.016 160.09 123.619 160.09 126.829V133.37C160.09 136.581 157.487 139.184 154.276 139.184H87.0119C83.8011 139.184 81.1982 141.787 81.1982 144.997V148.682C81.1982 151.893 78.5952 154.496 75.3844 154.496H12.2263C9.01539 154.496 6.41248 157.099 6.41248 160.31V189.7C6.41248 192.911 9.01539 195.514 12.2263 195.514H82.4259C85.6368 195.514 88.2397 192.911 88.2397 189.7V186.016C88.2397 182.805 90.8426 180.202 94.0535 180.202H157.212C160.422 180.202 163.025 177.599 163.025 174.388V167.848C163.025 164.637 165.628 162.034 168.839 162.034H228.226C231.437 162.034 234.04 164.637 234.04 167.848V189.706C234.04 192.917 236.643 195.52 239.854 195.52H310.053C313.264 195.52 315.867 192.917 315.867 189.706V160.315C315.867 157.105 313.264 154.502 310.053 154.502H247.731C244.52 154.502 241.917 151.899 241.917 148.688V126.829Z" fill="#EE07FF"/>
<path d="M165.904 126.829H236.104V115.202H165.904V126.829ZM165.904 133.37V126.829H154.276V133.37H165.904ZM87.0119 144.997H154.276V133.37H87.0119V144.997ZM87.0119 148.682V144.997H75.3844V148.682H87.0119ZM12.2263 160.31H75.3844V148.682H12.2263V160.31ZM12.2263 189.7V160.31H0.598698V189.7H12.2263ZM82.4259 189.7H12.2263V201.328H82.4259V189.7ZM82.4259 186.016V189.7H94.0535V186.016H82.4259ZM157.212 174.388H94.0535V186.016H157.212V174.388ZM157.212 167.848V174.388H168.839V167.848H157.212ZM228.226 156.22H168.839V167.848H228.226V156.22ZM239.854 189.706V167.848H228.226V189.706H239.854ZM310.053 189.706H239.854V201.334H310.053V189.706ZM310.053 160.315V189.706H321.681V160.315H310.053ZM247.731 160.315H310.053V148.688H247.731V160.315ZM236.104 126.829V148.688H247.731V126.829H236.104ZM247.731 148.688V148.688H236.104C236.104 155.11 241.309 160.315 247.731 160.315V148.688ZM321.681 160.315C321.681 153.894 316.475 148.688 310.053 148.688V160.315H321.681ZM310.053 201.334C316.475 201.334 321.681 196.128 321.681 189.706H310.053V201.334ZM228.226 189.706C228.226 196.128 233.432 201.334 239.854 201.334V189.706V189.706H228.226ZM228.226 167.848V167.848H239.854C239.854 161.426 234.648 156.22 228.226 156.22V167.848ZM168.839 167.848H168.839V156.22C162.417 156.22 157.212 161.426 157.212 167.848H168.839ZM157.212 186.016C163.633 186.016 168.839 180.81 168.839 174.388H157.212V186.016ZM94.0535 186.016V174.388C87.6317 174.388 82.4259 179.594 82.4259 186.016H94.0535ZM82.4259 201.328C88.8476 201.328 94.0535 196.122 94.0535 189.7H82.4259V189.7V201.328ZM0.598698 189.7C0.598698 196.122 5.80454 201.328 12.2263 201.328V189.7H12.2263H0.598698ZM12.2263 148.682C5.80454 148.682 0.598698 153.888 0.598698 160.31H12.2263V160.31V148.682ZM75.3844 148.682V160.31C81.8061 160.31 87.0119 155.104 87.0119 148.682H75.3844ZM87.0119 133.37C80.5902 133.37 75.3844 138.576 75.3844 144.997H87.0119V144.997V133.37ZM154.276 133.37V133.37V144.997C160.698 144.997 165.904 139.792 165.904 133.37H154.276ZM236.104 126.829V126.829H247.731C247.731 120.408 242.525 115.202 236.104 115.202V126.829ZM165.904 115.202C159.482 115.202 154.276 120.408 154.276 126.829H165.904V126.829V115.202Z" fill="#470D0D" mask="url(#path-3-outside-1_1_149)"/>
</svg>
