<svg width="166" height="284" viewBox="0 0 166 284" fill="none" xmlns="http://www.w3.org/2000/svg">
<rect x="-80.2288" y="0.556641" width="81.8272" height="81.8272" rx="5.81378" fill="white"/>
<rect x="13.4531" y="0.556641" width="81.8272" height="81.8272" rx="5.81378" fill="white"/>
<path fill-rule="evenodd" clip-rule="evenodd" d="M-61.6344 143.448C-61.6344 140.237 -64.2373 137.634 -67.4481 137.634H-137.648C-140.859 137.634 -143.462 140.237 -143.462 143.448V213.647C-143.462 216.858 -140.859 219.461 -137.648 219.461H-74.4897C-71.2788 219.461 -68.6759 222.064 -68.6759 225.275V277.332C-68.6759 280.543 -66.073 283.146 -62.8621 283.146H10.216H13.1513H86.2295C89.4403 283.146 92.0432 280.543 92.0432 277.332V225.28C92.0432 222.07 94.6462 219.467 97.857 219.467H160.179C163.39 219.467 165.993 216.864 165.993 213.653V143.453C165.993 140.242 163.39 137.639 160.179 137.639H89.9795C86.7686 137.639 84.1657 140.242 84.1657 143.453V195.505C84.1657 198.716 81.5628 201.319 78.3519 201.319H13.1513H10.216H-55.8206C-59.0314 201.319 -61.6344 198.716 -61.6344 195.505V143.448Z" fill="white"/>
</svg>
