<svg width="1011" height="600" viewBox="0 0 1011 600" fill="none" xmlns="http://www.w3.org/2000/svg">
<path fill-rule="evenodd" clip-rule="evenodd" d="M1920.7 891.236C1924.1 894.642 1929.63 894.642 1933.03 891.236L1935.76 888.507C1939.17 885.101 1939.17 879.58 1935.76 876.174L1276.13 216.541C1276.08 216.491 1276 216.491 1275.95 216.541C1275.87 216.623 1275.73 216.565 1275.73 216.45L1275.73 215.56C1275.73 215.285 1275.5 215.062 1275.23 215.062L1201.19 215.062C1198.87 215.062 1196.66 214.143 1195.02 212.507L1133.31 150.796C1133.24 150.723 1133.2 150.626 1133.2 150.524C1133.2 150.311 1133.02 150.139 1132.81 150.139C1132.71 150.139 1132.61 150.099 1132.54 150.027L1132.46 149.95C1132.21 149.699 1131.8 149.699 1131.55 149.95C1131.43 150.071 1131.27 150.139 1131.09 150.139L1032.81 150.139C1030.49 150.139 1028.27 149.221 1026.64 147.585L862.2 -16.8539C862.193 -16.8607 862.182 -16.8607 862.175 -16.8539L862.162 -16.8415C862.156 -16.835 862.145 -16.8396 862.145 -16.8488C862.145 -16.8545 862.14 -16.8592 862.134 -16.8592L694.988 -16.8592C690.172 -16.8592 686.267 -12.9548 686.267 -8.13851L686.267 4.44201L686.268 188.746C686.268 193.563 682.363 197.467 677.547 197.467L615.315 197.467C610.498 197.467 606.594 193.563 606.594 188.746L606.594 -86.545C606.594 -91.3613 602.69 -95.2657 597.873 -95.2657L588.783 -95.2657C583.967 -95.2657 580.063 -91.3613 580.063 -86.545L580.063 188.746C580.063 193.563 576.158 197.467 571.342 197.467L418.273 197.467C415.96 197.467 413.742 198.386 412.106 200.021L289.517 322.612C287.881 324.247 285.663 325.166 283.35 325.166L213.743 325.166L187.211 325.166L-211.248 325.166C-216.064 325.166 -219.969 329.07 -219.969 333.886L-219.969 337.746C-219.969 342.563 -216.064 346.467 -211.248 346.467L178.49 346.467C183.307 346.467 187.211 350.371 187.211 355.188L187.211 587.362C187.211 589.674 186.292 591.893 184.657 593.528L-122.846 901.031C-122.849 901.034 -122.85 901.04 -122.847 901.044C-122.846 901.045 -122.846 901.047 -122.846 901.049L-122.845 1229.51L-122.845 1251.81C-122.846 1251.81 -122.844 1251.81 -122.842 1251.81L-101.546 1251.81C-101.545 1251.81 -101.544 1251.81 -101.544 1251.81C-101.544 1251.81 -101.543 1251.81 -101.542 1251.81L196.244 1251.81C198.557 1251.81 200.775 1252.73 202.41 1254.36L272.365 1324.31C274 1325.95 274.919 1328.17 274.919 1330.48L274.919 1387.1C274.919 1391.92 278.823 1395.82 283.639 1395.82L292.729 1395.82C297.546 1395.82 301.45 1391.92 301.45 1387.1L301.45 1374.45C301.45 1366.68 310.844 1362.79 316.337 1368.29L356.218 1408.17C359.623 1411.57 365.145 1411.57 368.551 1408.17L371.28 1405.44C374.686 1402.03 374.686 1396.51 371.28 1393.11L304.004 1325.83C302.369 1324.19 301.45 1321.98 301.45 1319.66L301.45 1260.53C301.45 1255.71 305.355 1251.81 310.171 1251.81L399.265 1251.81C399.266 1251.81 399.267 1251.81 399.268 1251.81C399.27 1251.81 399.272 1251.81 399.274 1251.81C399.274 1251.81 399.275 1251.81 399.276 1251.81L399.539 1251.81C399.89 1251.81 400.175 1251.52 400.175 1251.17C400.175 1251 400.242 1250.84 400.362 1250.72L711.153 939.929C712.788 938.293 715.006 937.374 717.319 937.374L1168.4 937.374C1168.64 937.374 1168.82 937.186 1168.82 936.955C1168.82 936.843 1168.87 936.736 1168.95 936.658L1400.72 704.882C1400.73 704.879 1400.73 704.878 1400.73 704.878C1400.74 704.878 1400.74 704.873 1400.74 704.866L1400.74 418.856C1400.74 418.778 1400.68 418.715 1400.6 418.715C1400.48 418.715 1400.41 418.562 1400.5 418.473L1400.6 418.373C1400.68 418.295 1400.68 418.168 1400.6 418.09L1234.75 252.241C1229.26 246.747 1233.15 237.353 1240.92 237.353L1263.2 237.353C1265.52 237.353 1267.74 238.272 1269.37 239.908L1920.7 891.236ZM-98.99 907.299C-100.625 908.935 -101.544 911.153 -101.544 913.466L-101.544 1220.79C-101.544 1225.61 -97.6398 1229.51 -92.8235 1229.51L156.511 1229.51C164.28 1229.51 168.171 1220.12 162.677 1214.63L-28.9014 1023.05C-29.102 1022.85 -29.102 1022.52 -28.9014 1022.32L-28.1652 1021.59C-28.1132 1021.53 -28.1501 1021.45 -28.2236 1021.45C-28.2692 1021.45 -28.3062 1021.41 -28.3062 1021.36L-28.3062 893.226C-28.3061 893.209 -28.2924 893.196 -28.2757 893.196L147.306 893.196C149.619 893.196 151.837 892.277 153.473 890.642L272.365 771.75C274 770.114 274.919 767.896 274.919 765.583L274.919 638.552C274.919 638.481 274.977 638.423 275.048 638.423C275.164 638.423 275.222 638.283 275.14 638.202L275.05 638.112C274.979 638.041 274.979 637.926 275.05 637.855L577.508 335.397C579.144 333.761 580.063 331.543 580.063 329.23L580.063 227.489C580.063 222.673 576.158 218.768 571.342 218.768L427.097 218.768C424.784 218.768 422.566 219.687 420.93 221.323L295.807 346.446C295.792 346.461 295.766 346.461 295.75 346.446L295.727 346.422C295.71 346.405 295.682 346.417 295.682 346.441C295.682 346.455 295.67 346.467 295.655 346.467L222.463 346.467C217.647 346.467 213.743 350.371 213.743 355.188L213.743 594.571C213.743 594.576 213.738 594.581 213.733 594.581C213.73 594.581 213.728 594.582 213.726 594.584L-98.99 907.299ZM159.42 914.552C159.385 914.517 159.337 914.497 159.287 914.497L1.71565 914.497C-3.10063 914.497 -7.00505 918.401 -7.00505 923.218L-7.00505 1011.21C-7.00505 1013.52 -6.08623 1015.74 -4.45085 1017.38L205.135 1226.96C206.77 1228.6 208.988 1229.51 211.301 1229.51L266.198 1229.51C271.014 1229.51 274.919 1225.61 274.919 1220.79L274.919 820.373C274.919 812.604 265.525 808.713 260.032 814.207L159.686 914.552C159.613 914.626 159.494 914.626 159.42 914.552ZM304.004 770.234C302.369 771.87 301.45 774.088 301.45 776.401L301.45 1220.79C301.45 1225.61 305.355 1229.51 310.171 1229.51L387.83 1229.51C390.143 1229.51 392.361 1228.6 393.996 1226.96L705.194 915.763C705.491 915.466 705.972 915.466 706.269 915.763L706.578 916.072C706.944 916.438 707.568 916.179 707.568 915.662C707.568 915.342 707.828 915.083 708.148 915.083L1156.79 915.083C1159.1 915.083 1161.32 914.164 1162.95 912.528L1376.89 698.592C1378.52 696.957 1379.44 694.739 1379.44 692.426L1379.44 430.667C1379.44 428.354 1378.52 426.136 1376.89 424.501L1192.3 239.908C1190.66 238.272 1188.44 237.353 1186.13 237.353L961.841 237.353C959.529 237.353 957.31 238.272 955.675 239.908L858.882 336.7C857.247 338.336 856.328 340.554 856.328 342.867L856.328 555.23L856.328 564.184L856.328 567.811C856.328 572.627 852.424 576.531 847.607 576.531L637.99 576.531C637.805 576.531 637.627 576.605 637.496 576.736C637.223 577.009 636.78 577.009 636.507 576.736L573.171 513.4C569.766 509.995 564.244 509.995 560.838 513.4L304.004 770.234ZM950.655 215.062C950.492 215.062 950.36 215.194 950.36 215.356L950.36 215.583C950.36 215.762 950.144 215.852 950.017 215.725C949.939 215.647 949.812 215.647 949.733 215.725L837.287 328.171C837.039 328.42 836.702 328.559 836.351 328.559C835.62 328.559 835.027 329.152 835.027 329.883L835.027 546.51C835.027 551.326 831.123 555.23 826.306 555.23L648.738 555.23C646.425 555.23 644.207 554.311 642.572 552.676L572.164 482.268C568.758 478.862 563.236 478.862 559.831 482.268L551.439 490.66C551.161 490.938 551.161 491.389 551.439 491.668C551.717 491.946 551.717 492.397 551.439 492.675L316.337 727.777C310.844 733.271 301.45 729.38 301.45 721.61L301.45 652.588C301.45 650.275 302.369 648.057 304.004 646.422L602.101 348.325C602.595 347.831 603.264 347.554 603.962 347.554C605.416 347.554 606.594 346.376 606.594 344.922L606.594 227.489C606.594 222.673 610.498 218.768 615.315 218.768L686.268 218.769L698.848 218.769C703.664 218.769 707.569 214.865 707.569 210.048L707.569 13.1627C707.569 8.34638 711.473 4.44201 716.289 4.44201L849.759 4.44201C852.072 4.44201 854.29 5.3608 855.925 6.99624L1021.36 172.427C1021.36 172.428 1021.36 172.428 1021.36 172.427L1021.36 172.427C1021.36 172.426 1021.36 172.427 1021.36 172.429C1021.36 172.43 1021.36 172.431 1021.37 172.431L1121.21 172.431C1123.52 172.431 1125.74 173.35 1127.37 174.985L1152.56 200.175C1158.06 205.668 1154.17 215.062 1146.4 215.062L950.655 215.062ZM251.034 1251.81C243.265 1251.81 239.374 1261.2 244.868 1266.69L260.032 1281.86C265.525 1287.35 274.919 1283.46 274.919 1275.69L274.919 1260.53C274.919 1255.71 271.014 1251.81 266.198 1251.81L251.034 1251.81Z" fill="#F13032"/>
</svg>
